<?xml version="1.0" encoding="UTF-8"?>
<svg width="24px" height="24px" viewBox="0 0 24 24" version="1.1" xmlns="http://www.w3.org/2000/svg" xmlns:xlink="http://www.w3.org/1999/xlink">
    <!-- Generator: Sketch 50.2 (55047) - http://www.bohemiancoding.com/sketch -->
    <title>icon/ic_amenities</title>
    <desc>Created with Sketch.</desc>
    <defs></defs>
    <g id="icon/ic_amenities" stroke="none" stroke-width="1" fill="none" fill-rule="evenodd">
        <path d="M18.0000588,11.0000589 C17.19236,11.0000589 16.5093616,10.8826668 16.0000588,10.628298 C15.490756,10.8826668 14.8077576,11.0000589 14.0000588,11.0000589 C13.19236,11.0000589 12.5093616,10.8826668 12.0000588,10.628298 C11.490756,10.8826668 10.8077576,11.0000589 10.0000588,11.0000589 C9.19236008,11.0000589 8.50936163,10.8826668 8.00005885,10.628298 C7.49075607,10.8826668 6.80775762,11.0000589 6.00005885,11.0000589 L6.00005885,19.0000589 L9.00005885,19.0000589 L9.00005885,14.0000589 C9.00005885,13.4477742 9.4477741,13.0000589 10.0000588,13.0000589 L14.0000588,13.0000589 C14.2762012,13.0000589 14.5262012,13.1119877 14.7071656,13.2929521 C14.88813,13.4739165 15.0000588,13.7239165 15.0000588,14.0000589 L15.0000588,19.0000589 L18.0000588,19.0000589 L18.0000588,11.0000589 Z M20.0000588,10.3914955 L20.0000588,19.0000589 C20.5523435,19.0000589 21.0000588,19.4477742 21.0000588,20.0000589 C21.0000588,20.5523436 20.5523435,21.0000589 20.0000588,21.0000589 L4.00005885,21.0000589 C3.4477741,21.0000589 3.00005885,20.5523436 3.00005885,20.0000589 C3.00005885,19.4477742 3.4477741,19.0000589 4.00005885,19.0000589 L4.00005885,10.3914955 C3.35613923,9.88193386 3.00256538,9.06829843 3.00007213,8.01132401 C2.99752223,7.79860227 3.06254976,7.5834043 3.20005885,7.40005885 C3.20203465,7.39733116 3.20407054,7.39464918 3.20611961,7.39197784 L6.1930761,3.40936919 C6.37504315,3.16119191 6.66873368,3.00005885 7.00005885,3.00005885 C7.00393758,2.99999732 7.00781697,3.00001683 7.01169677,3.00005885 L16.9884209,3.00005885 C16.9923007,3.00001683 16.9961801,2.99999732 17.0000588,3.00000029 C17.331384,3.00005885 17.6250745,3.16119191 17.8070416,3.40936919 L20.793998,7.39197784 C20.7960471,7.39464918 20.798083,7.39733116 20.8001056,7.40002368 C20.9375679,7.5834043 21.0025954,7.79860227 21.0000455,8.01132401 C20.9975523,9.06829843 20.6439784,9.88193386 20.0000588,10.3914955 Z M18.9843865,8.31249581 L16.5000588,5.00005885 L7.50005885,5.00005885 L5.01573113,8.31249581 C5.07765899,8.84141613 5.33522328,9.00005885 6.00005885,9.00005885 C6.48257118,9.00005885 6.82391647,8.94971548 7.00770123,8.87581773 C7.06887633,8.38216145 7.48984517,8.00005885 8.00005885,8.00005885 C8.51027253,8.00005885 8.93124137,8.38216145 8.99241647,8.87581773 C9.17620123,8.94971548 9.51754652,9.00005885 10.0000588,9.00005885 C10.4825711,9.00005885 10.8239164,8.94971548 11.0077012,8.87581773 C11.0688925,8.38214668 11.489855,8.00005885 12.0000588,8.00005885 C12.5102725,8.00005885 12.9312413,8.38216145 12.9924164,8.87581773 C13.1762012,8.94971548 13.5175465,9.00005885 14.0000588,9.00005885 C14.4825711,9.00005885 14.8239164,8.94971548 15.0077012,8.87581773 C15.0688763,8.38216145 15.4898451,8.00005885 16.0000588,8.00005885 C16.5102725,8.00005885 16.9312413,8.38216145 16.9924164,8.87581773 C17.1762012,8.94971548 17.5175465,9.00005885 18.0000588,9.00005885 C18.6648944,9.00005885 18.9224587,8.84141613 18.9843865,8.31249581 Z M11.0000588,19.0000589 L13.0000588,19.0000589 L13.0000588,15.0000589 L11.0000588,15.0000589 L11.0000588,19.0000589 Z" id="ic_amenities" fill="#2D333F" fill-rule="nonzero"></path>
    </g>
</svg>