<svg width="24" height="24" viewBox="0 0 24 24" fill="none" xmlns="http://www.w3.org/2000/svg">
<path d="M12.5303 14.4697L12.9423 13.5586C12.5631 13.3871 12.1174 13.4684 11.8232 13.7626L12.5303 14.4697ZM11 16L10.2929 15.2929C9.90237 15.6834 9.90237 16.3166 10.2929 16.7071L11 16ZM13 18L13.7071 18.7071C14.0976 18.3166 14.0976 17.6834 13.7071 17.2929L13 18ZM10 21L9.29289 21.7071C9.68342 22.0976 10.3166 22.0976 10.7071 21.7071L10 21ZM8 19L8.70711 18.2929C8.31658 17.9024 7.68342 17.9024 7.29289 18.2929L8 19ZM6 21L5.29289 21.7071C5.68342 22.0976 6.31658 22.0976 6.70711 21.7071L6 21ZM3 18L2.29289 17.2929C1.90237 17.6834 1.90237 18.3166 2.29289 18.7071L3 18ZM9.53026 11.4697L10.2374 12.1768C10.5316 11.8826 10.6129 11.4369 10.4414 11.0577L9.53026 11.4697ZM15 16C18.866 16 22 12.866 22 9H20C20 11.7614 17.7614 14 15 14V16ZM12.1182 15.3809C12.9983 15.7789 13.9747 16 15 16V14C14.2645 14 13.5686 13.8418 12.9423 13.5586L12.1182 15.3809ZM11.7071 16.7071L13.2374 15.1768L11.8232 13.7626L10.2929 15.2929L11.7071 16.7071ZM10.2929 16.7071L12.2929 18.7071L13.7071 17.2929L11.7071 15.2929L10.2929 16.7071ZM12.2929 17.2929L9.29289 20.2929L10.7071 21.7071L13.7071 18.7071L12.2929 17.2929ZM10.7071 20.2929L8.70711 18.2929L7.29289 19.7071L9.29289 21.7071L10.7071 20.2929ZM6.70711 21.7071L8.70711 19.7071L7.29289 18.2929L5.29289 20.2929L6.70711 21.7071ZM2.29289 18.7071L5.29289 21.7071L6.70711 20.2929L3.70711 17.2929L2.29289 18.7071ZM8.82315 10.7626L2.29289 17.2929L3.70711 18.7071L10.2374 12.1768L8.82315 10.7626ZM8 9C8 10.0253 8.22107 11.0017 8.6191 11.8818L10.4414 11.0577C10.1582 10.4314 10 9.73551 10 9H8ZM15 2C11.134 2 8 5.13401 8 9H10C10 6.23858 12.2386 4 15 4V2ZM22 9C22 5.13401 18.866 2 15 2V4C17.7614 4 20 6.23858 20 9H22Z" fill="#2D333F"/>
<circle cx="15" cy="9" r="2" fill="#2D333F"/>
</svg>
