<?xml version="1.0" encoding="UTF-8"?>
<svg width="24px" height="24px" viewBox="0 0 24 24" version="1.1" xmlns="http://www.w3.org/2000/svg" xmlns:xlink="http://www.w3.org/1999/xlink">
    <g id="icon/ic_add_photo" stroke="none" stroke-width="1" fill="none" fill-rule="evenodd">
        <path d="M4,6 L4,5 C4,4.44771525 4.44771525,4 5,4 C5.55228475,4 6,4.44771525 6,5 L6,6 L7,6 C7.55228475,6 8,6.44771525 8,7 C8,7.55228475 7.55228475,8 7,8 L6,8 L6,9 C6,9.55228475 5.55228475,10 5,10 C4.44771525,10 4,9.55228475 4,9 L4,8 L3,8 C2.44771525,8 2,7.55228475 2,7 C2,6.44771525 2.44771525,6 3,6 L4,6 Z M15.1683073,7 L11.0019056,7 C10.4496208,7 10.0019056,6.55228475 10.0019056,6 C10.0019056,5.44771525 10.4496208,5 11.0019056,5 L15.9953845,5 L18,7 L20,7 C21.1045695,7 22,7.8954305 22,9 L22,18 C22,19.1045695 21.1045695,20 20,20 L6,20 C4.8954305,20 4,19.1045695 4,18 L4,13 C4,12.4477153 4.44771525,12 5,12 C5.55228475,12 6,12.4477153 6,13 L6,18 L20,18 L20,9 L17.1729228,9 L15.1683073,7 Z M13,16.5 C11.0670034,16.5 9.5,14.9329966 9.5,13 C9.5,11.0670034 11.0670034,9.5 13,9.5 C14.9329966,9.5 16.5,11.0670034 16.5,13 C16.5,14.9329966 14.9329966,16.5 13,16.5 Z M13,14.5 C13.8284271,14.5 14.5,13.8284271 14.5,13 C14.5,12.1715729 13.8284271,11.5 13,11.5 C12.1715729,11.5 11.5,12.1715729 11.5,13 C11.5,13.8284271 12.1715729,14.5 13,14.5 Z" id="ic_add_photo" fill="#2D333F" fill-rule="nonzero"></path>
    </g>
</svg>