<?xml version="1.0" encoding="UTF-8"?>
<svg width="24px" height="24px" viewBox="0 0 24 24" version="1.1" xmlns="http://www.w3.org/2000/svg" xmlns:xlink="http://www.w3.org/1999/xlink">
    <!-- Generator: Sketch 50.2 (55047) - http://www.bohemiancoding.com/sketch -->
    <title>icon/ic_accessibility</title>
    <desc>Created with Sketch.</desc>
    <defs></defs>
    <g id="icon/ic_accessibility" stroke="none" stroke-width="1" fill="none" fill-rule="evenodd">
        <path d="M15.7966749,15.3955021 C15.860534,15.4518057 15.9202011,15.5135792 15.9749283,15.580468 L19.5479146,19.9474512 C19.8402708,20.3047754 20,20.752242 20,21.2139268 L20,21.25 C20,21.6642136 19.6642136,22 19.25,22 C18.7753012,22 18.3256689,21.7869286 18.0250717,21.419532 L14.4520854,17.0525488 C14.4379246,17.0352412 14.4240749,17.017722 14.4105395,17 L11,17 C10.4477153,17 10,16.5522847 10,16 L10,12 C10,11.4477153 10.4477153,11 11,11 L15,11 C15.5522847,11 16,11.4477153 16,12 C16,12.5522847 15.5522847,13 15,13 L12,13 L12,15 L15,15 C15.3251396,15 15.6140367,15.1551728 15.7966749,15.3955021 Z M8,10.3414114 L8,12.5351288 C6.80439726,13.2267476 6,14.5194353 6,16 C6,18.209139 7.790861,20 10,20 C11.1045695,20 12.1045695,19.5522847 12.8284271,18.8284271 L14.2426407,20.2426407 C13.1568542,21.3284271 11.6568542,22 10,22 C6.6862915,22 4,19.3137085 4,16 C4,13.3875623 5.66961525,11.1650842 8,10.3414114 Z M11,10 C8.790861,10 7,8.209139 7,6 C7,3.790861 8.790861,2 11,2 C13.209139,2 15,3.790861 15,6 C15,8.209139 13.209139,10 11,10 Z M11,8 C12.1045695,8 13,7.1045695 13,6 C13,4.8954305 12.1045695,4 11,4 C9.8954305,4 9,4.8954305 9,6 C9,7.1045695 9.8954305,8 11,8 Z" id="ic_accessibility" fill="#2D333F"></path>
    </g>
</svg>