<svg width="24" height="24" viewBox="0 0 24 24" fill="none" xmlns="http://www.w3.org/2000/svg">
<path d="M14.7 11.1C15.6941 11.1 16.5 10.2941 16.5 9.3C16.5 8.30589 15.6941 7.5 14.7 7.5C13.7059 7.5 12.9 8.30589 12.9 9.3C12.9 10.2941 13.7059 11.1 14.7 11.1Z" fill="#2D333F"/>
<path fill-rule="evenodd" clip-rule="evenodd" d="M14.7 3C11.2206 3 8.4 5.82061 8.4 9.3C8.4 9.9988 8.5141 10.6723 8.72506 11.3021L3.2636 16.7636C2.91213 17.1151 2.91213 17.6849 3.2636 18.0364L5.9636 20.7364C6.31508 21.0879 6.88492 21.0879 7.2364 20.7364L8.4 19.5728L9.5636 20.7364C9.91508 21.0879 10.4849 21.0879 10.8364 20.7364L13.5364 18.0364C13.8879 17.6849 13.8879 17.1151 13.5364 16.7636L12.3728 15.6L12.6979 15.2749C13.3277 15.4859 14.0012 15.6 14.7 15.6C18.1794 15.6 21 12.7794 21 9.3C21 5.82061 18.1794 3 14.7 3ZM10.2 9.3C10.2 6.81472 12.2147 4.8 14.7 4.8C17.1853 4.8 19.2 6.81472 19.2 9.3C19.2 11.7853 17.1853 13.8 14.7 13.8C14.038 13.8 13.4118 13.6576 12.8481 13.4027C12.5068 13.2484 12.1057 13.3215 11.8408 13.5864L10.4636 14.9636C10.1121 15.3151 10.1121 15.8849 10.4636 16.2364L11.6272 17.4L10.2 18.8272L9.0364 17.6636C8.68492 17.3121 8.11508 17.3121 7.7636 17.6636L6.6 18.8272L5.17279 17.4L10.4136 12.1592C10.6785 11.8943 10.7516 11.4932 10.5973 11.1519C10.3424 10.5882 10.2 9.96196 10.2 9.3Z" fill="#2D333F"/>
</svg>
