<svg width="22" height="24" viewBox="0 0 22 24" fill="none" xmlns="http://www.w3.org/2000/svg">
  <path fill-rule="evenodd" clip-rule="evenodd" d="M16.8544 12.3891C17.0485 12.1938 17.0485 11.8772 16.8544 11.682L11.3515 6.14645C11.1574 5.95118 10.8426 5.95118 10.6485 6.14645L5.14558 11.682C4.95147 11.8772 4.95147 12.1938 5.14558 12.3891L5.84853 13.0962C6.04264 13.2915 6.35736 13.2915 6.55147 13.0962L10 9.62724V17.5C10 17.7761 10.2239 18 10.5 18H11.5C11.7761 18 12 17.7761 12 17.5V9.62724L15.4485 13.0962C15.6426 13.2915 15.9574 13.2915 16.1515 13.0962L16.8544 12.3891Z" fill="#2D333F"/>
</svg>
