<?xml version="1.0" encoding="UTF-8"?>
<svg width="24px" height="24px" viewBox="0 0 24 24" version="1.1" xmlns="http://www.w3.org/2000/svg" xmlns:xlink="http://www.w3.org/1999/xlink">
    <!-- Generator: Sketch 50.2 (55047) - http://www.bohemiancoding.com/sketch -->
    <title>icon/ic_amenities</title>
    <desc>Created with Sketch.</desc>
    <defs>
        <path d="M18,11 C17.1923012,11 16.5093028,10.8826079 16,10.6282391 C15.4906972,10.8826079 14.8076988,11 14,11 C13.1923012,11 12.5093028,10.8826079 12,10.6282391 C11.4906972,10.8826079 10.8076988,11 10,11 C9.19230123,11 8.50930278,10.8826079 8,10.6282391 C7.49069722,10.8826079 6.80769877,11 6,11 L6,19 L9,19 L9,14 C9,13.4477153 9.44771525,13 10,13 L14,13 C14.2761424,13 14.5261424,13.1119288 14.7071068,13.2928932 C14.8880712,13.4738576 15,13.7238576 15,14 L15,19 L18,19 L18,11 Z M20,10.3914366 L20,19 C20.5522847,19 21,19.4477153 21,20 C21,20.5522847 20.5522847,21 20,21 L4,21 C3.44771525,21 3,20.5522847 3,20 C3,19.4477153 3.44771525,19 4,19 L4,10.3914366 C3.35608038,9.88187501 3.00250653,9.06823958 3.00001328,8.01126516 C2.99746338,7.79854342 3.06249091,7.58334545 3.2,7.4 C3.2019758,7.39727231 3.20401169,7.39459033 3.20606076,7.39191899 L6.19301725,3.40931034 C6.3749843,3.16113306 6.66867483,3 7,3 C7.00387873,2.99993847 7.00775812,2.99995798 7.01163792,3 L16.9883621,3 C16.9922419,2.99995798 16.9961213,2.99993847 17,2.99994144 C17.3313252,3 17.6250157,3.16113306 17.8069828,3.40931034 L20.7939392,7.39191899 C20.7959883,7.39459033 20.7980242,7.39727231 20.8000468,7.39996483 C20.9375091,7.58334545 21.0025366,7.79854342 20.9999867,8.01126516 C20.9974935,9.06823958 20.6439196,9.88187501 20,10.3914366 Z M18.9843277,8.31243696 L16.5,5 L7.5,5 L5.01567228,8.31243696 C5.07760014,8.84135728 5.33516443,9 6,9 C6.48251233,9 6.82385762,8.94965663 7.00764238,8.87575888 C7.06881748,8.3821026 7.48978632,8 8,8 C8.51021368,8 8.93118252,8.3821026 8.99235762,8.87575888 C9.17614238,8.94965663 9.51748767,9 10,9 C10.4825123,9 10.8238576,8.94965663 11.0076424,8.87575888 C11.0688337,8.38208783 11.4897962,8 12,8 C12.5102137,8 12.9311825,8.3821026 12.9923576,8.87575888 C13.1761424,8.94965663 13.5174877,9 14,9 C14.4825123,9 14.8238576,8.94965663 15.0076424,8.87575888 C15.0688175,8.3821026 15.4897863,8 16,8 C16.5102137,8 16.9311825,8.3821026 16.9923576,8.87575888 C17.1761424,8.94965663 17.5174877,9 18,9 C18.6648356,9 18.9223999,8.84135728 18.9843277,8.31243696 Z M11,19 L13,19 L13,15 L11,15 L11,19 Z" id="path-1"></path>
    </defs>
    <g id="icon/ic_amenities" stroke="none" stroke-width="1" fill="none" fill-rule="evenodd">
        <mask id="mask-2" fill="white">
            <use xlink:href="#path-1"></use>
        </mask>
        <use id="ic_amenities" fill="#2D333F" fill-rule="nonzero" xlink:href="#path-1"></use>
    </g>
</svg>