<?xml version="1.0" encoding="UTF-8"?>
<svg width="24px" height="24px" viewBox="0 0 24 24" version="1.1" xmlns="http://www.w3.org/2000/svg" xmlns:xlink="http://www.w3.org/1999/xlink" style="background: #FFFFFF;">
    <!-- Generator: Sketch 49.3 (51167) - http://www.bohemiancoding.com/sketch -->
    <title>icon/ic_award</title>
    <desc>Created with Sketch.</desc>
    <defs></defs>
    <g id="icon/ic_award" stroke="none" stroke-width="1" fill="none" fill-rule="evenodd">
        <path d="M19,5 L20,5 C20.5522847,5 21,5.44771525 21,6 L21,10 C21,10.5522847 20.5522847,11 20,11 L19,11 C18.9762852,11 18.9527631,10.9991745 18.929461,10.9975507 C18.4918898,14.0643995 16.0665076,16.4904816 13,16.9291111 L13,19 L15.5,19 C15.7761424,19 16,19.2238576 16,19.5 L16,20.5 C16,20.7761424 15.7761424,21 15.5,21 L8.5,21 C8.22385763,21 8,20.7761424 8,20.5 L8,19.5 C8,19.2238576 8.22385763,19 8.5,19 L11,19 L11,16.9291111 C7.93349244,16.4904816 5.50811016,14.0643995 5.07053895,10.9975507 C5.04723688,10.9991745 5.02371485,11 5,11 L4,11 C3.44771525,11 3,10.5522847 3,10 L3,6 C3,5.44771525 3.44771525,5 4,5 L5,5 L5,4.16666667 C5,3.52233446 5.52233446,3 6.16666667,3 L17.8333333,3 C18.4776655,3 19,3.52233446 19,4.16666667 L19,5 Z M7,5 L7,10 C7,12.7614237 9.23857625,15 12,15 C14.7614238,15 17,12.7614237 17,10 L17,5 L7,5 Z" id="ic_award" fill="#2D333F"></path>
    </g>
</svg>