<?xml version="1.0" encoding="UTF-8"?>
<svg width="24px" height="24px" viewBox="0 0 24 24" version="1.1" xmlns="http://www.w3.org/2000/svg" xmlns:xlink="http://www.w3.org/1999/xlink">
    <!-- Generator: Sketch 52.6 (67491) - http://www.bohemiancoding.com/sketch -->
    <title>icon/line/ic_block_reservation/Light UI - Default</title>
    <desc>Created with Sketch.</desc>
    <g id="icon/line/ic_block_reservation/Light-UI---Default" stroke="none" stroke-width="1" fill="none" fill-rule="evenodd">
        <g id="ic_block_reservation" transform="translate(1.000000, 1.000000)" fill="#2D333F" fill-rule="nonzero">
            <path d="M17.2533159,3.33247056 L20.2928932,0.292893219 C20.6834175,-0.0976310729 21.3165825,-0.0976310729 21.7071068,0.292893219 C22.0976311,0.683417511 22.0976311,1.31658249 21.7071068,1.70710678 L1.70710678,21.7071068 C1.31658249,22.0976311 0.683417511,22.0976311 0.292893219,21.7071068 C-0.0976310729,21.3165825 -0.0976310729,20.6834175 0.292893219,20.2928932 L3.54776225,17.0380242 C3.20567321,16.6765813 3,16.1898709 3,15.6628581 L3,5.1092589 C3,4.0046894 3.8954305,3.1092589 5,3.1092589 C5.13545224,3.1092589 5.27055411,3.12301929 5.40322489,3.15032815 L11.011946,4.30482325 L16.6652662,3.34510758 C16.8647965,3.31123504 17.0624358,3.3081745 17.2533159,3.33247056 Z M5,15.5857864 L10.0230579,10.5627286 L9.9764934,6.33945598 L5,5.1092589 L5,15.5857864 Z M12.001247,8.58453945 L14.8264536,5.75933281 L11.9764934,6.33945598 L12.001247,8.58453945 Z M19,6.95142971 L19,15.6709964 C19,16.6164654 18.3379266,17.4327751 17.4128175,17.6279281 L11.0981233,18.9600216 L7.69243292,18.2589968 L9.24357292,16.7078568 L10.0931188,16.9170612 L10.0815726,15.8698571 L12.0597617,13.891668 L12.0931188,16.9170612 L17,15.6709964 L17,8.95142971 L19,6.95142971 Z" id="Rectangle-69"></path>
        </g>
    </g>
</svg>