<?xml version="1.0" encoding="UTF-8"?>
<svg width="24px" height="24px" viewBox="0 0 24 24" version="1.1" xmlns="http://www.w3.org/2000/svg" xmlns:xlink="http://www.w3.org/1999/xlink">
    <!-- Generator: Sketch 49.3 (51167) - http://www.bohemiancoding.com/sketch -->
    <title>icon/ic_bookmark</title>
    <desc>Created with Sketch.</desc>
    <defs></defs>
    <g id="icon/ic_bookmark" stroke="none" stroke-width="1" fill="none" fill-rule="evenodd">
        <path d="M7,2.99987873 L17,2.99987873 C18.1045695,2.99987873 19,3.89530923 19,4.99987873 L19,20.6055572 C19,20.8816996 18.7761424,21.1055572 18.5,21.1055572 C18.421402,21.1055572 18.343911,21.0870278 18.273815,21.0514724 L12,17.8691561 L5.72618504,21.0514724 C5.4799129,21.1763909 5.17900339,21.0780144 5.05408484,20.8317423 C5.01852946,20.7616462 5,20.6841552 5,20.6055572 L5,4.99987873 C5,3.89530923 5.8954305,2.99987873 7,2.99987873 Z M7,5 L7,18.3374734 L12,15.7665154 L17,18.3374734 L17,5 L7,5 Z" id="ic_bookmark" fill="#2D333F"></path>
    </g>
</svg>