<svg width="24" height="24" viewBox="0 0 24 24" fill="none" xmlns="http://www.w3.org/2000/svg">
  <title>icon/ic_booking</title>
  <g clip-path="url(#clip0)">
    <path fill-rule="evenodd" clip-rule="evenodd" d="M24 4.50651C24 2.0193 21.9798 0 19.4926 0H4.50742C2.02023 0 1.90735e-05 2.0193 1.90735e-05 4.50651V18.9653C1.90735e-05 21.4518 2.02023 23.4718 4.50744 23.4718H19.4926C21.9798 23.4718 24 21.4518 24 18.9653L24 4.50651Z" fill="#0C3B7C"/>
    <path fill-rule="evenodd" clip-rule="evenodd" d="M0.000732422 14.5819H11.9873V23.4718H0.000741206L0.000732422 14.5819Z" fill="#0C3B7C"/>
    <path d="M10.9075 15.5363L8.97449 15.5344V13.223C8.97449 12.7292 9.16606 12.4722 9.58866 12.4134H10.9075C11.848 12.4134 12.4564 13.0064 12.4564 13.9662C12.4564 14.952 11.8634 15.5354 10.9075 15.5363H10.9075ZM8.97449 9.30208V8.69367C8.97449 8.16132 9.19975 7.90814 9.69359 7.87541H10.6832C11.5313 7.87541 12.0396 8.38273 12.0396 9.23277C12.0396 9.87968 11.6911 10.6354 10.714 10.6354H8.97449V9.30208ZM13.3757 11.6086L13.0263 11.4123L13.3314 11.1514C13.6867 10.8462 14.2816 10.1598 14.2816 8.97573C14.2816 7.16207 12.8751 5.99242 10.6986 5.99242H8.21495V5.99146H7.93193C7.28696 6.01552 6.77002 6.54018 6.76328 7.18903V17.48H10.7477C13.1668 17.48 14.7282 16.163 14.7282 14.1231C14.7282 13.0247 14.2238 12.0861 13.3757 11.6086Z" fill="white"/>
    <path d="M15.766 16.0583C15.766 15.2722 16.4001 14.6362 17.1813 14.6362C17.9645 14.6362 18.6015 15.2722 18.6015 16.0583C18.6015 16.8435 17.9645 17.4804 17.1813 17.4804C16.4001 17.4804 15.766 16.8435 15.766 16.0583" fill="#00BAFC"/>
  </g>
  <defs>
    <clipPath id="clip0">
      <rect width="24" height="23.472" fill="white"/>
    </clipPath>
  </defs>
</svg>
