<svg width="24" height="24" viewBox="0 0 24 24" fill="none" xmlns="http://www.w3.org/2000/svg">
<path fill-rule="evenodd" clip-rule="evenodd" d="M20.6173 2.24677C20.2042 1.88462 19.5721 1.92588 19.2054 2.33894L18.4482 3.19182C18.2388 3.10443 18.0097 3.05627 17.7695 3.05627H15.7319C15.4211 2.507 14.8403 2.13744 14.1751 2.13744H10.5806C9.91537 2.13744 9.33456 2.507 9.02381 3.05627H6.98614C5.99355 3.05627 5.1889 3.87902 5.1889 4.89393V18.1273L3.25222 20.3088C2.88552 20.7218 2.92309 21.3502 3.33615 21.7124L3.38272 21.7532C3.79577 22.1154 4.42789 22.0741 4.79459 21.6611L20.7478 3.69125C21.1145 3.27819 21.0769 2.64976 20.6639 2.2876L20.6173 2.24677ZM6.98614 16.1028L9.59571 13.1634H9.23268C8.98453 13.1634 8.78337 12.9577 8.78337 12.704V11.7851C8.78337 11.5314 8.98453 11.3257 9.23268 11.3257H11.2271L12.8586 9.48808H9.23268C8.98453 9.48808 8.78337 9.28239 8.78337 9.02866V8.10983C8.78337 7.85611 8.98453 7.65042 9.23268 7.65042H14.49L16.9371 4.89393H15.7319C15.4211 5.44321 14.8403 5.81276 14.1751 5.81276H10.5806C9.91537 5.81276 9.33456 5.44321 9.02381 4.89393H6.98614V16.1028Z" fill="#2D333F"/>
<path d="M17.7695 20.514H8.39836L10.0253 18.6764H17.7695V9.92889L19.5668 7.89884V18.6764C19.5668 19.6913 18.7621 20.514 17.7695 20.514Z" fill="#2D333F"/>
<path d="M15.523 16.8387H11.6522L13.2791 15.0011H15.523C15.7711 15.0011 15.9723 15.2067 15.9723 15.4605V16.3793C15.9723 16.633 15.7711 16.8387 15.523 16.8387Z" fill="#2D333F"/>
<path d="M15.523 13.1634H14.906L15.9723 11.9589V12.704C15.9723 12.9577 15.7711 13.1634 15.523 13.1634Z" fill="#2D333F"/>
</svg>
