<?xml version="1.0" encoding="UTF-8"?>
<svg width="24px" height="24px" viewBox="0 0 24 24" version="1.1" xmlns="http://www.w3.org/2000/svg" xmlns:xlink="http://www.w3.org/1999/xlink">
    <!-- Generator: Sketch 51.1 (57501) - http://www.bohemiancoding.com/sketch -->
    <title>Icon/Fill/ic_birthday_fill</title>
    <desc>Created with Sketch.</desc>
    <defs></defs>
    <g id="Icon/Fill/ic_birthday_fill" stroke="none" stroke-width="1" fill="none" fill-rule="evenodd">
        <path d="M4,15.9000216 L4,11 C4,10.4477153 4.44771525,10 5,10 L6,10 L6,8.5 C6,8.22385763 6.22385763,8 6.5,8 L7.5,8 C7.77614237,8 8,8.22385763 8,8.5 L8,10 L11,10 L11,6.5 C11,6.22385763 11.2238576,6 11.5,6 L12.5,6 C12.7761424,6 13,6.22385763 13,6.5 L13,10 L16,10 L16,8.5 C16,8.22385763 16.2238576,8 16.5,8 L17.5,8 C17.7761424,8 18,8.22385763 18,8.5 L18,10 L19,10 C19.5522847,10 20,10.4477153 20,11 L20,15.9000227 L17.1536697,14.1922893 C16.4560307,13.7737217 15.5743664,13.8194647 14.9237891,14.307981 L13.2041277,15.5992693 C12.493296,16.1330306 11.5154755,16.1335695 10.8040558,15.6005921 L9.07581138,14.3058355 C8.42533839,13.8185178 7.54464342,13.7733121 6.84769298,14.1914673 L4,15.9000216 Z M4,17.8991381 L6.84649594,16.1887872 C7.54391042,15.7697374 8.42567171,15.8149443 9.07657369,16.3031208 L10.8,17.5956905 C11.5111111,18.1290239 12.4888889,18.1290239 13.2,17.5956905 L14.9241624,16.3025687 C15.5746951,15.8146692 16.4558699,15.7692125 17.1531539,16.1875829 L20,17.8956905 L20,21 C20,21.5522847 19.5522847,22 19,22 L5,22 C4.44771525,22 4,21.5522847 4,21 L4,17.8991381 Z M11,3.8 C11,3.13706294 12,2 12,2 C12,2 13,3.13706294 13,3.8 C13,4.46293706 12.5525,5 12,5 C11.4475,5 11,4.46293706 11,3.8 Z M6,5.8 C6,5.13706294 7,4 7,4 C7,4 8,5.13706294 8,5.8 C8,6.46293706 7.5525,7 7,7 C6.4475,7 6,6.46293706 6,5.8 Z M16,5.8 C16,5.13706294 17,4 17,4 C17,4 18,5.13706294 18,5.8 C18,6.46293706 17.5525,7 17,7 C16.4475,7 16,6.46293706 16,5.8 Z" id="ic_birthday_Fill" fill="#2D333F"></path>
    </g>
</svg>