<?xml version="1.0" encoding="UTF-8"?>
<svg width="24px" height="24px" viewBox="0 0 24 24" version="1.1" xmlns="http://www.w3.org/2000/svg" xmlns:xlink="http://www.w3.org/1999/xlink">
    <!-- Generator: Sketch 53.1 (72631) - https://sketchapp.com -->
    <title>icon/line/ic_birthday/Light UI - Default</title>
    <desc>Created with Sketch.</desc>
    <g id="icon/line/ic_birthday/Light-UI---Default" stroke="none" stroke-width="1" fill="none" fill-rule="evenodd">
        <path d="M17.5,12 L16.5,12 L12.5,12 L11.5,12 L7.5,12 L6.5,12 L6,12 L6,14.7000648 L6.84769298,14.1914673 C7.54464342,13.7733121 8.42533839,13.8185178 9.07581138,14.3058355 L10.8040558,15.6005921 C11.5154755,16.1335695 12.493296,16.1330306 13.2041277,15.5992693 L14.9237891,14.307981 C15.5743664,13.8194647 16.4560307,13.7737217 17.1536697,14.1922893 L18,14.7000682 L18,12 L17.5,12 Z M16,10 L16,8.5 C16,8.22385763 16.2238576,8 16.5,8 L17.5,8 C17.7761424,8 18,8.22385763 18,8.5 L18,10 L19,10 C19.5522847,10 20,10.4477153 20,11 L20,21 C20,21.5522847 19.5522847,22 19,22 L5,22 C4.44771525,22 4,21.5522847 4,21 L4,11 C4,10.4477153 4.44771525,10 5,10 L6,10 L6,8.5 C6,8.22385763 6.22385763,8 6.5,8 L7.5,8 C7.77614237,8 8,8.22385763 8,8.5 L8,10 L11,10 L11,6.5 C11,6.22385763 11.2238576,6 11.5,6 L12.5,6 C12.7761424,6 13,6.22385763 13,6.5 L13,10 L16,10 Z M18,16.6956905 L17.1531539,16.1875829 C16.4558699,15.7692125 15.5746951,15.8146692 14.9241624,16.3025687 L13.2,17.5956905 C12.4888889,18.1290239 11.5111111,18.1290239 10.8,17.5956905 L9.07657369,16.3031208 C8.42567171,15.8149443 7.54391042,15.7697374 6.84649594,16.1887872 L6,16.6974143 L6,20 L18,20 L18,16.6956905 Z M6,5.8 C6,5.13706294 7,4 7,4 C7,4 8,5.13706294 8,5.8 C8,6.46293706 7.5525,7 7,7 C6.4475,7 6,6.46293706 6,5.8 Z M11,3.8 C11,3.13706294 12,2 12,2 C12,2 13,3.13706294 13,3.8 C13,4.46293706 12.5525,5 12,5 C11.4475,5 11,4.46293706 11,3.8 Z M16,5.8 C16,5.13706294 17,4 17,4 C17,4 18,5.13706294 18,5.8 C18,6.46293706 17.5525,7 17,7 C16.4475,7 16,6.46293706 16,5.8 Z" id="ic_birthday_fill" fill="#2D333F"></path>
    </g>
</svg>