<svg width="40" height="40" viewBox="0 0 40 40" fill="none" xmlns="http://www.w3.org/2000/svg">
    <path fill-rule="evenodd" clip-rule="evenodd" d="M20 40C31.0457 40 40 31.0457 40 20C40 8.9543 31.0457 0 20 0C8.9543 0 0 8.9543 0 20C0 31.0457 8.9543 40 20 40Z" fill="#DA3743"/>
    <path fill-rule="evenodd" clip-rule="evenodd" d="M11 13.001C11 11.7175 12.1919 10.7662 13.4435 11.0508L19 12.3144V28.9915L12.5565 27.5262C11.646 27.3191 11 26.5097 11 25.576V13.001ZM21 29L27.4277 27.5928C28.3457 27.3918 29 26.5788 29 25.6391V13.0567C29 11.7798 27.8197 10.8299 26.5723 11.103L21 12.3229V29Z" fill="white"/>
</svg>
