<?xml version="1.0" encoding="UTF-8"?>
<svg width="24px" height="24px" viewBox="0 0 24 24" version="1.1" xmlns="http://www.w3.org/2000/svg" xmlns:xlink="http://www.w3.org/1999/xlink">
    <!-- Generator: Sketch 51.1 (57501) - http://www.bohemiancoding.com/sketch -->
    <title>Icon/Fill/ic_bussing_needed_fill</title>
    <desc>Created with Sketch.</desc>
    <defs></defs>
    <g id="Icon/Fill/ic_bussing_needed_fill" stroke="none" stroke-width="1" fill="none" fill-rule="evenodd">
        <path d="M4.75146107,14 C4.47318211,13.6084723 4.20059662,13.226052 3.94955822,12.8281433 C3.50891126,12.129687 3.29781599,11.3348778 3.20860998,10.5039875 C3.18818439,10.313653 3.2259201,10.1402972 3.30830645,10 L20.625752,10 C20.7132789,10.1519458 20.7524205,10.3496983 20.7393225,10.58763 C20.6728025,11.7920417 20.1765939,12.7996473 19.481979,13.7158202 C19.4097843,13.8110653 19.335889,13.9048597 19.2596728,14 L4.75146098,14 Z M2.00375747,15 L21.9771398,15 C22.0369242,15.2464102 21.9752636,15.4978166 21.8409399,15.6988457 C21.6571446,15.973759 21.4189415,16.2222267 21.1643967,16.4255927 C20.2004335,17.1958012 19.146303,17.7651035 17.9360618,17.944689 C17.7315032,17.974825 17.5225227,17.9830252 17.3156571,17.9830252 C13.9173693,17.9854852 10.5186969,17.9553494 7.12079365,17.9994258 C5.79962179,18.0166462 4.62110265,17.646405 3.52890572,16.9065375 C3.1163279,16.627114 2.72739735,16.300129 2.36134508,15.9544884 C2.20696484,15.808729 2.09949466,15.5709218 2.04028032,15.3534102 C2.00476209,15.2225678 1.99319316,15.1041771 2.00375747,15 Z M5.9117329,9.00000012 C5.645134,8.33884223 5.49058257,7.64539959 5.45625552,6.92478352 C5.44645055,6.71690719 5.51431634,6.49119531 5.59429414,6.29582436 C5.67907831,6.08897306 5.85845161,5.99979535 6.08396596,6.00000035 C9.98211506,6.00369047 13.8802641,6.0016404 17.778221,6.00410048 C18.3107655,6.0045105 18.626255,6.35056102 18.6041457,6.91781329 C18.5757721,7.64032252 18.4395926,8.33721466 18.1759688,9.00000024 L5.91173207,9 Z" id="ic_bussing_needed_fill" fill="#2D333F" fill-rule="nonzero"></path>
    </g>
</svg>