<svg width="24" height="24" viewBox="0 0 24 24" fill="none" xmlns="http://www.w3.org/2000/svg">
<path fill-rule="evenodd" clip-rule="evenodd" d="M12 3C13.1046 3 14 3.89543 14 5C14 5.25067 13.9539 5.49056 13.8697 5.71167C16.4097 6.33341 17.7717 8.30631 17.9736 11.1797C19.2676 12.6301 20 14.5083 20 16.5C20 17.0523 19.5523 17.5 19 17.5H5C4.44772 17.5 4 17.0523 4 16.5C4 14.5085 4.73217 12.6304 6.02577 11.1793L6.04698 10.9247C6.31056 8.18962 7.66614 6.31476 10.1298 5.71039C10.0461 5.49056 10 5.25067 10 5C10 3.89543 10.8954 3 12 3ZM12 7.5C9.29095 7.5 8.09835 8.89581 8.00468 11.63C7.99611 11.8801 7.89409 12.1179 7.71876 12.2964C6.85627 13.1747 6.28625 14.2878 6.08298 15.5H17.917L17.8636 15.2221C17.6243 14.1179 17.0772 13.1074 16.2808 12.2972C16.1052 12.1186 16.0031 11.8805 15.9946 11.6302C15.9016 8.89592 14.7091 7.5 12 7.5Z" fill="#2D333F"/>
<path d="M14 18.5C14 19.6048 13.1048 20.5 12 20.5C10.8952 20.5 10 19.6048 10 18.5H14Z" fill="#2D333F"/>
</svg>
