<?xml version="1.0" encoding="UTF-8"?>
<svg width="24px" height="24px" viewBox="0 0 24 24" version="1.1" xmlns="http://www.w3.org/2000/svg" xmlns:xlink="http://www.w3.org/1999/xlink">
    <!-- Generator: Sketch 50.2 (55047) - http://www.bohemiancoding.com/sketch -->
    <title>icon/ic_champagne_glasses</title>
    <desc>Created with Sketch.</desc>
    <defs></defs>
    <g id="icon/ic_champagne_glasses" stroke="none" stroke-width="1" fill="none" fill-rule="evenodd">
        <path d="M16,19 L16,14.8739825 C14.2747728,14.4299397 13,12.8638394 13,11 L13,3.5 C13,3.22385763 13.2238576,3 13.5,3 L20.5,3 C20.7761424,3 21,3.22385763 21,3.5 L21,11 C21,12.8638394 19.7252272,14.4299397 18,14.8739825 L18,19 L18.5,19 C18.7761424,19 19,19.2238576 19,19.5 L19,20.5 C19,20.7761424 18.7761424,21 18.5,21 L15.5,21 C15.2238576,21 15,20.7761424 15,20.5 L15,19.5 C15,19.2238576 15.2238576,19 15.5,19 L16,19 Z M19,6.63975604 L19,5 L15,5 L15,7.97308937 L19,6.63975604 Z M19,8.63975604 L15,9.97308937 L15,11 C15,12.1045695 15.8954305,13 17,13 C18.1045695,13 19,12.1045695 19,11 L19,8.63975604 Z M6,19 L6,14.8739825 C4.27477279,14.4299397 3,12.8638394 3,11 L3,3.5 C3,3.22385763 3.22385763,3 3.5,3 L10.5,3 C10.7761424,3 11,3.22385763 11,3.5 L11,11 C11,12.8638394 9.72522721,14.4299397 8,14.8739825 L8,19 L8.5,19 C8.77614237,19 9,19.2238576 9,19.5 L9,20.5 C9,20.7761424 8.77614237,21 8.5,21 L5.5,21 C5.22385763,21 5,20.7761424 5,20.5 L5,19.5 C5,19.2238576 5.22385763,19 5.5,19 L6,19 Z M9,6.63975604 L9,5 L5,5 L5,7.97308937 L9,6.63975604 Z M9,8.63975604 L5,9.97308937 L5,11 C5,12.1045695 5.8954305,13 7,13 C8.1045695,13 9,12.1045695 9,11 L9,8.63975604 Z" id="ic_champagne_glasses" fill="#2D333F"></path>
    </g>
</svg>
