<svg width="40" height="24" viewBox="0 0 40 24" fill="none" xmlns="http://www.w3.org/2000/svg">
  <title>Card/Visa</title>
<path d="M0 4C0 1.79086 1.79086 0 4 0H36C38.2091 0 40 1.79086 40 4V20C40 22.2091 38.2091 24 36 24H4C1.79086 24 0 22.2091 0 20V4Z" fill="white"/>
<path d="M18.0058 16.5699H15.5586L17.0878 7.16846H19.535L18.0058 16.5699Z" fill="#0066B3"/>
<path d="M13.4985 7.16846L11.1645 13.6348L10.8878 12.2414L10.0654 8.01604C10.0654 8.01604 9.96479 7.16846 8.90342 7.16846H5.04527L5 7.32691C5 7.32691 6.17958 7.57339 7.56036 8.40085L9.68813 16.5699H12.2384L16.1318 7.16846H13.4985Z" fill="#0066B3"/>
<path d="M32.7517 16.5699H35.0002L33.041 7.16846H31.0716C30.1637 7.16846 29.9424 7.87017 29.9424 7.87017L26.293 16.5724H28.8433L29.3538 15.1765H32.465L32.7517 16.5699ZM30.0581 13.2449L31.3433 9.72631L32.0676 13.2449H30.0581Z" fill="#0066B3"/>
<path d="M26.484 9.42958L26.8336 7.40996C26.8336 7.40996 25.7546 7 24.6329 7C23.4181 7 20.5333 7.53068 20.5333 10.1137C20.5333 12.5433 23.9186 12.5734 23.9186 13.8486C23.9186 15.1237 20.8829 14.8974 19.8793 14.0926L19.5146 16.2027C19.5146 16.2027 20.6087 16.7334 22.2787 16.7334C23.9488 16.7334 26.4689 15.8682 26.4689 13.5141C26.4689 11.0694 23.0534 10.8431 23.0534 9.77918C23.0509 8.71529 25.4352 8.85111 26.484 9.42958Z" fill="#0066B3"/>
<path d="M10.8878 12.2439L10.0654 8.01604C10.0654 8.01604 9.96479 7.16846 8.90342 7.16846H5.04527L5 7.32691C5 7.32691 6.85362 7.71172 8.63431 9.15035C10.3345 10.5286 10.8878 12.2439 10.8878 12.2439Z" fill="#FAA634"/>
<path d="M4 0.5H36V-0.5H4V0.5ZM39.5 4V20H40.5V4H39.5ZM36 23.5H4V24.5H36V23.5ZM0.5 20V4H-0.5V20H0.5ZM4 23.5C2.067 23.5 0.5 21.933 0.5 20H-0.5C-0.5 22.4853 1.51472 24.5 4 24.5V23.5ZM39.5 20C39.5 21.933 37.933 23.5 36 23.5V24.5C38.4853 24.5 40.5 22.4853 40.5 20H39.5ZM36 0.5C37.933 0.5 39.5 2.067 39.5 4H40.5C40.5 1.51472 38.4853 -0.5 36 -0.5V0.5ZM4 -0.5C1.51472 -0.5 -0.5 1.51472 -0.5 4H0.5C0.5 2.067 2.067 0.5 4 0.5V-0.5Z" fill="#D8D9DB"/>
</svg>
