<?xml version="1.0" encoding="UTF-8"?>
<svg width="24px" height="24px" viewBox="0 0 24 24" version="1.1" xmlns="http://www.w3.org/2000/svg" xmlns:xlink="http://www.w3.org/1999/xlink" style="background: #FFFFFF;">
    <!-- Generator: Sketch 49.3 (51167) - http://www.bohemiancoding.com/sketch -->
    <title>icon/ic_camera</title>
    <desc>Created with Sketch.</desc>
    <defs></defs>
    <g id="icon/ic_camera" stroke="none" stroke-width="1" fill="none" fill-rule="evenodd">
        <path d="M14.8687177,4 L17.0960682,6.28571429 L20.8888889,6.28571429 C21.5025386,6.28571429 22,6.79738886 22,7.42857143 L22,18.8571429 C22,19.4883254 21.5025386,20 20.8888889,20 L3.11111111,20 C2.49746139,20 2,19.4883254 2,18.8571429 L2,7.42857143 C2,6.79738886 2.49746139,6.28571429 3.11111111,6.28571429 L6.90437184,6.28571429 L9.12871137,4 L14.8687177,4 Z M14.2949741,6 L9.70296909,6 L7.92349748,8 L4,8 L4,18 L20,18 L20,8 L16.0768546,8 L14.2949741,6 Z M12,16.5 C9.790861,16.5 8,14.709139 8,12.5 C8,10.290861 9.790861,8.5 12,8.5 C14.209139,8.5 16,10.290861 16,12.5 C16,14.709139 14.209139,16.5 12,16.5 Z M12,14.5 C13.1045695,14.5 14,13.6045695 14,12.5 C14,11.3954305 13.1045695,10.5 12,10.5 C10.8954305,10.5 10,11.3954305 10,12.5 C10,13.6045695 10.8954305,14.5 12,14.5 Z" id="ic_camera" fill="#333333"></path>
    </g>
</svg>