<?xml version="1.0" encoding="UTF-8"?>
<svg width="24px" height="24px" viewBox="0 0 24 24" version="1.1" xmlns="http://www.w3.org/2000/svg" xmlns:xlink="http://www.w3.org/1999/xlink">
    <!-- Generator: Sketch 50.2 (55047) - http://www.bohemiancoding.com/sketch -->
    <title>icon/ic_contact</title>
    <desc>Created with Sketch.</desc>
    <defs></defs>
    <g id="icon/ic_contact" stroke="none" stroke-width="1" fill="none" fill-rule="evenodd">
        <path d="M4,17 L3.5,17 C3.22385763,17 3,16.7761424 3,16.5 L3,15.5 C3,15.2238576 3.22385763,15 3.5,15 L4,15 L4,13 L3.5,13 C3.22385763,13 3,12.7761424 3,12.5 L3,11.5 C3,11.2238576 3.22385763,11 3.5,11 L4,11 L4,9 L3.5,9 C3.22385763,9 3,8.77614237 3,8.5 L3,7.5 C3,7.22385763 3.22385763,7 3.5,7 L4,7 L4,5 C4,3.8954305 4.8954305,3 6,3 L18,3 C19.1045695,3 20,3.8954305 20,5 L20,19 C20,20.1045695 19.1045695,21 18,21 L6,21 C4.8954305,21 4,20.1045695 4,19 L4,17 Z M6,17 L6,19 L18,19 L18,5 L6,5 L6,7 L6.5,7 C6.77614237,7 7,7.22385763 7,7.5 L7,8.5 C7,8.77614237 6.77614237,9 6.5,9 L6,9 L6,11 L6.5,11 C6.77614237,11 7,11.2238576 7,11.5 L7,12.5 C7,12.7761424 6.77614237,13 6.5,13 L6,13 L6,15 L6.5,15 C6.77614237,15 7,15.2238576 7,15.5 L7,16.5 C7,16.7761424 6.77614237,17 6.5,17 L6,17 Z M9.5,7 L15.5,7 C15.7761424,7 16,7.22385763 16,7.5 L16,8.5 C16,8.77614237 15.7761424,9 15.5,9 L9.5,9 C9.22385763,9 9,8.77614237 9,8.5 L9,7.5 C9,7.22385763 9.22385763,7 9.5,7 Z M9.5,11 L15.5,11 C15.7761424,11 16,11.2238576 16,11.5 L16,12.5 C16,12.7761424 15.7761424,13 15.5,13 L9.5,13 C9.22385763,13 9,12.7761424 9,12.5 L9,11.5 C9,11.2238576 9.22385763,11 9.5,11 Z M9.5,15 L15.5,15 C15.7761424,15 16,15.2238576 16,15.5 L16,16.5 C16,16.7761424 15.7761424,17 15.5,17 L9.5,17 C9.22385763,17 9,16.7761424 9,16.5 L9,15.5 C9,15.2238576 9.22385763,15 9.5,15 Z" id="ic_contact" fill="#2D333F"></path>
    </g>
</svg>