<?xml version="1.0" encoding="UTF-8"?>
<svg width="24px" height="24px" viewBox="0 0 24 24" version="1.1" xmlns="http://www.w3.org/2000/svg" xmlns:xlink="http://www.w3.org/1999/xlink">
    <!-- Generator: Sketch 51.1 (57501) - http://www.bohemiancoding.com/sketch -->
    <title>Icon/Fill/ic_clock_fill</title>
    <desc>Created with Sketch.</desc>
    <defs></defs>
    <g id="Icon/Fill/ic_clock_fill" stroke="none" stroke-width="1" fill="none" fill-rule="evenodd">
        <path d="M13,11 L13,7.5 C13,7.22385763 12.7761424,7 12.5,7 L11.5,7 C11.2238576,7 11,7.22385763 11,7.5 L11,11.5 L11,12.5 C11,12.7761424 11.2238576,13 11.5,13 L14.5,13 C14.7761424,13 15,12.7761424 15,12.5 L15,11.5 C15,11.2238576 14.7761424,11 14.5,11 L13,11 Z M12,21 C7.02943725,21 3,16.9705627 3,12 C3,7.02943725 7.02943725,3 12,3 C16.9705627,3 21,7.02943725 21,12 C21,16.9705627 16.9705627,21 12,21 Z" id="ic_clock_fill" fill="#2D333F"></path>
    </g>
</svg>