<?xml version="1.0" encoding="UTF-8"?>
<svg width="24px" height="24px" viewBox="0 0 24 24" version="1.1" xmlns="http://www.w3.org/2000/svg" xmlns:xlink="http://www.w3.org/1999/xlink">
    <!-- Generator: Sketch 50.2 (55047) - http://www.bohemiancoding.com/sketch -->
    <title>icon/ic_change</title>
    <desc>Created with Sketch.</desc>
    <defs></defs>
    <g id="icon/ic_change" stroke="none" stroke-width="1" fill="none" fill-rule="evenodd">
        <path d="M17.5625493,8.87909711 L15.6363267,6.96186196 C15.2221969,6.54966442 15.2206305,5.87979377 15.6328281,5.46566399 C15.6334098,5.46507951 15.6339922,5.46449572 15.6345753,5.46391261 C16.0489907,5.04949723 16.7206482,5.04871194 17.1360315,5.46215714 L20.6942354,9.00375913 C20.9341743,9.24257842 21.035623,9.56789394 20.9983481,9.879853 C20.9994445,9.89961206 21,9.91951544 21,9.93954855 C21,10.5252197 20.5252197,11 19.9395486,11 L4.06045145,11 C3.47478028,11 3,10.5252197 3,9.93954855 C3,9.35387739 3.47478028,8.87909711 4.06045145,8.87909711 L17.5625493,8.87909711 Z M6.43745074,15.1209029 L8.36367329,17.038138 C8.77780308,17.4503356 8.77936948,18.1202062 8.36717195,18.534336 C8.3665902,18.5349205 8.36600778,18.5355043 8.36542467,18.5360874 C7.95100928,18.9505028 7.27935178,18.9512881 6.86396847,18.5378429 L3.30576456,14.9962409 C3.06582575,14.7574216 2.96437704,14.4321061 3.00165193,14.120147 C3.0005555,14.1003879 3,14.0804846 3,14.0604514 C3,13.4747803 3.47478028,13 4.06045145,13 L19.9395486,13 C20.5252197,13 21,13.4747803 21,14.0604514 C21,14.6461226 20.5252197,15.1209029 19.9395486,15.1209029 L6.43745074,15.1209029 Z" id="ic_change" fill="#2D333F"></path>
    </g>
</svg>