<?xml version="1.0" encoding="UTF-8"?>
<svg width="24px" height="24px" viewBox="0 0 24 24" version="1.1" xmlns="http://www.w3.org/2000/svg" xmlns:xlink="http://www.w3.org/1999/xlink">
    <!-- Generator: Sketch 50.2 (55047) - http://www.bohemiancoding.com/sketch -->
    <title>icon/ic_clock</title>
    <desc>Created with Sketch.</desc>
    <defs></defs>
    <g id="icon/ic_clock" stroke="none" stroke-width="1" fill="none" fill-rule="evenodd">
        <path d="M13,11 L14.5,11 C14.7761424,11 15,11.2238576 15,11.5 L15,12.5 C15,12.7761424 14.7761424,13 14.5,13 L12.5,13 L11.5,13 C11.2238576,13 11,12.7761424 11,12.5 L11,7.5 C11,7.22385763 11.2238576,7 11.5,7 L12.5,7 C12.7761424,7 13,7.22385763 13,7.5 L13,11 Z M12,21 C7.02943725,21 3,16.9705627 3,12 C3,7.02943725 7.02943725,3 12,3 C16.9705627,3 21,7.02943725 21,12 C21,16.9705627 16.9705627,21 12,21 Z M12,19 C15.8659932,19 19,15.8659932 19,12 C19,8.13400675 15.8659932,5 12,5 C8.13400675,5 5,8.13400675 5,12 C5,15.8659932 8.13400675,19 12,19 Z" id="ic_clock" fill="#2D333F"></path>
    </g>
</svg>