<svg width="18" height="18" viewBox="0 0 18 18" fill="none" xmlns="http://www.w3.org/2000/svg">
<path fill-rule="evenodd" clip-rule="evenodd" d="M9 18C13.9706 18 18 13.9706 18 9C18 4.02944 13.9706 0 9 0C4.02944 0 0 4.02944 0 9C0 13.9706 4.02944 18 9 18ZM5.20711 8.44975C5.59763 8.05922 6.2308 8.05922 6.62132 8.44975L8.03553 9.86396L11.5711 6.32843C11.9616 5.9379 12.5948 5.9379 12.9853 6.32843C13.3758 6.71895 13.3758 7.35212 12.9853 7.74264L8.74264 11.9853C8.35212 12.3758 7.71895 12.3758 7.32843 11.9853C7.32862 11.9855 7.32823 11.9851 7.32843 11.9853L5.20711 9.86396C4.81658 9.47344 4.81658 8.84027 5.20711 8.44975Z" fill="#39A25E"/>
</svg>
