<?xml version="1.0" encoding="UTF-8"?>
<svg width="24px" height="24px" viewBox="0 0 24 24" version="1.1" xmlns="http://www.w3.org/2000/svg" xmlns:xlink="http://www.w3.org/1999/xlink">
    <!-- Generator: Sketch 52.5 (67469) - http://www.bohemiancoding.com/sketch -->
    <title>icon/ic_checkbox_indeterminate</title>
    <desc>Created with Sketch.</desc>
    <g id="icon/ic_checkbox_indeterminate" stroke="none" stroke-width="1" fill="none" fill-rule="evenodd">
        <path d="M5,19 L19,19 L19,5 L5,5 L5,19 Z M19,3 C20.104,3 21,3.896 21,5 L21,19 C21,20.104 20.104,21 19,21 L5,21 C3.896,21 3,20.104 3,19 L3,5 C3,3.896 3.896,3 5,3 L19,3 Z M8,17 C7.448,17 7,16.553 7,16 L7,8 C7,7.448 7.448,7 8,7 L16,7 C16.553,7 17,7.448 17,8 L17,16 C17,16.553 16.553,17 16,17 L8,17 Z" id="ic_checkbox_indeterminate" fill="#2D333F"></path>
    </g>
</svg>