<svg width="40" height="24" viewBox="0 0 40 24" fill="none" xmlns="http://www.w3.org/2000/svg">
  <title>Card/Mastercard</title>
<path d="M0 4C0 1.79086 1.79086 0 4 0H36C38.2091 0 40 1.79086 40 4V20C40 22.2091 38.2091 24 36 24H4C1.79086 24 0 22.2091 0 20V4Z" fill="white"/>
<g clip-path="url(#clip0)">
<path d="M11.969 19.1574C11.9031 19.0905 11.8234 19.0392 11.7328 19.0017C11.6412 18.965 11.5413 18.9467 11.4333 18.9467C11.3756 18.9467 11.3161 18.9513 11.2547 18.9614C11.1924 18.9714 11.132 18.9888 11.0724 19.0136C11.0129 19.0383 10.957 19.0731 10.903 19.1171C10.849 19.161 10.8032 19.2169 10.7629 19.2837C10.6988 19.1784 10.6127 19.096 10.5037 19.0356C10.3947 18.976 10.2702 18.9458 10.1291 18.9458C10.0815 18.9458 10.033 18.9504 9.98258 18.9586C9.93221 18.9669 9.88184 18.9824 9.83238 19.0035C9.78293 19.0246 9.7353 19.053 9.68951 19.0896C9.64464 19.1262 9.60342 19.172 9.56587 19.227V18.9953H9.16748V20.8901H9.56954V19.8397C9.56954 19.7591 9.58236 19.6876 9.608 19.6254C9.63365 19.5631 9.66753 19.51 9.71058 19.4678C9.75362 19.4257 9.80308 19.3936 9.86077 19.3717C9.91847 19.3497 9.97983 19.3387 10.0449 19.3387C10.1804 19.3387 10.2848 19.3817 10.3599 19.4669C10.4341 19.553 10.4716 19.6748 10.4716 19.8351V20.8892H10.8737V19.8387C10.8737 19.7582 10.8865 19.6867 10.9122 19.6244C10.9378 19.5622 10.9717 19.509 11.0147 19.4669C11.0578 19.4248 11.1072 19.3927 11.1649 19.3708C11.2226 19.3488 11.284 19.3378 11.349 19.3378C11.4846 19.3378 11.589 19.3808 11.6641 19.466C11.7383 19.5521 11.7758 19.6739 11.7758 19.8342V20.8883H12.1779V19.6977C12.1779 19.5869 12.1595 19.4852 12.1229 19.3927C12.0863 19.3039 12.035 19.2242 11.969 19.1574Z" fill="black"/>
<path d="M14.0882 19.2259C14.0222 19.1417 13.9407 19.0739 13.8427 19.0235C13.7447 18.9732 13.6284 18.9475 13.4929 18.9475C13.3601 18.9475 13.2355 18.9722 13.121 19.0217C13.0066 19.0711 12.9058 19.1398 12.8207 19.2287C12.7346 19.3166 12.6677 19.4219 12.6192 19.5437C12.5706 19.6655 12.5459 19.7992 12.5459 19.9439C12.5459 20.0887 12.5706 20.2224 12.6192 20.3442C12.6677 20.466 12.7355 20.5713 12.8207 20.6592C12.9067 20.7471 13.0066 20.8167 13.121 20.8662C13.2355 20.9157 13.3601 20.9404 13.4929 20.9404C13.6284 20.9404 13.7457 20.9157 13.8427 20.8653C13.9407 20.8149 14.0222 20.7481 14.0882 20.6638V20.8909H14.5012V18.996H14.0882V19.2259ZM14.0726 20.1848C14.0451 20.259 14.0058 20.3222 13.9563 20.3762C13.9059 20.4303 13.8464 20.4724 13.7768 20.5035C13.7072 20.5347 13.6293 20.5502 13.5433 20.5502C13.4535 20.5502 13.3738 20.5338 13.3033 20.5017C13.2328 20.4696 13.1733 20.4257 13.1247 20.3707C13.0762 20.3158 13.0386 20.2517 13.0121 20.1775C12.9855 20.1033 12.9727 20.0255 12.9727 19.9421C12.9727 19.8588 12.9855 19.7809 13.0121 19.7067C13.0386 19.6326 13.0762 19.5685 13.1247 19.5135C13.1733 19.4586 13.2328 19.4155 13.3033 19.3825C13.3738 19.3505 13.4535 19.334 13.5433 19.334C13.6293 19.334 13.7063 19.3496 13.7768 19.3807C13.8464 19.4118 13.9068 19.454 13.9563 19.508C14.0067 19.562 14.0451 19.6261 14.0726 19.6994C14.1001 19.7736 14.1138 19.8533 14.1138 19.9403C14.1138 20.0273 14.1001 20.1115 14.0726 20.1848Z" fill="black"/>
<path d="M16.4019 19.9413C16.2856 19.8506 16.1244 19.7911 15.9174 19.7599L15.7214 19.7306C15.6775 19.7242 15.6372 19.7169 15.5987 19.7077C15.5602 19.6995 15.5273 19.6876 15.4998 19.6729C15.4723 19.6583 15.4503 19.6399 15.4338 19.618C15.4174 19.596 15.4091 19.5676 15.4091 19.5346C15.4091 19.4678 15.4403 19.4128 15.5034 19.3716C15.5657 19.3304 15.6536 19.3093 15.7672 19.3093C15.8267 19.3093 15.8844 19.3148 15.9421 19.3249C15.9998 19.3359 16.0539 19.3487 16.1052 19.3643C16.1564 19.3798 16.2031 19.3972 16.2453 19.4165C16.2874 19.4357 16.3231 19.454 16.3524 19.4705L16.5301 19.1481C16.4312 19.0849 16.3158 19.0355 16.1839 19.0007C16.052 18.9659 15.9119 18.9485 15.7626 18.9485C15.6417 18.9485 15.5328 18.9622 15.4366 18.9906C15.3404 19.019 15.258 19.0593 15.1902 19.1115C15.1225 19.1637 15.0702 19.2269 15.0336 19.302C14.997 19.3771 14.9796 19.4614 14.9796 19.5548C14.9796 19.7077 15.0336 19.8314 15.1426 19.9257C15.2516 20.02 15.4109 20.0814 15.6225 20.1107L15.8203 20.1363C15.9339 20.1519 16.0172 20.1775 16.0694 20.2124C16.1226 20.2472 16.1482 20.292 16.1482 20.3461C16.1482 20.4175 16.1116 20.4734 16.0392 20.5155C15.9669 20.5567 15.8588 20.5778 15.7168 20.5778C15.639 20.5778 15.5694 20.5723 15.508 20.5622C15.4467 20.5512 15.3908 20.5375 15.3395 20.5201C15.2891 20.5027 15.2433 20.4816 15.203 20.4587C15.1628 20.4358 15.1252 20.4111 15.0913 20.3845L14.8999 20.695C14.9686 20.7463 15.04 20.7884 15.1151 20.8196C15.1902 20.8516 15.2644 20.8763 15.3368 20.8937C15.4091 20.9111 15.4778 20.923 15.5428 20.9295C15.6069 20.935 15.6637 20.9386 15.7132 20.9386C15.8487 20.9386 15.9705 20.923 16.0777 20.8928C16.1848 20.8626 16.2755 20.8196 16.3488 20.7655C16.422 20.7106 16.4779 20.6455 16.5173 20.5695C16.5557 20.4935 16.5759 20.4102 16.5759 20.3195C16.5759 20.1574 16.5182 20.031 16.4019 19.9413Z" fill="black"/>
<path d="M20.272 19.2232C20.1933 19.1353 20.0989 19.0675 19.989 19.0199C19.8791 18.9713 19.7582 18.9475 19.6264 18.9475C19.4862 18.9475 19.3589 18.9713 19.2435 19.0199C19.1281 19.0684 19.0292 19.1362 18.9459 19.2232C18.8625 19.3111 18.7984 19.4164 18.7517 19.5382C18.7059 19.661 18.6821 19.7956 18.6821 19.9439C18.6821 20.0941 18.7059 20.2306 18.7536 20.3533C18.8012 20.4761 18.8671 20.5805 18.9532 20.6675C19.0393 20.7545 19.141 20.8213 19.26 20.869C19.3791 20.9166 19.5091 20.9404 19.652 20.9404C19.7958 20.9404 19.9323 20.9202 20.0623 20.8809C20.1924 20.8415 20.3151 20.7719 20.4314 20.673L20.2253 20.3781C20.1466 20.4413 20.0586 20.4907 19.9634 20.5255C19.8681 20.5603 19.7729 20.5777 19.6777 20.5777C19.6108 20.5777 19.5458 20.5686 19.4835 20.5502C19.4212 20.5319 19.3653 20.5035 19.315 20.4641C19.2646 20.4257 19.2225 20.3753 19.1868 20.3149C19.151 20.2544 19.1263 20.1812 19.1135 20.0951H20.5138C20.5166 20.0713 20.5184 20.0465 20.5202 20.02C20.5211 19.9934 20.5221 19.9668 20.5221 19.9412C20.5221 19.7937 20.5001 19.6591 20.4561 19.5364C20.4112 19.4155 20.3499 19.3102 20.272 19.2232ZM19.1153 19.7818C19.1263 19.7132 19.1446 19.65 19.1703 19.5932C19.1968 19.5355 19.2307 19.486 19.2719 19.4448C19.3131 19.4036 19.3626 19.3715 19.4203 19.3486C19.478 19.3267 19.543 19.3148 19.6172 19.3148C19.7491 19.3148 19.8562 19.356 19.9396 19.4375C20.0229 19.519 20.0751 19.6344 20.098 19.7818H19.1153Z" fill="black"/>
<path d="M25.7635 19.2259C25.6975 19.1417 25.616 19.0739 25.518 19.0235C25.42 18.9732 25.3037 18.9475 25.1682 18.9475C25.0354 18.9475 24.9108 18.9722 24.7963 19.0217C24.6819 19.0711 24.5811 19.1398 24.4959 19.2287C24.4099 19.3166 24.343 19.4219 24.2945 19.5437C24.2459 19.6655 24.2212 19.7992 24.2212 19.9439C24.2212 20.0887 24.2459 20.2224 24.2945 20.3442C24.343 20.466 24.4108 20.5713 24.4959 20.6592C24.582 20.7471 24.6819 20.8167 24.7963 20.8662C24.9108 20.9157 25.0354 20.9404 25.1682 20.9404C25.3037 20.9404 25.4209 20.9157 25.518 20.8653C25.6151 20.8149 25.6975 20.7481 25.7635 20.6638V20.8909H26.1765V18.996H25.7635V19.2259ZM25.747 20.1848C25.7195 20.259 25.6801 20.3222 25.6307 20.3762C25.5803 20.4303 25.5208 20.4724 25.4503 20.5035C25.3807 20.5347 25.3028 20.5502 25.2167 20.5502C25.127 20.5502 25.0473 20.5338 24.9768 20.5017C24.9062 20.4696 24.8467 20.4257 24.7982 20.3707C24.7496 20.3158 24.7121 20.2517 24.6855 20.1775C24.659 20.1033 24.6461 20.0255 24.6461 19.9421C24.6461 19.8588 24.659 19.7809 24.6855 19.7067C24.7121 19.6326 24.7496 19.5685 24.7982 19.5135C24.8467 19.4586 24.9062 19.4155 24.9768 19.3825C25.0473 19.3505 25.127 19.334 25.2167 19.334C25.3028 19.334 25.3807 19.3496 25.4503 19.3807C25.5199 19.4118 25.5803 19.454 25.6307 19.508C25.681 19.562 25.7195 19.6261 25.747 19.6994C25.7745 19.7736 25.7882 19.8533 25.7882 19.9403C25.7882 20.0273 25.7754 20.1115 25.747 20.1848Z" fill="black"/>
<path d="M18.1737 20.5135C18.1069 20.5383 18.0418 20.5511 17.9768 20.5511C17.9347 20.5511 17.8953 20.5447 17.8596 20.5309C17.823 20.5181 17.7918 20.4971 17.7643 20.4687C17.7369 20.4403 17.7158 20.4036 17.7002 20.3588C17.6847 20.3139 17.6764 20.2599 17.6764 20.1967V19.3724H18.3404V18.9969H17.6764V18.4236H17.2615V18.9969H16.8833V19.3724H17.2606V20.2049C17.2606 20.4568 17.3202 20.6427 17.4392 20.7617C17.5583 20.8808 17.7259 20.9403 17.9402 20.9403C18.0602 20.9403 18.1682 20.922 18.2635 20.8854C18.3267 20.8606 18.3853 20.8332 18.4402 20.802L18.2992 20.4558C18.2598 20.4769 18.2186 20.4961 18.1737 20.5135Z" fill="black"/>
<path d="M21.906 18.9465C21.7896 18.9465 21.6852 18.9676 21.5918 19.0097C21.4984 19.0519 21.4196 19.1535 21.3565 19.2442V18.996H20.981V20.8909H21.3601V19.8486C21.3601 19.768 21.3711 19.6966 21.394 19.6334C21.416 19.5702 21.4471 19.5171 21.4865 19.4731C21.5259 19.4292 21.5735 19.3971 21.6285 19.3742C21.6834 19.3523 21.7448 19.3403 21.8107 19.3403C21.8611 19.3403 21.9151 19.3458 21.9728 19.3577C22.0021 19.3642 22.0296 19.3715 22.0562 19.3797L22.178 18.9841C22.145 18.974 22.1111 18.9649 22.0763 18.9584C22.0259 18.9511 21.9692 18.9465 21.906 18.9465Z" fill="black"/>
<path d="M27.6521 18.9465C27.5357 18.9465 27.4313 18.9676 27.3379 19.0097C27.2445 19.0519 27.1657 19.1535 27.1025 19.2442V18.996H26.7271V20.8909H27.1062V19.8486C27.1062 19.768 27.1172 19.6966 27.1401 19.6334C27.1621 19.5702 27.1932 19.5171 27.2326 19.4731C27.272 19.4292 27.3196 19.3971 27.3746 19.3742C27.4295 19.3523 27.4909 19.3403 27.5568 19.3403C27.6072 19.3403 27.6612 19.3458 27.7189 19.3577C27.7482 19.3642 27.7757 19.3715 27.8023 19.3797L27.9241 18.9841C27.8911 18.974 27.8572 18.9649 27.8224 18.9584C27.772 18.9511 27.7152 18.9465 27.6521 18.9465Z" fill="black"/>
<path d="M29.5828 18.2267V19.2259C29.5169 19.1417 29.4354 19.0739 29.3374 19.0235C29.2394 18.9732 29.1231 18.9475 28.9875 18.9475C28.8547 18.9475 28.7302 18.9722 28.6157 19.0217C28.5012 19.0712 28.4005 19.1398 28.3153 19.2287C28.2292 19.3166 28.1623 19.4219 28.1138 19.5437C28.0653 19.6655 28.0405 19.7992 28.0405 19.944C28.0405 20.0887 28.0653 20.2224 28.1138 20.3442C28.1623 20.466 28.2301 20.5713 28.3153 20.6592C28.4014 20.7471 28.5012 20.8168 28.6157 20.8662C28.7302 20.9157 28.8547 20.9404 28.9875 20.9404C29.1231 20.9404 29.2403 20.9157 29.3374 20.8653C29.4344 20.8149 29.5169 20.7481 29.5828 20.6638V20.8909H29.9959V18.2258H29.5828V18.2267ZM29.5663 20.1848C29.5388 20.259 29.4995 20.3222 29.45 20.3762C29.3996 20.4303 29.3401 20.4724 29.2705 20.5035C29.2009 20.5347 29.1231 20.5502 29.037 20.5502C28.9472 20.5502 28.8675 20.5338 28.797 20.5017C28.7265 20.4696 28.667 20.4257 28.6184 20.3707C28.5699 20.3158 28.5323 20.2517 28.5058 20.1775C28.4792 20.1033 28.4664 20.0255 28.4664 19.9421C28.4664 19.8588 28.4792 19.7809 28.5058 19.7068C28.5323 19.6326 28.5699 19.5685 28.6184 19.5135C28.667 19.4586 28.7265 19.4155 28.797 19.3825C28.8675 19.3505 28.9472 19.334 29.037 19.334C29.1231 19.334 29.2 19.3496 29.2705 19.3807C29.3401 19.4118 29.4006 19.454 29.45 19.508C29.5004 19.562 29.5388 19.6262 29.5663 19.6994C29.5938 19.7736 29.6075 19.8533 29.6075 19.9403C29.6075 20.0273 29.5938 20.1116 29.5663 20.1848Z" fill="black"/>
<path d="M22.8951 19.5053C22.9482 19.4521 23.0105 19.41 23.0829 19.3807C23.1552 19.3514 23.234 19.3358 23.3182 19.3358C23.4107 19.3358 23.4977 19.3505 23.5774 19.3807C23.6543 19.4091 23.7212 19.4494 23.778 19.5007L23.9767 19.1701C23.9025 19.1105 23.8183 19.062 23.7249 19.0235C23.6003 18.9732 23.4648 18.9475 23.3182 18.9475C23.1717 18.9475 23.0361 18.9732 22.9116 19.0235C22.787 19.0739 22.6799 19.1444 22.5892 19.2333C22.4985 19.3221 22.428 19.4274 22.3767 19.5483C22.3254 19.6692 22.2998 19.8011 22.2998 19.9439C22.2998 20.0868 22.3254 20.2178 22.3767 20.3396C22.428 20.4605 22.4995 20.5658 22.5892 20.6546C22.6799 20.7435 22.787 20.814 22.9116 20.8644C23.0361 20.9147 23.1717 20.9404 23.3182 20.9404C23.4648 20.9404 23.6003 20.9147 23.7249 20.8644C23.8183 20.8259 23.9025 20.7774 23.9767 20.7178L23.778 20.3872C23.7212 20.4385 23.6543 20.4779 23.5774 20.5072C23.4977 20.5365 23.4116 20.5521 23.3182 20.5521C23.234 20.5521 23.1552 20.5374 23.0829 20.5072C23.0105 20.4779 22.9473 20.4358 22.8951 20.3826C22.842 20.3295 22.8008 20.2654 22.7705 20.1912C22.7403 20.117 22.7248 20.0346 22.7248 19.9449C22.7248 19.8551 22.7403 19.7736 22.7705 19.6985C22.8008 19.6234 22.842 19.5593 22.8951 19.5053Z" fill="black"/>
<path d="M30.8666 20.6135C30.8941 20.6135 30.9198 20.619 30.9445 20.6291C30.9683 20.6392 30.9894 20.6529 31.0077 20.6703C31.026 20.6877 31.0397 20.7079 31.0498 20.7317C31.0599 20.7555 31.0654 20.7802 31.0654 20.8068C31.0654 20.8333 31.0599 20.8581 31.0498 20.8819C31.0397 20.9057 31.0251 20.9258 31.0077 20.9432C30.9894 20.9606 30.9683 20.9744 30.9445 20.9854C30.9207 20.9954 30.895 21.0009 30.8666 21.0009C30.8383 21.0009 30.8126 20.9954 30.7879 20.9854C30.7632 20.9753 30.7421 20.9615 30.7247 20.9432C30.7064 20.9258 30.6926 20.9048 30.6826 20.8819C30.6725 20.8581 30.667 20.8333 30.667 20.8068C30.667 20.7802 30.6725 20.7555 30.6826 20.7317C30.6926 20.7079 30.7064 20.6877 30.7247 20.6703C30.743 20.6529 30.7641 20.6392 30.7879 20.6291C30.8117 20.619 30.8383 20.6135 30.8666 20.6135ZM30.8666 20.9469C30.8859 20.9469 30.9042 20.9432 30.9207 20.9359C30.9372 20.9286 30.9527 20.9185 30.9646 20.9057C30.9775 20.8929 30.9866 20.8782 30.9939 20.8617C31.0013 20.8452 31.0049 20.8269 31.0049 20.8068C31.0049 20.7875 31.0013 20.7692 30.9939 20.7527C30.9866 20.7353 30.9765 20.7207 30.9646 20.7088C30.9518 20.696 30.9372 20.6868 30.9207 20.6795C30.9042 20.6721 30.8859 20.6685 30.8666 20.6685C30.8465 20.6685 30.8282 20.6721 30.8117 20.6795C30.7943 20.6868 30.7796 20.6969 30.7668 20.7088C30.754 20.7216 30.7439 20.7362 30.7375 20.7527C30.7302 20.7701 30.7265 20.7875 30.7265 20.8068C30.7265 20.826 30.7302 20.8443 30.7375 20.8617C30.7448 20.8782 30.7549 20.8938 30.7668 20.9057C30.7796 20.9185 30.7943 20.9286 30.8117 20.9359C30.8282 20.9432 30.8465 20.9469 30.8666 20.9469ZM30.8776 20.7207C30.9014 20.7207 30.9188 20.7262 30.9308 20.7362C30.9427 20.7463 30.9491 20.761 30.9491 20.7784C30.9491 20.7921 30.9445 20.8031 30.9363 20.8123C30.9271 20.8214 30.9152 20.8269 30.8978 20.8297L30.9509 20.891H30.8932L30.8456 20.8315H30.8401V20.891H30.7915V20.7198H30.8776V20.7207ZM30.8401 20.7628V20.7939H30.8758C30.8831 20.7939 30.8886 20.793 30.8932 20.7903C30.8969 20.7875 30.8996 20.7839 30.8996 20.7784C30.8996 20.7729 30.8978 20.7692 30.8932 20.7665C30.8895 20.7637 30.8831 20.7628 30.8758 20.7628H30.8401Z" fill="black"/>
<path d="M16.858 10.1399C16.858 7.87046 17.9186 5.84919 19.5689 4.54137C18.3518 3.57698 16.8141 3 15.1399 3C11.1972 3 8 6.19721 8 10.1399C8 14.0826 11.1972 17.2798 15.1399 17.2798C16.8132 17.2798 18.3518 16.7029 19.5689 15.7385C17.9186 14.4307 16.858 12.4103 16.858 10.1399Z" fill="#E30D17"/>
<path d="M19.5688 15.7384C21.066 15.7384 22.2797 13.2318 22.2797 10.1398C22.2797 7.04782 21.066 4.54126 19.5688 4.54126C18.0716 4.54126 16.8579 7.04782 16.8579 10.1398C16.8579 13.2318 18.0716 15.7384 19.5688 15.7384Z" fill="#EB610A"/>
<path d="M30.6541 14.002V13.7932H30.5698V13.7355H30.8015V13.7932H30.7173V14.002H30.6541ZM31.1019 14.002V13.817L31.0424 13.9764H30.9765L30.9169 13.817V14.0011H30.8547V13.7346H30.9444L31.0103 13.905L31.0763 13.7346H31.166V14.0011H31.1019V14.002Z" fill="#F69F00"/>
<path d="M23.9979 3C22.3246 3 20.786 3.57698 19.5688 4.54137C21.2201 5.84919 22.2797 7.87046 22.2797 10.1399C22.2797 12.4094 21.2192 14.4307 19.5688 15.7385C20.786 16.7029 22.3237 17.2798 23.9979 17.2798C27.9415 17.2798 31.1378 14.0826 31.1378 10.1399C31.1378 6.19721 27.9415 3 23.9979 3Z" fill="#F69F00"/>
</g>
<path d="M4 0.5H36V-0.5H4V0.5ZM39.5 4V20H40.5V4H39.5ZM36 23.5H4V24.5H36V23.5ZM0.5 20V4H-0.5V20H0.5ZM4 23.5C2.067 23.5 0.5 21.933 0.5 20H-0.5C-0.5 22.4853 1.51472 24.5 4 24.5V23.5ZM39.5 20C39.5 21.933 37.933 23.5 36 23.5V24.5C38.4853 24.5 40.5 22.4853 40.5 20H39.5ZM36 0.5C37.933 0.5 39.5 2.067 39.5 4H40.5C40.5 1.51472 38.4853 -0.5 36 -0.5V0.5ZM4 -0.5C1.51472 -0.5 -0.5 1.51472 -0.5 4H0.5C0.5 2.067 2.067 0.5 4 0.5V-0.5Z" fill="#D8D9DB"/>
<defs>
<clipPath id="clip0">
<rect width="23.1644" height="18" fill="white" transform="translate(8 3)"/>
</clipPath>
</defs>
</svg>
