<?xml version="1.0" encoding="UTF-8"?>
<svg width="24px" height="24px" viewBox="0 0 24 24" version="1.1" xmlns="http://www.w3.org/2000/svg" xmlns:xlink="http://www.w3.org/1999/xlink">
    <!-- Generator: Sketch 49 (51002) - http://www.bohemiancoding.com/sketch -->
    <title>icon/details/ic_camera</title>
    <desc>Created with Sketch.</desc>
    <defs></defs>
    <g id="icon/details/ic_camera" stroke="none" stroke-width="1" fill="none" fill-rule="evenodd">
        <path d="M14.5818459,4 L16.5864614,6.28571429 L20,6.28571429 C20.5522847,6.28571429 21,6.79738886 21,7.42857143 L21,18.8571429 C21,19.4883254 20.5522847,20 20,20 L4,20 C3.44771525,20 3,19.4883254 3,18.8571429 L3,7.42857143 C3,6.79738886 3.44771525,6.28571429 4,6.28571429 L7.41393466,6.28571429 L9.41584023,4 L14.5818459,4 Z M14.0081024,6 L9.99009796,6 L8.43306029,8 L5,8 L5,18 L19,18 L19,8 L15.5672478,8 L14.0081024,6 Z M12,16.5 C9.790861,16.5 8,14.709139 8,12.5 C8,10.290861 9.790861,8.5 12,8.5 C14.209139,8.5 16,10.290861 16,12.5 C16,14.709139 14.209139,16.5 12,16.5 Z M12,14.5 C13.1045695,14.5 14,13.6045695 14,12.5 C14,11.3954305 13.1045695,10.5 12,10.5 C10.8954305,10.5 10,11.3954305 10,12.5 C10,13.6045695 10.8954305,14.5 12,14.5 Z" id="Combined-Shape" fill="#333333"></path>
    </g>
</svg>