<?xml version="1.0" encoding="UTF-8"?>
<svg width="24px" height="24px" viewBox="0 0 24 24" version="1.1" xmlns="http://www.w3.org/2000/svg" xmlns:xlink="http://www.w3.org/1999/xlink">
    <!-- Generator: Sketch 51.1 (57501) - http://www.bohemiancoding.com/sketch -->
    <title>Icon/Fill/ic_cleared_fill</title>
    <desc>Created with Sketch.</desc>
    <defs></defs>
    <g id="Icon/Fill/ic_cleared_fill" stroke="none" stroke-width="1" fill="none" fill-rule="evenodd">
        <path d="M11.2375031,5.50592024 L11.2375031,10.2082952 C11.2375031,10.4799657 11.0276365,10.7001981 10.7687531,10.7001981 C10.5098696,10.7001981 10.3000031,10.4799657 10.3000031,10.2082952 L10.3000031,5.5 L9.23750305,5.5 L9.23750305,10.2082952 C9.23750305,10.4799657 9.02763653,10.7001981 8.76875305,10.7001981 C8.50986958,10.7001981 8.30000305,10.4799657 8.30000305,10.2082952 L8.30000305,5.50105474 C7.32300662,5.52891182 7,6.10506778 7,6.81174107 L7,11.4028348 C7,12.2773289 7.56666565,12.7145759 8.69999695,12.7145759 L8.69999695,17.9615402 C8.69999695,18.3237675 8.73223305,18.6174107 9.25,18.6174107 L10.1875,18.6174107 C10.705267,18.6174107 10.8000031,18.3237675 10.8000031,17.9615402 L10.8000031,12.7145759 C12.5,12.7145759 12.5,12.1272894 12.5,11.4028348 L12.5,6.81174107 C12.5,6.1295981 12.1436162,5.56906859 11.2375031,5.50592024 Z M12,21 C7.02943725,21 3,16.9705627 3,12 C3,7.02943725 7.02943725,3 12,3 C16.9705627,3 21,7.02943725 21,12 C21,16.9705627 16.9705627,21 12,21 Z M17,5.51512674 C17,5.31590173 14,7.1154824 14,9.08962116 L14,13.0414437 C14,13.5244134 14.399999,13.963266 15.1999969,14.3580013 L15.1999969,18.4880062 C15.1999969,18.8502335 17,18.8502335 17,18.4880062 L17,5.51512674 Z" id="c_cleared_fill" fill="#2D333F" fill-rule="nonzero"></path>
    </g>
</svg>