<?xml version="1.0" encoding="UTF-8"?>
<svg width="24px" height="24px" viewBox="0 0 24 24" version="1.1" xmlns="http://www.w3.org/2000/svg" xmlns:xlink="http://www.w3.org/1999/xlink">
    <!-- Generator: Sketch 50.2 (55047) - http://www.bohemiancoding.com/sketch -->
    <title>icon/ic_cuisine</title>
    <desc>Created with Sketch.</desc>
    <defs></defs>
    <g id="icon/ic_cuisine" stroke="none" stroke-width="1" fill="none" fill-rule="evenodd">
        <path d="M11,2 C12.1045695,2 13,2.8954305 13,4 L13,11 C13,12.1045695 12.1045695,13 11,13 L10,13 L10,21 C10,21.5522847 9.55228475,22 9,22 L8,22 C7.44771525,22 7,21.5522847 7,21 L7,13 L6,13 C4.8954305,13 4,12.1045695 4,11 L4,4 C4,2.8954305 4.8954305,2 6,2 L11,2 Z M11,11 L11,4 L10,4 L10,8.5 C10,8.77614237 9.77614237,9 9.5,9 C9.22385763,9 9,8.77614237 9,8.5 L9,4 L8,4 L8,8.5 C8,8.77614237 7.77614237,9 7.5,9 C7.22385763,9 7,8.77614237 7,8.5 L7,4 L6,4 L6,11 L11,11 Z M19.45,2 C19.7537566,2 20,2.24624339 20,2.55 L20,21 C20,21.5522847 19.5522847,22 19,22 L18,22 C17.4477153,22 17,21.5522847 17,21 L17,17 L16,17 C14.8954305,17 14,16.1045695 14,15 L14,7.45 C14,4.44004811 16.4400481,2 19.45,2 Z M16,15 L18,15 L18,4.32 C16.7823465,4.88673047 16.0026709,6.10692278 16,7.45 L16,15 Z" id="ic_cuisine" fill="#2D333F" fill-rule="nonzero"></path>
    </g>
</svg>