<?xml version="1.0" encoding="UTF-8"?>
<svg width="24px" height="24px" viewBox="0 0 24 24" version="1.1" xmlns="http://www.w3.org/2000/svg" xmlns:xlink="http://www.w3.org/1999/xlink">
    <!-- Generator: Sketch 49.2 (51160) - http://www.bohemiancoding.com/sketch -->
    <title>universal / icon / navigation / medium / ic_close</title>
    <desc>Created with Sketch.</desc>
    <defs>
        <path d="M11,11 L11,4.5 C11,4.22385763 11.2238576,4 11.5,4 L12.5,4 C12.7761424,4 13,4.22385763 13,4.5 L13,11 L19.5,11 C19.7761424,11 20,11.2238576 20,11.5 L20,12.5 C20,12.7761424 19.7761424,13 19.5,13 L13,13 L13,19.5 C13,19.7761424 12.7761424,20 12.5,20 L11.5,20 C11.2238576,20 11,19.7761424 11,19.5 L11,13 L4.5,13 C4.22385763,13 4,12.7761424 4,12.5 L4,11.5 C4,11.2238576 4.22385763,11 4.5,11 L11,11 Z" id="path-1"></path>
    </defs>
    <g id="universal-/-icon-/-navigation-/-medium-/-ic_close" stroke="none" stroke-width="1" fill="none" fill-rule="evenodd">
        <mask id="mask-2" fill="white">
            <use xlink:href="#path-1"></use>
        </mask>
        <use id="ic_close" fill="#2D333F" fill-rule="nonzero" transform="translate(12.000000, 12.000000) rotate(45.000000) translate(-12.000000, -12.000000) " xlink:href="#path-1"></use>
    </g>
</svg>