<?xml version="1.0" encoding="UTF-8"?>
<svg width="24px" height="24px" viewBox="0 0 24 24" version="1.1" xmlns="http://www.w3.org/2000/svg" xmlns:xlink="http://www.w3.org/1999/xlink">
    <!-- Generator: Sketch 51.1 (57501) - http://www.bohemiancoding.com/sketch -->
    <title>Icon/Fill/ic_cancelled_fill</title>
    <desc>Created with Sketch.</desc>
    <defs></defs>
    <g id="Icon/Fill/ic_cancelled_fill" stroke="none" stroke-width="1" fill="none" fill-rule="evenodd">
        <path d="M13.8137085,10.3137085 L18.8137085,10.3137085 C19.3659932,10.3137085 19.8137085,10.7614237 19.8137085,11.3137085 L19.8137085,13.3137085 C19.8137085,13.8659932 19.3659932,14.3137085 18.8137085,14.3137085 L13.8137085,14.3137085 L13.8137085,19.3137085 C13.8137085,19.8659932 13.3659932,20.3137085 12.8137085,20.3137085 L10.8137085,20.3137085 C10.2614237,20.3137085 9.8137085,19.8659932 9.8137085,19.3137085 L9.8137085,14.3137085 L4.8137085,14.3137085 C4.26142375,14.3137085 3.8137085,13.8659932 3.8137085,13.3137085 L3.8137085,11.3137085 C3.8137085,10.7614237 4.26142375,10.3137085 4.8137085,10.3137085 L9.8137085,10.3137085 L9.8137085,5.3137085 C9.8137085,4.76142375 10.2614237,4.3137085 10.8137085,4.3137085 L12.8137085,4.3137085 C13.3659932,4.3137085 13.8137085,4.76142375 13.8137085,5.3137085 L13.8137085,10.3137085 Z" id="ic_cancelled_fill" fill="#2D333F" transform="translate(11.813708, 12.313708) scale(-1, 1) rotate(-45.000000) translate(-11.813708, -12.313708) "></path>
    </g>
</svg>