<?xml version="1.0" encoding="UTF-8"?>
<svg width="24px" height="24px" viewBox="0 0 24 24" version="1.1" xmlns="http://www.w3.org/2000/svg" xmlns:xlink="http://www.w3.org/1999/xlink">
    <!-- Generator: Sketch 49 (51002) - http://www.bohemiancoding.com/sketch -->
    <title>icon/details/ic_chef</title>
    <desc>Created with Sketch.</desc>
    <defs></defs>
    <g id="icon/details/ic_chef" stroke="none" stroke-width="1" fill="none" fill-rule="evenodd">
        <path d="M12,5 C13.74753,5 14.2909,5.52203 14.5663,5.90067 C14.7569,6.15266 14.8773,6.44336 15.0477,6.77663 C15.1995,7.07263 15.4802,7.60816 16.0528,7.89443 L16.9472,6.10557 C17.0198,6.14184 16.988,6.17737 16.8273,5.864 C16.6852,5.58789 16.4931,5.15984 16.1837,4.724328 C15.4591,3.72797 14.2525,3 12,3 L12,5 Z M16.0528,7.89443 C16.3931,8.05914 16.813,8.17853 17.1705,8.29042 C17.531,8.40297 17.8325,8.50244 18.1211,8.67628 C18.5714,8.93891 19,9.36421 19,10.5 L21,10.5 C21,8.63579 20.1786,7.56109 19.1289,6.94872 C18.6675,6.68506 18.1565,6.50328 17.767,6.38146 C17.3745,6.25897 17.1069,6.19086 16.9472,6.10557 L16.0528,7.89443 Z M19,10.5 C19,11.58594 18.4906,12.2061 17.8598,12.73178 C17.5267,13.01122 17.1517,13.26122 16.8286,13.52865 C16.5618,13.75096 16,14.2399 16,15 L18,15 C18,15.2601 17.8132,15.3115 18.1089,15.0651 C18.3483,14.8638 18.7233,14.6138 19.1402,14.2682 C20.0094,13.5439 21,12.41406 21,10.5 L19,10.5 Z M16.5793,19 L7.49999,19 L7.49999,21 L16.5793,21 L16.5793,19 Z M7.99999,15 C7.99999,14.2399 7.4382,13.75097 7.17142,13.52866 C6.84829,13.26122 6.47329,13.01122 6.14018,12.73178 C5.50937,12.20611 5,11.58594 5,10.5 L3,10.5 C3,12.41406 3.99061891,13.54389 4.859807,14.2682 C5.2767,14.6138 5.65169,14.8638 5.89105,15.0651 C6.18677,15.3115 5.99999,15.2601 5.99999,15 L7.99999,15 Z M5,10.5 C5,9.36421 5.42864,8.93891 5.87887,8.67628 C6.16747,8.50244 6.46898,8.40297 6.82952,8.29042 C7.18699,8.17853 7.6069,8.05914 7.94721,7.89443 L7.05279,6.10557 C6.8931,6.19086 6.62551,6.25897 6.23298,6.38146 C5.84352,6.50328 5.33253,6.68506 4.871129,6.94872 C3.821361,7.56109 3,8.63579 3,10.5 L5,10.5 Z M7.94721,7.89443 C8.51975,7.60816 8.80052,7.07263 8.95232,6.77663 C9.12265,6.44336 9.24309,6.15266 9.43374,5.90067 C9.70911,5.52203 10.25247,5 12,5 L12,3 C9.74753,3 8.54089,3.72797 7.81626,4.724328 C7.50691,5.15984 7.31485,5.58789 7.17268,5.864 C7.01198,6.17737 6.98025,6.14184 7.05279,6.10557 L7.94721,7.89443 Z M7.99999,19.5 L7.99999,16 L5.99999,16 L5.99999,19.5 L7.99999,19.5 Z M7.99999,16 L7.99999,15 L5.99999,15 L5.99999,16 L7.99999,16 Z M16,15 C16,15.5 16,15.75 16,15.875 C16,15.9375 16,15.9688 16,15.9844 C16,15.9922 16,15.9961 16,15.998 C16,15.999 16,15.9995 16,15.9998 C16,15.9999 16,15.9999 16,16 C16,16 16,16 16,16 C16,16 16,16 16,16 C16,16 16,16 16,16 C16,16 16,16 16,16 C16,16 17,16 17,16 C17,16 18,16 18,16 C18,16 18,16 18,16 C18,16 18,16 18,16 C18,16 18,16 18,16 C18,16 18,16 18,16 C18,15.9999 18,15.9999 18,15.9998 C18,15.9995 18,15.999 18,15.998 C18,15.9961 18,15.9922 18,15.9844 C18,15.9688 18,15.9375 18,15.875 C18,15.75 18,15.5 18,15 L16,15 Z M16.0002,16.0227 L16.0794,19.5113 L18.0789,19.466 L17.9997,15.9773 L16.0002,16.0227 Z M6.99999,17 L17,17 L17,15 L6.99999,15 L6.99999,17 Z M16.5793,21 C17.4211,21 18.098,20.3075 18.0789,19.466 L16.0794,19.5113 C16.0731,19.2308 16.2987,19 16.5793,19 L16.5793,21 Z M7.49999,19 C7.77613,19 7.99999,19.2239 7.99999,19.5 L5.99999,19.5 C5.99999,20.3284 6.67156,21 7.49999,21 L7.49999,19 Z" id="path" fill="#333333" fill-rule="nonzero"></path>
    </g>
</svg>