<?xml version="1.0" encoding="UTF-8"?>
<svg width="24px" height="24px" viewBox="0 0 24 24" version="1.1" xmlns="http://www.w3.org/2000/svg" xmlns:xlink="http://www.w3.org/1999/xlink">
    <!-- Generator: Sketch 49 (51002) - http://www.bohemiancoding.com/sketch -->
    <title>icon/details/ic_cuisine</title>
    <desc>Created with Sketch.</desc>
    <defs></defs>
    <g id="icon/details/ic_cuisine" stroke="none" stroke-width="1" fill="none" fill-rule="evenodd">
        <path d="M14.55,2 C14.2462434,2 14,2.24624339 14,2.55 L14,21 C14,21.5522847 14.4477153,22 15,22 L16,22 C16.5522847,22 17,21.5522847 17,21 L17,17 L18,17 C19.1045695,17 20,16.1045695 20,15 L20,7.45 C20,4.44004811 17.5599519,2 14.55,2 Z M18,15 L16,15 L16,4.32 C17.2176535,4.88673047 17.9973291,6.10692278 18,7.45 L18,15 Z" id="Shape" fill="#333333" fill-rule="nonzero"></path>
        <path d="M11,2 C12.1045695,2 13,2.8954305 13,4 L13,11 C13,12.1045695 12.1045695,13 11,13 L10,13 L10,21 C10,21.5522847 9.55228475,22 9,22 L8,22 C7.44771525,22 7,21.5522847 7,21 L7,13 L6,13 C4.8954305,13 4,12.1045695 4,11 L4,4 C4,2.8954305 4.8954305,2 6,2 L11,2 Z M11,11 L11,4 L10,4 L10,8.5 C10,8.77614237 9.77614237,9 9.5,9 C9.22385763,9 9,8.77614237 9,8.5 L9,4 L8,4 L8,8.5 C8,8.77614237 7.77614237,9 7.5,9 C7.22385763,9 7,8.77614237 7,8.5 L7,4 L6,4 L6,11 L11,11 Z" id="Shape" fill="#333333" fill-rule="nonzero"></path>
    </g>
</svg>