<?xml version="1.0" encoding="UTF-8"?>
<svg width="24px" height="24px" viewBox="0 0 24 24" version="1.1" xmlns="http://www.w3.org/2000/svg" xmlns:xlink="http://www.w3.org/1999/xlink" style="background: #FFFFFF;">
    <!-- Generator: Sketch 49.3 (51167) - http://www.bohemiancoding.com/sketch -->
    <title>icon/ic_cross_street</title>
    <desc>Created with Sketch.</desc>
    <defs></defs>
    <g id="icon/ic_cross_street" stroke="none" stroke-width="1" fill="none" fill-rule="evenodd">
        <path d="M9,18 L3.5,18 C3.22385763,18 3,17.7761424 3,17.5 L3,16.5 C3,16.2238576 3.22385763,16 3.5,16 L9.5,16 L10.5,16 C10.7761424,16 11,16.2238576 11,16.5 L11,20.5 C11,20.7761424 10.7761424,21 10.5,21 L9.5,21 C9.22385763,21 9,20.7761424 9,20.5 L9,18 Z M9.5,8 L3.5,8 C3.22385763,8 3,7.77614237 3,7.5 L3,6.5 C3,6.22385763 3.22385763,6 3.5,6 L9,6 L9,3.5 C9,3.22385763 9.22385763,3 9.5,3 L10.5,3 C10.7761424,3 11,3.22385763 11,3.5 L11,7.5 C11,7.77614237 10.7761424,8 10.5,8 L9.5,8 Z M14.5,3 L15.5,3 C15.7761424,3 16,3.22385763 16,3.5 L16,5.5 C16,5.77614237 15.7761424,6 15.5,6 L14.5,6 C14.2238576,6 14,5.77614237 14,5.5 L14,3.5 C14,3.22385763 14.2238576,3 14.5,3 Z M14.5,8 L15.5,8 C15.7761424,8 16,8.22385763 16,8.5 L16,10.5 C16,10.7761424 15.7761424,11 15.5,11 L14.5,11 C14.2238576,11 14,10.7761424 14,10.5 L14,8.5 C14,8.22385763 14.2238576,8 14.5,8 Z M14.5,13 L15.5,13 C15.7761424,13 16,13.2238576 16,13.5 L16,15.5 C16,15.7761424 15.7761424,16 15.5,16 L14.5,16 C14.2238576,16 14,15.7761424 14,15.5 L14,13.5 C14,13.2238576 14.2238576,13 14.5,13 Z M14.5,18 L15.5,18 C15.7761424,18 16,18.2238576 16,18.5 L16,20.5 C16,20.7761424 15.7761424,21 15.5,21 L14.5,21 C14.2238576,21 14,20.7761424 14,20.5 L14,18.5 C14,18.2238576 14.2238576,18 14.5,18 Z M19.5,3 L20.5,3 C20.7761424,3 21,3.22385763 21,3.5 L21,20.5 C21,20.7761424 20.7761424,21 20.5,21 L19.5,21 C19.2238576,21 19,20.7761424 19,20.5 L19,3.5 C19,3.22385763 19.2238576,3 19.5,3 Z M8.5,11 L10.5,11 C10.7761424,11 11,11.2238576 11,11.5 L11,12.5 C11,12.7761424 10.7761424,13 10.5,13 L8.5,13 C8.22385763,13 8,12.7761424 8,12.5 L8,11.5 C8,11.2238576 8.22385763,11 8.5,11 Z M3.5,11 L5.5,11 C5.77614237,11 6,11.2238576 6,11.5 L6,12.5 C6,12.7761424 5.77614237,13 5.5,13 L3.5,13 C3.22385763,13 3,12.7761424 3,12.5 L3,11.5 C3,11.2238576 3.22385763,11 3.5,11 Z" id="ic_cross_street" fill="#333333"></path>
    </g>
</svg>