<?xml version="1.0" encoding="UTF-8"?>
<svg width="24px" height="24px" viewBox="0 0 24 24" version="1.1" xmlns="http://www.w3.org/2000/svg" xmlns:xlink="http://www.w3.org/1999/xlink">
    <!-- Generator: Sketch 51.1 (57501) - http://www.bohemiancoding.com/sketch -->
    <title>icon/ic_cancel@1x</title>
    <desc>Created with Sketch.</desc>
    <defs></defs>
    <g id="icon/ic_cancel" stroke="none" stroke-width="1" fill="none" fill-rule="evenodd">
        <path d="M12,10.5857864 L9.87867966,8.46446609 C9.48815536,8.0739418 8.85499039,8.0739418 8.46446609,8.46446609 C8.0739418,8.85499039 8.0739418,9.48815536 8.46446609,9.87867966 L10.5857864,12 L8.46446609,14.1213203 C8.0739418,14.5118446 8.0739418,15.1450096 8.46446609,15.5355339 C8.85499039,15.9260582 9.48815536,15.9260582 9.87867966,15.5355339 L12,13.4142136 L14.1213203,15.5355339 C14.5118446,15.9260582 15.1450096,15.9260582 15.5355339,15.5355339 C15.9260582,15.1450096 15.9260582,14.5118446 15.5355339,14.1213203 L13.4142136,12 L15.5355339,9.87867966 C15.9260582,9.48815536 15.9260582,8.85499039 15.5355339,8.46446609 C15.1450096,8.0739418 14.5118446,8.0739418 14.1213203,8.46446609 L12,10.5857864 Z M12,21 C7.02943725,21 3,16.9705627 3,12 C3,7.02943725 7.02943725,3 12,3 C16.9705627,3 21,7.02943725 21,12 C21,16.9705627 16.9705627,21 12,21 Z" id="ic_cancel" fill="#2D333F"></path>
    </g>
</svg>