<svg width="40" height="24" viewBox="0 0 40 24" fill="none" xmlns="http://www.w3.org/2000/svg">
  <title>Card/American Express</title>
<path d="M0 4C0 1.79086 1.79086 0 4 0H36C38.2091 0 40 1.79086 40 4V20C40 22.2091 38.2091 24 36 24H4C1.79086 24 0 22.2091 0 20V4Z" fill="white"/>
<path fill-rule="evenodd" clip-rule="evenodd" d="M10 2H30V12.7967V15.72V22H10V11.8222V10.43V2Z" fill="#016FD0"/>
<path fill-rule="evenodd" clip-rule="evenodd" d="M13.8823 15.9366V12.7966H17.2068L17.5634 13.2611L17.9323 12.7966H30.0001V15.72C30.0001 15.72 29.6845 15.9333 29.319 15.9366H22.6368L22.2345 15.4422V15.9366H20.9179V15.0922C20.9179 15.0922 20.7379 15.21 20.349 15.21H19.9001V15.9366H17.9045L17.5479 15.4622L17.1857 15.9366H13.8823Z" fill="white"/>
<path fill-rule="evenodd" clip-rule="evenodd" d="M10 10.4299L10.75 8.68213H12.0467L12.4722 9.66102V8.68213H14.0844L14.3378 9.38991L14.5833 8.68213H21.8189V9.03768C21.8189 9.03768 22.1989 8.68213 22.8244 8.68213L25.1722 8.68991L25.59 9.65657V8.68213H26.9389L27.31 9.23768V8.68213H28.6711V11.8221H27.31L26.9544 11.2655V11.8221H24.9722L24.7733 11.3277H24.2411L24.0456 11.8221H22.7011C22.1633 11.8221 21.8189 11.4732 21.8189 11.4732V11.8221H19.7911L19.3889 11.3277V11.8221H11.8544L11.6556 11.3277H11.1244L10.9267 11.8221H10V10.4299Z" fill="white"/>
<path fill-rule="evenodd" clip-rule="evenodd" d="M11.0155 9.06885L10.0044 11.42H10.6622L10.8488 10.9488H11.9333L12.1188 11.42H12.7922L11.7822 9.06885H11.0155ZM11.3888 9.61663L11.72 10.4388H11.0577L11.3888 9.61663Z" fill="#016FD0"/>
<path fill-rule="evenodd" clip-rule="evenodd" d="M12.8613 11.42V9.06885L13.7969 9.07218L14.3413 10.5877L14.8724 9.06885H15.8002V11.42H15.2124V9.68774L14.5902 11.42H14.0747L13.4491 9.68774V11.42H12.8613Z" fill="#016FD0"/>
<path fill-rule="evenodd" clip-rule="evenodd" d="M16.2021 11.42V9.06885H18.121V9.5944H16.7966V9.99663H18.0899V10.4922H16.7966V10.91H18.121V11.42H16.2021Z" fill="#016FD0"/>
<path fill-rule="evenodd" clip-rule="evenodd" d="M18.4609 9.06885V11.42H19.0487V10.5844H19.2965L20.0009 11.42H20.7187L19.9454 10.5533C20.2632 10.5266 20.5898 10.2544 20.5898 9.83107C20.5898 9.33663 20.2009 9.06885 19.7676 9.06885H18.4609ZM19.0487 9.59551H19.7209C19.882 9.59551 19.9998 9.72107 19.9998 9.84329C19.9998 9.99996 19.8476 10.0911 19.7298 10.0911H19.0487V9.59551Z" fill="#016FD0"/>
<path fill-rule="evenodd" clip-rule="evenodd" d="M21.4311 11.42H20.8311V9.06885H21.4311V11.42Z" fill="#016FD0"/>
<path fill-rule="evenodd" clip-rule="evenodd" d="M22.8531 11.42H22.7231C22.0964 11.42 21.7153 10.9266 21.7153 10.2544C21.7153 9.56551 22.092 9.06885 22.8831 9.06885H23.5331V9.62551H22.8598C22.5387 9.62551 22.3109 9.87663 22.3109 10.26C22.3109 10.7155 22.5709 10.9066 22.9453 10.9066H23.0998L22.8531 11.42Z" fill="#016FD0"/>
<path fill-rule="evenodd" clip-rule="evenodd" d="M24.1332 9.06885L23.1221 11.42H23.7798L23.9665 10.9488H25.051L25.2365 11.42H25.9098L24.8998 9.06885H24.1332ZM24.5065 9.61663L24.8376 10.4388H24.1754L24.5065 9.61663Z" fill="#016FD0"/>
<path fill-rule="evenodd" clip-rule="evenodd" d="M25.979 11.42V9.06885H26.7257L27.6801 10.5455V9.06885H28.2679V11.42H27.5446L26.5668 9.9044V11.42H25.979Z" fill="#016FD0"/>
<path fill-rule="evenodd" clip-rule="evenodd" d="M14.2847 15.5345V13.1833H16.2024V13.7089H14.8791V14.1111H16.1724V14.6067H14.8791V15.0245H16.2024V15.5345H14.2847Z" fill="#016FD0"/>
<path fill-rule="evenodd" clip-rule="evenodd" d="M23.6831 15.5345V13.1833H25.6009V13.7089H24.2764V14.1111H25.5631V14.6067H24.2764V15.0245H25.6009V15.5345H23.6831Z" fill="#016FD0"/>
<path fill-rule="evenodd" clip-rule="evenodd" d="M16.2766 15.5345L17.2111 14.3733L16.2544 13.1833H16.9955L17.5644 13.9189L18.1366 13.1833H18.8477L17.9044 14.3589L18.8399 15.5345H18.0988L17.5466 14.81L17.0066 15.5345H16.2766Z" fill="#016FD0"/>
<path fill-rule="evenodd" clip-rule="evenodd" d="M18.9102 13.1833V15.5345H19.5135V14.7922H20.1324C20.6557 14.7922 21.0524 14.5145 21.0524 13.9745C21.0524 13.5267 20.7413 13.1833 20.2079 13.1833H18.9102ZM19.5135 13.7156H20.1646C20.3335 13.7156 20.4546 13.8189 20.4546 13.9867C20.4546 14.1433 20.3346 14.2578 20.1624 14.2578H19.5124V13.7156H19.5135Z" fill="#016FD0"/>
<path fill-rule="evenodd" clip-rule="evenodd" d="M21.3066 13.1833V15.5345H21.8944V14.6989H22.1422L22.8466 15.5345H23.5644L22.7911 14.6678C23.1089 14.6411 23.4355 14.3689 23.4355 13.9456C23.4355 13.4511 23.0466 13.1833 22.6133 13.1833H21.3066ZM21.8944 13.7089H22.5666C22.7278 13.7089 22.8455 13.8345 22.8455 13.9567C22.8455 14.1133 22.6933 14.2045 22.5755 14.2045H21.8944V13.7089Z" fill="#016FD0"/>
<path fill-rule="evenodd" clip-rule="evenodd" d="M25.8731 15.5343V15.0243H27.0498C27.2242 15.0243 27.2998 14.9299 27.2998 14.8277C27.2998 14.7288 27.2242 14.6288 27.0498 14.6288H26.5187C26.0565 14.6288 25.7998 14.3477 25.7998 13.9243C25.7998 13.5477 26.0354 13.1843 26.722 13.1843H27.8665L27.6187 13.7132H26.6287C26.4398 13.7132 26.3809 13.8121 26.3809 13.9077C26.3809 14.0054 26.4531 14.1121 26.5976 14.1121H27.1542C27.6698 14.1121 27.8931 14.4043 27.8931 14.7865C27.8931 15.1977 27.6442 15.5343 27.1265 15.5343H25.8731Z" fill="#016FD0"/>
<path fill-rule="evenodd" clip-rule="evenodd" d="M28.03 15.5343V15.0243H29.1567C29.3311 15.0243 29.4067 14.9299 29.4067 14.8277C29.4067 14.7288 29.3311 14.6288 29.1567 14.6288H28.6745C28.2122 14.6288 27.9556 14.3477 27.9556 13.9243C27.9556 13.5477 28.1911 13.1843 28.8778 13.1843H30L29.7522 13.7132H28.7856C28.5967 13.7132 28.5378 13.8121 28.5378 13.9077C28.5378 14.0054 28.61 14.1121 28.7545 14.1121H29.2611C29.7767 14.1121 30 14.4043 30 14.7865C30 15.1977 29.7511 15.5343 29.2333 15.5343H28.03Z" fill="#016FD0"/>
<path d="M4 0.5H36V-0.5H4V0.5ZM39.5 4V20H40.5V4H39.5ZM36 23.5H4V24.5H36V23.5ZM0.5 20V4H-0.5V20H0.5ZM4 23.5C2.067 23.5 0.5 21.933 0.5 20H-0.5C-0.5 22.4853 1.51472 24.5 4 24.5V23.5ZM39.5 20C39.5 21.933 37.933 23.5 36 23.5V24.5C38.4853 24.5 40.5 22.4853 40.5 20H39.5ZM36 0.5C37.933 0.5 39.5 2.067 39.5 4H40.5C40.5 1.51472 38.4853 -0.5 36 -0.5V0.5ZM4 -0.5C1.51472 -0.5 -0.5 1.51472 -0.5 4H0.5C0.5 2.067 2.067 0.5 4 0.5V-0.5Z" fill="#D8D9DB"/>
</svg>
