<svg viewBox="0 0 20 20" xmlns="http://www.w3.org/2000/svg" xmlns:xlink="http://www.w3.org/1999/xlink"><title>Checkmark</title><defs><path d="M10.535534 12.363961l-1.767767-1.767767c-.195262-.195262-.511845-.195262-.707107 0l-.707107.707107c-.195262.195262-.195262.511845 0 .707107l2.828428 2.828427c.09763.09763.225592.146446.353553.146446.127961 0 .255922-.048815.353553-.146446l4.949748-4.949748c.195262-.195262.195262-.511844 0-.707106l-.707107-.707107c-.195262-.195262-.511845-.195262-.707107 0l-3.889087 3.889087zM12 22C6.477152 22 2 17.522848 2 12S6.477152 2 12 2s10 4.477152 10 10-4.477152 10-10 10z" id="a"/></defs><g fill="none" fill-rule="evenodd"><path d="M-2-2h24v24H-2z"/><g transform="translate(-2 -2)"><use fill="#FFF" xlink:href="#a"/><path stroke="#FFF" stroke-width="2" d="M10.535534 10.949748l3.18198-3.181981c.585787-.585786 1.535534-.585786 2.12132 0l.707108.707107c.585786.585786.585786 1.535534 0 2.12132l-4.949748 4.949747c-.284509.28451-.66632.43934-1.06066.43934-.39434 0-.776151-.15483-1.06066-.43934l-2.828427-2.828427c-.585787-.585786-.585787-1.535533 0-2.12132l.707106-.707107c.585787-.585786 1.535534-.585786 2.12132 0l1.06066 1.06066zM12 21c4.970563 0 9-4.029437 9-9s-4.029437-9-9-9-9 4.029437-9 9 4.029437 9 9 9z"/></g></g></svg>
