<?xml version="1.0" encoding="UTF-8"?>
<svg width="24px" height="24px" viewBox="0 0 24 24" version="1.1" xmlns="http://www.w3.org/2000/svg" xmlns:xlink="http://www.w3.org/1999/xlink">
    <!-- Generator: Sketch 52.6 (67491) - http://www.bohemiancoding.com/sketch -->
    <title>icon/fill/ic_private_dining_fill/Light UI - Default@1x</title>
    <desc>Created with Sketch.</desc>
    <g id="icon/fill/ic_private_dining_fill/Light-UI---Default" stroke="none" stroke-width="1" fill="none" fill-rule="evenodd">
        <path d="M16.0000001,19.0000001 L16.0000001,14.8739824 C14.2747728,14.4299397 13.0000001,12.8638395 13.0000001,10.9999999 L13.0000001,3.75 C13.0000001,3.33578645 13.3357864,3 13.7500001,3 L20.25,3 C20.6642136,3 21,3.33578645 21,3.75 L21,10.9999999 C21,12.8638395 19.7252273,14.4299397 18,14.8739824 L18,19.0000001 L18.2500001,19.0000001 C18.6642135,19.0000001 19.0000001,19.3357865 19.0000001,19.7500001 L19.0000001,20.25 C19.0000001,20.6642136 18.6642135,21 18.2500001,21 L15.75,21 C15.3357864,21 15,20.6642136 15,20.25 L15,19.7500001 C15,19.3357865 15.3357864,19.0000001 15.75,19.0000001 L16.0000001,19.0000001 Z M19.0000001,6.63975605 L19.0000001,5 L15,5 L15,7.97308938 L19.0000001,6.63975605 Z M6,19.0000001 L6,14.8739824 C4.27477278,14.4299397 3,12.8638395 3,10.9999999 L3,3.75 C3,3.33578645 3.33578645,3 3.75,3 L10.2499999,3 C10.6642136,3 10.9999999,3.33578645 10.9999999,3.75 L10.9999999,10.9999999 C10.9999999,12.8638395 9.7252272,14.4299397 8,14.8739824 L8,19.0000001 L8.25,19.0000001 C8.66421355,19.0000001 9,19.3357865 9,19.7500001 L9,20.25 C9,20.6642136 8.66421355,21 8.25,21 L5.75,21 C5.33578644,21 5,20.6642136 5,20.25 L5,19.7500001 C5,19.3357865 5.33578644,19.0000001 5.75,19.0000001 L6,19.0000001 Z M9,6.63975605 L9,5 L4.99999999,5 L4.99999999,7.97308938 L9,6.63975605 Z" id="ic_private_dining_fill" fill="#2D333F" fill-rule="nonzero"></path>
    </g>
</svg>