<svg width="16" height="20" viewBox="0 0 16 20" fill="none" xmlns="http://www.w3.org/2000/svg">
    <path fill-rule="evenodd" clip-rule="evenodd" d="M2 0C0.895431 0 0 0.895431 0 2V18C0 19.1046 0.895431 20 2 20H14C15.1046 20 16 19.1046 16 18V2C16 0.895431 15.1046 0 14 0H2ZM4.5 5C4.22386 5 4 5.22386 4 5.5V6.5C4 6.77614 4.22386 7 4.5 7H11.5C11.7761 7 12 6.77614 12 6.5V5.5C12 5.22386 11.7761 5 11.5 5H4.5ZM4 9.5C4 9.22386 4.22386 9 4.5 9H11.5C11.7761 9 12 9.22386 12 9.5V10.5C12 10.7761 11.7761 11 11.5 11H4.5C4.22386 11 4 10.7761 4 10.5V9.5ZM4.5 13C4.22386 13 4 13.2239 4 13.5V14.5C4 14.7761 4.22386 15 4.5 15H11.5C11.7761 15 12 14.7761 12 14.5V13.5C12 13.2239 11.7761 13 11.5 13H4.5Z" fill="#2D333F"/>
</svg>
