<svg width="12" height="21" viewBox="0 0 12 21" fill="none" xmlns="http://www.w3.org/2000/svg">
<path d="M4.10067 3.28188C4.20517 3.27164 4.28484 3.18378 4.28484 3.07878V0.506074C4.28484 0.337007 4.4219 0.199951 4.59097 0.199951H6.63178C6.80085 0.199951 6.93791 0.337007 6.93791 0.506074V3.07878C6.93791 3.18213 7.01517 3.26916 7.11779 3.28142C8.24806 3.41639 9.14446 3.67672 9.93035 3.94105C9.96876 3.95397 10.0058 3.96617 10.0415 3.97796C10.1655 4.01881 10.2742 4.05466 10.3734 4.09806C10.4985 4.15278 10.5838 4.20976 10.6392 4.27859C10.738 4.40118 10.8038 4.64583 10.586 5.25528L10.5848 5.2589L10.555 5.34817C10.5113 5.47984 10.4734 5.59388 10.4275 5.69608C10.3727 5.81811 10.3155 5.90107 10.2463 5.95537C10.1206 6.05405 9.87271 6.11712 9.26697 5.91339C8.2899 5.58476 6.80375 5.2716 5.45537 5.26738L5.40103 5.26738C5.23906 5.26789 5.07885 5.27294 4.92158 5.28309C4.18147 5.33087 3.61157 5.48572 3.23613 5.71957C3.07772 5.81824 2.94139 5.93675 2.83868 6.09409C2.73583 6.25165 2.67451 6.43617 2.64843 6.65571C2.57861 7.24352 2.65779 7.62542 2.77736 7.88353C2.89564 8.13885 3.09133 8.35503 3.39433 8.55011C4.0603 8.97889 5.05261 9.19934 6.28792 9.44182L6.40945 9.46565C6.95518 9.57254 7.5376 9.6867 8.07823 9.83282C8.65756 9.9894 9.26051 10.2004 9.78185 10.5288C10.3184 10.8667 10.7958 11.3473 11.0535 12.0327C11.3074 12.7083 11.3028 13.4634 11.1044 14.274C10.8251 15.4147 10.0288 16.1503 9.1126 16.584C8.44723 16.8989 7.86892 17.0705 7.11987 17.1521C7.01633 17.1634 6.93791 17.2509 6.93791 17.355V19.8938C6.93791 20.0629 6.80085 20.2 6.63178 20.2H4.59097C4.4219 20.2 4.28484 20.0629 4.28484 19.8938V17.3545C4.28484 17.2493 4.20486 17.1613 4.10012 17.1513C2.62534 17.0108 1.61185 16.6454 0.758905 16.1959L0.752064 16.1926C0.181128 15.9183 0.0596803 15.6957 0.0459393 15.5349C0.0381564 15.4439 0.0605587 15.3404 0.112842 15.2123C0.157047 15.104 0.215731 14.9935 0.282325 14.8681L0.32346 14.7905L0.33739 14.764C0.413653 14.6192 0.478999 14.4951 0.551289 14.3903C0.626743 14.2809 0.699487 14.2083 0.77961 14.1657C0.926532 14.0874 1.18449 14.0681 1.729 14.3551C2.08929 14.545 2.68216 14.7368 3.38028 14.882C4.08201 15.0279 4.90492 15.1297 5.72984 15.1325L5.79979 15.1325C5.89217 15.1322 5.98459 15.1306 6.07688 15.1277C6.94078 15.1004 7.68597 14.957 8.22231 14.7031C8.7369 14.4595 8.99145 14.1537 9.08315 13.7792C9.21454 13.2426 9.17032 12.937 9.10562 12.7649C9.04474 12.603 8.92449 12.448 8.67282 12.2895C8.40652 12.1218 8.03238 11.976 7.5353 11.8417C7.06789 11.7153 6.55455 11.6147 5.98959 11.5039L5.84887 11.4763C4.72017 11.2548 3.32049 10.9775 2.26786 10.2998C1.70542 9.93764 1.20609 9.44222 0.889223 8.75825C0.573621 8.07699 0.477378 7.29149 0.582047 6.41027C0.715568 5.28614 1.30593 4.47026 2.13597 3.95326C2.84723 3.51025 3.29198 3.36116 4.10067 3.28188Z" fill="#2D333F"/>
</svg>
