<?xml version="1.0" encoding="UTF-8"?>
<svg width="26px" height="26px" viewBox="0 0 26 26" version="1.1" xmlns="http://www.w3.org/2000/svg" xmlns:xlink="http://www.w3.org/1999/xlink">
    <!-- Generator: Sketch 50.2 (55047) - http://www.bohemiancoding.com/sketch -->
    <title>icon/ic_description</title>
    <desc>Created with Sketch.</desc>
    <defs></defs>
    <g id="icon/ic_description" stroke="none" stroke-width="1" fill="none" fill-rule="evenodd" transform="translate(13.000000, 2741.000000) scale(-1, 1) translate(-13.000000, -2741.000000) ">
        <path d="M7,2 L19,2 C20.1045695,2 21,2.8954305 21,4 L21,20 C21,21.1045695 20.1045695,22 19,22 L7,22 C5.8954305,22 5,21.1045695 5,20 L5,4 C5,2.8954305 5.8954305,2 7,2 Z M7,4 L7,20 L19,20 L19,4 L7,4 Z M9.5,7 L16.5,7 C16.7761424,7 17,7.22385763 17,7.5 L17,8.5 C17,8.77614237 16.7761424,9 16.5,9 L9.5,9 C9.22385763,9 9,8.77614237 9,8.5 L9,7.5 C9,7.22385763 9.22385763,7 9.5,7 Z M9.5,11 L16.5,11 C16.7761424,11 17,11.2238576 17,11.5 L17,12.5 C17,12.7761424 16.7761424,13 16.5,13 L9.5,13 C9.22385763,13 9,12.7761424 9,12.5 L9,11.5 C9,11.2238576 9.22385763,11 9.5,11 Z M9.5,15 L16.5,15 C16.7761424,15 17,15.2238576 17,15.5 L17,16.5 C17,16.7761424 16.7761424,17 16.5,17 L9.5,17 C9.22385763,17 9,16.7761424 9,16.5 L9,15.5 C9,15.2238576 9.22385763,15 9.5,15 Z" id="ic_description" fill="#2D333F"></path>
    </g>
</svg>