<?xml version="1.0" encoding="UTF-8"?>
<svg width="24px" height="24px" viewBox="0 0 24 24" version="1.1" xmlns="http://www.w3.org/2000/svg" xmlns:xlink="http://www.w3.org/1999/xlink">
    <!-- Generator: Sketch 51.2 (57519) - http://www.bohemiancoding.com/sketch -->
    <title>icon/ic_download</title>
    <desc>Created with Sketch.</desc>
    <defs></defs>
    <g id="icon/ic_download" stroke="none" stroke-width="1" fill="none" fill-rule="evenodd">
        <path d="M13,11.8210678 L14.4675144,10.3535534 C14.6627766,10.1582912 14.9793591,10.1582912 15.1746212,10.3535534 L15.881728,11.0606602 C16.0769901,11.2559223 16.0769901,11.5725048 15.881728,11.767767 L13.4068542,14.2426407 L12.3461941,15.3033009 C12.1509319,15.498563 11.8343494,15.498563 11.6390873,15.3033009 L8.10355339,11.767767 C7.90829124,11.5725048 7.90829124,11.2559223 8.10355339,11.0606602 L8.81066017,10.3535534 C9.00592231,10.1582912 9.32250481,10.1582912 9.51776695,10.3535534 L11,11.8357864 L11,4.5 C11,4.2238576 11.2238576,4 11.5,4 L12.5,4 C12.7761424,4 13,4.2238576 13,4.5 L13,11.8210678 Z M6,18 L18,18 L18,15 C18,14.4477153 18.4477153,14 19,14 C19.5522847,14 20,14.4477153 20,15 L20,19 C20,19.5522847 19.5522847,20 19,20 L5,20 C4.44771525,20 4,19.5522847 4,19 L4,15 C4,14.4477153 4.44771525,14 5,14 C5.55228475,14 6,14.4477153 6,15 L6,18 Z" id="ic_download" fill="#2D333F" fill-rule="nonzero"></path>
    </g>
</svg>