<?xml version="1.0" encoding="UTF-8"?>
<svg width="24px" height="24px" viewBox="0 0 24 24" version="1.1" xmlns="http://www.w3.org/2000/svg" xmlns:xlink="http://www.w3.org/1999/xlink">
    <!-- Generator: Sketch 50.2 (55047) - http://www.bohemiancoding.com/sketch -->
    <title>icon/ic_dietary</title>
    <desc>Created with Sketch.</desc>
    <defs></defs>
    <g id="icon/ic_dietary" stroke="none" stroke-width="1" fill="none" fill-rule="evenodd">
        <path d="M13.054683,19.1700051 C13.4327012,19.1429207 15.1877694,18.2128576 15.4789731,17.708478 C15.6897312,17.3434343 15.7128078,16.2043491 15.6451848,15.4727336 C14.5991938,16.2399369 13.7320168,16.6325119 13.0436538,16.6504586 C13.1867303,17.6932544 13.1904067,18.5331032 13.054683,19.1700051 Z M8.89880018,13.3463714 C9.54434451,13.3116951 10.3595119,13.6323914 11.3443024,14.3084602 C11.3279462,13.7687512 11.3751574,13.136497 11.485936,12.4116976 C11.4712181,12.3732071 11.4554372,12.3390382 11.4385538,12.3097952 C11.1279204,11.7717625 9.1922662,10.7199386 8.99746858,10.8324051 C8.83314531,10.9272772 8.73787028,12.5252963 8.89880018,13.3463714 Z M7.64357815,14.210715 C7.58312309,14.0667907 7.53930513,13.915278 7.51374608,13.7589851 C7.24636413,12.1239519 7.28964149,10.9411952 7.64357815,10.210715 C7.58312309,10.0667907 7.53930513,9.91527801 7.51374608,9.75898511 C7.1350033,7.44298351 7.37957746,6.03444413 8.24746858,5.53336696 C8.56916031,5.34763815 8.9560052,5.2984099 9.40800324,5.3856822 C9.33590633,5.02129469 9.36631718,4.64166588 9.49923581,4.29013602 L9.49922509,4.29013197 C10.3292371,2.09501238 11.2453142,0.997468576 12.2474686,0.997468576 C13.2496278,0.997468576 14.1657089,2.09502304 14.9957121,4.29013197 L14.9957013,4.29013602 C15.1286303,4.64172203 15.1590253,5.02132296 15.0869272,5.38568349 C15.5389282,5.29840942 15.9257753,5.34763724 16.2474686,5.53336696 C17.1153597,6.03444413 17.3599339,7.44298351 16.9811911,9.75898511 C16.955632,9.91527801 16.9118141,10.0667907 16.851359,10.210715 C17.2052957,10.9411952 17.248573,12.1239519 16.9811911,13.7589851 C16.955632,13.915278 16.9118141,14.0667907 16.851359,14.210715 C17.2052957,14.9411952 17.248573,16.1239519 16.9811911,17.7589851 C16.9025436,18.2399121 16.6510123,18.675578 16.2738489,18.9841618 C15.0496235,19.9857382 14.0408301,20.5359692 13.2474686,20.6348548 L13.2474686,21.9974686 C13.2474686,22.5497533 12.7997533,22.9974686 12.2474686,22.9974686 C11.6951838,22.9974686 11.2474686,22.5497533 11.2474686,21.9974686 L11.2474686,20.6348548 C10.4541071,20.5359692 9.44531362,19.9857382 8.2210882,18.9841618 C7.84392483,18.675578 7.59239353,18.2399121 7.51374608,17.7589851 C7.24636413,16.1239519 7.28964149,14.9411952 7.64357815,14.210715 Z M12.8611073,10.5138846 C13.9766862,9.69752343 14.8883628,9.30835237 15.596137,9.34637144 C15.7570669,8.52529628 15.6617918,6.92727715 15.4974686,6.83240507 C15.302671,6.71993861 13.3670167,7.77176248 13.0563834,8.30979521 C12.847391,8.67178064 12.8073448,9.78855727 12.8611073,10.5138846 Z M8.89880018,9.34637144 C9.54434451,9.31169513 10.3595119,9.63239138 11.3443024,10.3084602 C11.3279462,9.76875123 11.3751574,9.13649702 11.485936,8.41169756 C11.4712181,8.37320706 11.4554372,8.33903817 11.4385538,8.30979521 C11.1279204,7.77176248 9.1922662,6.71993861 8.99746858,6.83240507 C8.83314531,6.92727715 8.73787028,8.52529628 8.89880018,9.34637144 Z M13.0914651,6.34936629 C13.3774978,5.83624451 13.6228153,5.28354393 13.6228153,4.99746858 C13.6228153,4.37620189 12.4724015,2.49746858 12.2474686,2.49746858 C12.0225357,2.49746858 10.8254497,4.37535415 10.8254497,4.99746858 C10.8254497,5.27824112 11.0706199,5.8148011 11.3597348,6.31907424 C11.6417823,6.5134157 11.9376935,6.73680278 12.2474686,6.98923546 C12.5412718,6.74981806 12.822604,6.53652834 13.0914651,6.34936629 Z M12.9974686,15.1625321 C13.1865844,15.2717182 15.1679159,14.2472449 15.4789731,13.708478 C15.7900303,13.1697111 15.6922662,10.9448715 15.4974686,10.8324051 C15.302671,10.7199386 13.3670167,11.7717625 13.0563834,12.3097952 C12.74575,12.8478279 12.8083528,15.053346 12.9974686,15.1625321 Z M11.4974686,19.1625321 C11.6865844,19.053346 11.7491871,16.8478279 11.4385538,16.3097952 C11.1279204,15.7717625 9.1922662,14.7199386 8.99746858,14.8324051 C8.80267095,14.9448715 8.70490686,17.1697111 9.01596407,17.708478 C9.32702128,18.2472449 11.3083528,19.2717182 11.4974686,19.1625321 Z" id="ic_dietary" fill="#2D333F" transform="translate(12.247469, 11.997469) rotate(45.000000) translate(-12.247469, -11.997469) "></path>
    </g>
</svg>