<?xml version="1.0" encoding="UTF-8"?>
<svg width="24px" height="24px" viewBox="0 0 24 24" version="1.1" xmlns="http://www.w3.org/2000/svg" xmlns:xlink="http://www.w3.org/1999/xlink">
    <!-- Generator: Sketch 51.1 (57501) - http://www.bohemiancoding.com/sketch -->
    <title>Icon/Fill/ic_dessert_fill</title>
    <desc>Created with Sketch.</desc>
    <defs></defs>
    <g id="Icon/Fill/ic_dessert_fill" stroke="none" stroke-width="1" fill="none" fill-rule="evenodd">
        <path d="M12,21 C7.02943725,21 3,16.9705627 3,12 C3,7.02943725 7.02943725,3 12,3 C16.9705627,3 21,7.02943725 21,12 C21,16.9705627 16.9705627,21 12,21 Z M8.56449771,16.096 C8.91649771,16.528 9.87649771,17.52 11.9564977,17.52 C14.2284977,17.52 15.7964977,16.064 15.7964977,14.272 C15.7964977,12.752 14.7084977,11.92 13.8124977,11.616 L13.8124977,11.552 C14.5484977,11.216 15.5084977,10.288 15.5084977,9.024 C15.5084977,7.168 13.8604977,6 11.9404977,6 C10.3564977,6 9.36449771,6.864 8.78849771,7.456 C8.67649771,7.568 8.66049771,7.776 8.78849771,7.888 L9.79649771,8.88 C9.94049771,8.992 10.1324977,8.992 10.2444977,8.848 C10.5004977,8.576 10.9484977,8.192 11.6844977,8.192 C12.5164977,8.192 12.9964977,8.72 12.9964977,9.44 C12.9964977,10.144 12.3884977,10.688 11.2364977,10.688 L10.3084977,10.688 C10.1484977,10.688 10.0044977,10.816 10.0044977,10.992 L10.0044977,12.368 C10.0044977,12.528 10.1484977,12.672 10.3084977,12.672 L11.2364977,12.672 C12.4524977,12.672 13.1884977,13.2 13.1884977,14.016 C13.1884977,14.832 12.5804977,15.328 11.7644977,15.328 C10.9164977,15.328 10.3564977,14.912 9.95649771,14.576 C9.82849771,14.464 9.65249771,14.496 9.54049771,14.608 L8.58049771,15.68 C8.48449771,15.792 8.46849771,15.968 8.56449771,16.096 Z" id="ic_dessert_fill" fill="#2D333F"></path>
    </g>
</svg>