<svg width="24" height="24" viewBox="0 0 24 24" fill="none" xmlns="http://www.w3.org/2000/svg">
<path fill-rule="evenodd" clip-rule="evenodd" d="M6 2C4.89543 2 4 2.89543 4 4V20C4 21.1046 4.89543 22 6 22H18C19.1046 22 20 21.1046 20 20V4C20 2.89543 19.1046 2 18 2H6ZM8.5 7C8.22386 7 8 7.22386 8 7.5V8.5C8 8.77614 8.22386 9 8.5 9H15.5C15.7761 9 16 8.77614 16 8.5V7.5C16 7.22386 15.7761 7 15.5 7H8.5ZM8 11.5C8 11.2239 8.22386 11 8.5 11H15.5C15.7761 11 16 11.2239 16 11.5V12.5C16 12.7761 15.7761 13 15.5 13H8.5C8.22386 13 8 12.7761 8 12.5V11.5ZM8.5 15C8.22386 15 8 15.2239 8 15.5V16.5C8 16.7761 8.22386 17 8.5 17H15.5C15.7761 17 16 16.7761 16 16.5V15.5C16 15.2239 15.7761 15 15.5 15H8.5Z" fill="#2D333F"/>
</svg>
