<?xml version="1.0" encoding="UTF-8"?>
<svg width="24px" height="24px" viewBox="0 0 24 24" version="1.1" xmlns="http://www.w3.org/2000/svg" xmlns:xlink="http://www.w3.org/1999/xlink" style="background: #FFFFFF;">
    <!-- Generator: Sketch 49.3 (51167) - http://www.bohemiancoding.com/sketch -->
    <title>icon/ic_dress_code</title>
    <desc>Created with Sketch.</desc>
    <defs></defs>
    <g id="icon/ic_dress_code" stroke="none" stroke-width="1" fill="none" fill-rule="evenodd">
        <path d="M17.58,11.53 C17.4266401,11.1416536 17.3986659,10.7150477 17.5,10.31 L18.68,5.66 C18.9359464,4.6576009 18.3851789,3.62545408 17.41,3.28 L14,2.09 L13.68,3.09 C13.47,3.72 12.89,4.04 11.95,4.04 C11.01,4.04 10.45,3.72 10.24,3.1 L9.92,2.1 L6.59,3.28 C5.61955417,3.62512239 5.06991046,4.65083545 5.32,5.65 L6.49,10.3 C6.59133406,10.7050477 6.5633599,11.1316536 6.41,11.52 L3.08,20 L4.01,20.36 C6.55296711,21.3932302 9.265496,21.9459079 12.01,21.99 C14.7522514,21.9642714 17.4642871,21.4143968 20,20.37 L20.92,20 L17.58,11.53 Z M8.85,4.6 C9.60629927,5.55574661 10.7837814,6.07907199 12,6 C13.2152867,6.07388266 14.3904734,5.55157745 15.15,4.6 L16.74,5.16 L15.56,9.81 C15.56,9.87 15.56,9.93 15.56,10 L8.46,10 C8.46,9.94 8.46,9.88 8.46,9.81 L7.25,5.16 L8.85,4.6 Z M12.05,20 C9.87756989,19.9727298 7.72482585,19.5840868 5.68,18.85 L8.27,12.26 C8.27,12.17 8.32,12.09 8.35,12 L15.63,12 C15.63,12.09 15.63,12.17 15.71,12.26 L18.31,18.86 C16.3022506,19.5891869 14.1859133,19.9745901 12.05,20 Z" id="ic_dress" fill="#333333" fill-rule="nonzero"></path>
    </g>
</svg>