<?xml version="1.0" encoding="UTF-8"?>
<svg width="24px" height="24px" viewBox="0 0 24 24" version="1.1" xmlns="http://www.w3.org/2000/svg" xmlns:xlink="http://www.w3.org/1999/xlink">
    <!-- Generator: Sketch 49.3 (51167) - http://www.bohemiancoding.com/sketch -->
    <title>icon/ic_description</title>
    <desc>Created with Sketch.</desc>
    <defs></defs>
    <g id="icon/ic_description" stroke="none" stroke-width="1" fill="none" fill-rule="evenodd">
        <path d="M6,2 L18,2 C19.1045695,2 20,2.8954305 20,4 L20,20 C20,21.1045695 19.1045695,22 18,22 L6,22 C4.8954305,22 4,21.1045695 4,20 L4,4 C4,2.8954305 4.8954305,2 6,2 Z M6,4 L6,20 L18,20 L18,4 L6,4 Z M8.5,7 L15.5,7 C15.7761424,7 16,7.22385763 16,7.5 L16,8.5 C16,8.77614237 15.7761424,9 15.5,9 L8.5,9 C8.22385763,9 8,8.77614237 8,8.5 L8,7.5 C8,7.22385763 8.22385763,7 8.5,7 Z M8.5,11 L15.5,11 C15.7761424,11 16,11.2238576 16,11.5 L16,12.5 C16,12.7761424 15.7761424,13 15.5,13 L8.5,13 C8.22385763,13 8,12.7761424 8,12.5 L8,11.5 C8,11.2238576 8.22385763,11 8.5,11 Z M8.5,15 L15.5,15 C15.7761424,15 16,15.2238576 16,15.5 L16,16.5 C16,16.7761424 15.7761424,17 15.5,17 L8.5,17 C8.22385763,17 8,16.7761424 8,16.5 L8,15.5 C8,15.2238576 8.22385763,15 8.5,15 Z" id="ic_description" fill="#333333"></path>
    </g>
</svg>