<?xml version="1.0" encoding="UTF-8"?>
<svg width="24px" height="24px" viewBox="0 0 24 24" version="1.1" xmlns="http://www.w3.org/2000/svg" xmlns:xlink="http://www.w3.org/1999/xlink">
    <!-- Generator: Sketch 50.2 (55047) - http://www.bohemiancoding.com/sketch -->
    <title>icon/ic_delete</title>
    <desc>Created with Sketch.</desc>
    <defs></defs>
    <g id="icon/ic_delete" stroke="none" stroke-width="1" fill="none" fill-rule="evenodd">
        <path d="M19,7 L19,18 C19,20.209139 17.209139,22 15,22 L9,22 C6.790861,22 5,20.209139 5,18 L5,7 C4.44771525,7 4,6.55228475 4,6 C4,5.44771525 4.44771525,5 5,5 L7,5 L7,4.5 C7,3.11928813 8.11928813,2 9.5,2 L14.5,2 C15.8807119,2 17,3.11928813 17,4.5 L17,5 L19,5 C19.5522847,5 20,5.44771525 20,6 C20,6.55228475 19.5522847,7 19,7 Z M7,7 L7,18 C7,19.1045695 7.8954305,20 9,20 L15,20 C16.1045695,20 17,19.1045695 17,18 L17,7 L7,7 Z M15,5 C15,4.44771525 14.5522847,4 14,4 L10,4 C9.44771525,4 9,4.44771525 9,5 L15,5 Z M10,9 C10.5522847,9 11,9.44771525 11,10 L11,17 C11,17.5522847 10.5522847,18 10,18 C9.44771525,18 9,17.5522847 9,17 L9,10 C9,9.44771525 9.44771525,9 10,9 Z M14,9 C14.5522847,9 15,9.44771525 15,10 L15,17 C15,17.5522847 14.5522847,18 14,18 C13.4477153,18 13,17.5522847 13,17 L13,10 C13,9.44771525 13.4477153,9 14,9 Z" id="ic_delete" fill="#2D333F"></path>
    </g>
</svg>