<?xml version="1.0" encoding="UTF-8"?>
<svg width="24px" height="24px" viewBox="0 0 24 24" version="1.1" xmlns="http://www.w3.org/2000/svg" xmlns:xlink="http://www.w3.org/1999/xlink">
    <!-- Generator: Sketch 50.2 (55047) - http://www.bohemiancoding.com/sketch -->
    <title>icon/ic_dietary</title>
    <desc>Created with Sketch.</desc>
    <defs></defs>
    <g id="icon/ic_dietary" stroke="none" stroke-width="1" fill="none" fill-rule="evenodd">
        <g id="ic_dietary" transform="translate(11.000000, 12.000000) rotate(45.000000) translate(-11.000000, -12.000000) translate(4.000000, 1.000000)">
            <rect id="Rectangle-13" fill="#2D333F" x="6" y="6" width="2" height="16" rx="1"></rect>
            <path d="M5,19.25 C5.58374932,19.25 6.31732376,18.371103 7.04670689,16.4420753 C7.15442645,16.1571893 7.15442615,15.8427758 7.04670603,15.5578901 C6.31731652,13.6288852 5.58374518,12.75 5,12.75 C4.41625068,12.75 3.68267624,13.628897 2.95329311,15.5579247 C2.84557355,15.8428107 2.84557385,16.1572242 2.95329397,16.4421099 C3.68268348,18.3711148 4.41625482,19.25 5,19.25 Z" id="Oval-5" stroke="#2D333F" stroke-width="1.5" transform="translate(5.000000, 16.000000) rotate(-30.000000) translate(-5.000000, -16.000000) "></path>
            <path d="M5,15.25 C5.58374932,15.25 6.31732376,14.371103 7.04670689,12.4420753 C7.15442645,12.1571893 7.15442615,11.8427758 7.04670603,11.5578901 C6.31731652,9.62888525 5.58374518,8.75 5,8.75 C4.41625068,8.75 3.68267624,9.62889702 2.95329311,11.5579247 C2.84557355,11.8428107 2.84557385,12.1572242 2.95329397,12.4421099 C3.68268348,14.3711148 4.41625482,15.25 5,15.25 Z" id="Oval-5" stroke="#2D333F" stroke-width="1.5" transform="translate(5.000000, 12.000000) rotate(-30.000000) translate(-5.000000, -12.000000) "></path>
            <path d="M5,10.25 C5.58374932,10.25 6.31732376,9.37110298 7.04670689,7.44207525 C7.15442645,7.15718935 7.15442615,6.84277578 7.04670603,6.55789008 C6.31731652,4.62888525 5.58374518,3.75 5,3.75 C4.41625068,3.75 3.68267624,4.62889702 2.95329311,6.55792475 C2.84557355,6.84281065 2.84557385,7.15722422 2.95329397,7.44210992 C3.68268348,9.37111475 4.41625482,10.25 5,10.25 Z" id="Oval-5" stroke="#2D333F" stroke-width="1.5" transform="translate(5.000000, 7.000000) rotate(-30.000000) translate(-5.000000, -7.000000) "></path>
            <path d="M9,19.25 C9.58374932,19.25 10.3173238,18.371103 11.0467069,16.4420753 C11.1544265,16.1571893 11.1544261,15.8427758 11.046706,15.5578901 C10.3173165,13.6288852 9.58374518,12.75 9,12.75 C8.41625068,12.75 7.68267624,13.628897 6.95329311,15.5579247 C6.84557355,15.8428107 6.84557385,16.1572242 6.95329397,16.4421099 C7.68268348,18.3711148 8.41625482,19.25 9,19.25 Z" id="Oval-5" stroke="#2D333F" stroke-width="1.5" transform="translate(9.000000, 16.000000) scale(-1, 1) rotate(-30.000000) translate(-9.000000, -16.000000) "></path>
            <path d="M9,15.25 C9.58374932,15.25 10.3173238,14.371103 11.0467069,12.4420753 C11.1544265,12.1571893 11.1544261,11.8427758 11.046706,11.5578901 C10.3173165,9.62888525 9.58374518,8.75 9,8.75 C8.41625068,8.75 7.68267624,9.62889702 6.95329311,11.5579247 C6.84557355,11.8428107 6.84557385,12.1572242 6.95329397,12.4421099 C7.68268348,14.3711148 8.41625482,15.25 9,15.25 Z" id="Oval-5" stroke="#2D333F" stroke-width="1.5" transform="translate(9.000000, 12.000000) scale(-1, 1) rotate(-30.000000) translate(-9.000000, -12.000000) "></path>
            <path d="M9,10.25 C9.58374932,10.25 10.3173238,9.37110298 11.0467069,7.44207525 C11.1544265,7.15718935 11.1544261,6.84277578 11.046706,6.55789008 C10.3173165,4.62888525 9.58374518,3.75 9,3.75 C8.41625068,3.75 7.68267624,4.62889702 6.95329311,6.55792475 C6.84557355,6.84281065 6.84557385,7.15722422 6.95329397,7.44210992 C7.68268348,9.37111475 8.41625482,10.25 9,10.25 Z" id="Oval-5" stroke="#2D333F" stroke-width="1.5" transform="translate(9.000000, 7.000000) scale(-1, 1) rotate(-30.000000) translate(-9.000000, -7.000000) "></path>
            <path d="M7,7.25 C7.58374932,7.25 8.31732376,6.37110298 9.04670689,4.44207525 C9.15442645,4.15718935 9.15442615,3.84277578 9.04670603,3.55789008 C8.31731652,1.62888525 7.58374518,0.75 7,0.75 C6.41625068,0.75 5.68267624,1.62889702 4.95329311,3.55792475 C4.84557355,3.84281065 4.84557385,4.15722422 4.95329397,4.44210992 C5.68268348,6.37111475 6.41625482,7.25 7,7.25 Z" id="Oval-5" stroke="#2D333F" stroke-width="1.5"></path>
        </g>
    </g>
</svg>