<?xml version="1.0" encoding="UTF-8"?>
<svg width="24px" height="24px" viewBox="0 0 24 24" version="1.1" xmlns="http://www.w3.org/2000/svg" xmlns:xlink="http://www.w3.org/1999/xlink">
    <!-- Generator: Sketch 49.3 (51167) - http://www.bohemiancoding.com/sketch -->
    <title>icon/ic_dining_style</title>
    <desc>Created with Sketch.</desc>
    <defs></defs>
    <g id="icon/ic_dining_style" stroke="none" stroke-width="1" fill="none" fill-rule="evenodd">
        <path d="M11,20 L11,18 L5,18 C4.44771525,18 4,17.5522847 4,17 L4,16.5 C4,16.2238576 4.22385763,16 4.5,16 L19.5,16 C19.7761424,16 20,16.2238576 20,16.5 L20,17 C20,17.5522847 19.5522847,18 19,18 L13,18 L13,20 L14.5,20 C14.7761424,20 15,20.2238576 15,20.5 L15,21.5 C15,21.7761424 14.7761424,22 14.5,22 L9.5,22 C9.22385763,22 9,21.7761424 9,21.5 L9,20.5 C9,20.2238576 9.22385763,20 9.5,20 L11,20 Z M9.00417359,5.4035781 C9.00139886,5.34650803 9,5.28913741 9,5.23151007 C9,3.44679634 10.3431457,2 12,2 C13.6568543,2 15,3.44679634 15,5.23151007 C15,5.28914395 14.9986008,5.34652105 14.9958255,5.40359753 C18.4009049,6.45156941 20.0249274,9.56291275 19.9997109,15 L4.00029014,14.9999824 C3.97502821,9.56287514 5.5990558,6.45153039 9.00417359,5.4035781 Z M11.0648956,5.03309447 C11.3666212,5.01099572 11.6782939,5 11.9999677,5 C12.3216638,5 12.6333575,5.01099726 12.9351029,5.0330991 C12.9775121,4.90683455 13,4.77109821 13,4.63102852 C13,4.00637872 12.5522848,3.5 12,3.5 C11.4477152,3.5 11,4.00637872 11,4.63102852 C11,4.7710965 11.0224873,4.90683124 11.0648956,5.03309447 Z M17.9997832,13 C18.0235785,8.89548434 16.0892795,7 11.9999758,7 C7.91067197,7 5.97637963,8.89548371 6.00021761,12.9999894 L17.9997832,13 Z" id="ic_dining_style" fill="#333333"></path>
    </g>
</svg>