<svg width="24" height="24" viewBox="0 0 24 24" fill="none" xmlns="http://www.w3.org/2000/svg">
<path fill-rule="evenodd" clip-rule="evenodd" d="M17 4C17 3.44772 16.5523 3 16 3C15.4477 3 15 3.44772 15 4C15 5.65685 13.6569 7 12 7C11.4477 7 11 7.44772 11 8C11 8.55228 11.4477 9 12 9C13.6569 9 15 10.3431 15 12C15 12.5523 15.4477 13 16 13C16.5523 13 17 12.5523 17 12C17 10.3431 18.3432 9 20 9C20.5523 9 21 8.55228 21 8C21 7.44772 20.5523 7 20 7C18.3432 7 17 5.65685 17 4ZM15.0005 8C15.3789 7.71568 15.7157 7.37891 16 7.00049C16.2843 7.37891 16.6211 7.71568 16.9995 8C16.6211 8.28432 16.2843 8.62109 16 8.99951C15.7157 8.62109 15.3789 8.28432 15.0005 8ZM3.07047 15.6313C3.22162 15.2502 3.59006 15 4.00004 15H20C20.41 15 20.7785 15.2502 20.9296 15.6313C21.0807 16.0124 20.984 16.4472 20.6854 16.7282C19.1721 18.1526 17.1852 19.1916 14.9487 19.6829C14.982 19.7825 15 19.8891 15 20C15 20.5523 14.5523 21 14 21H10C9.44775 21 9.00003 20.5523 9.00003 20C9.00003 19.8891 9.01807 19.7825 9.05137 19.6829C6.81484 19.1916 4.82796 18.1526 3.31464 16.7282C3.01611 16.4472 2.91933 16.0124 3.07047 15.6313ZM7.28528 17C8.67329 17.6338 10.279 18 12 18C13.7211 18 15.3268 17.6338 16.7148 17H7.28528ZM11 4.5C11 5.32843 10.3285 6 9.50003 6C8.6716 6 8.00003 5.32843 8.00003 4.5C8.00003 3.67157 8.6716 3 9.50003 3C10.3285 3 11 3.67157 11 4.5ZM7.00003 8C7.00003 7.44772 6.55232 7 6.00003 7C5.44775 7 5.00003 7.44772 5.00003 8V9H4.00003C3.44775 9 3.00003 9.44772 3.00003 10C3.00003 10.5523 3.44775 11 4.00003 11H5.00003V12C5.00003 12.5523 5.44775 13 6.00003 13C6.55232 13 7.00003 12.5523 7.00003 12V11H8.00003C8.55232 11 9.00003 10.5523 9.00003 10C9.00003 9.44772 8.55232 9 8.00003 9H7.00003V8Z" fill="#2D333F"/>
</svg>
