<?xml version="1.0" encoding="UTF-8"?>
<svg width="24px" height="24px" viewBox="0 0 24 24" version="1.1" xmlns="http://www.w3.org/2000/svg" xmlns:xlink="http://www.w3.org/1999/xlink">
    <!-- Generator: Sketch 51.1 (57501) - http://www.bohemiancoding.com/sketch -->
    <title>Icon/Fill/ic_entree_fill</title>
    <desc>Created with Sketch.</desc>
    <defs></defs>
    <g id="Icon/Fill/ic_entree_fill" stroke="none" stroke-width="1" fill="none" fill-rule="evenodd">
        <path d="M12,21 C7.02943725,21 3,16.9705627 3,12 C3,7.02943725 7.02943725,3 12,3 C16.9705627,3 21,7.02943725 21,12 C21,16.9705627 16.9705627,21 12,21 Z M12.624,14.856 C13.392,13.768 14.736,12.024 15.248,11.096 C15.648,10.328 15.888,9.848 15.888,8.968 C15.888,7.144 14.496,5.64 12.144,5.64 C10.512,5.64 9.472,6.584 8.848,7.256 C8.736,7.384 8.752,7.592 8.864,7.688 L9.872,8.712 C10,8.84 10.208,8.84 10.336,8.712 C10.768,8.296 11.264,7.88 11.936,7.88 C12.848,7.88 13.376,8.44 13.376,9.08 C13.376,9.528 13.168,9.976 12.96,10.312 C12.048,11.704 9.856,14.68 8.8,16.088 C8.592,16.36 8.592,16.392 8.592,16.552 L8.592,16.68 C8.592,16.856 8.72,17 8.896,17 L15.488,17 C15.664,17 15.808,16.856 15.808,16.68 L15.808,15.208 C15.808,15.032 15.664,14.888 15.488,14.888 L12.624,14.888 L12.624,14.856 Z" id="ic_entree_fill" fill="#2D333F"></path>
    </g>
</svg>