<?xml version="1.0" encoding="UTF-8"?>
<svg width="24px" height="24px" viewBox="0 0 24 24" version="1.1" xmlns="http://www.w3.org/2000/svg" xmlns:xlink="http://www.w3.org/1999/xlink">
    <!-- Generator: Sketch 50.2 (55047) - http://www.bohemiancoding.com/sketch -->
    <title>icon/ic_edit</title>
    <desc>Created with Sketch.</desc>
    <defs></defs>
    <g id="icon/ic_edit" stroke="none" stroke-width="1" fill="none" fill-rule="evenodd">
        <path d="M8.5,3 C8.77614,3 9,3.223846 9,3.5 L9,4.5 C9,4.77615 8.77614,5 8.5,5 L5,5 L5,19 L19,19 L19,15.5 C19,15.2238 19.2239,15 19.5,15 L20.5,15 C20.7761,15 21,15.2238 21,15.5 L21,19 C21,20.1046 20.1046,21 19,21 L5,21 C3.895432,21 3,20.1046 3,19 L3,5 C3,3.895416 3.895432,3 5,3 L8.5,3 Z M16.6066,4.70709 C16.9971,4.31659 17.6303,4.31659 18.0208,4.70709 L19.435,6.12131 C19.8255,6.51184 19.8255,7.14502 19.435,7.53552 L18.7279,8.24265 L15.8995,5.41422 L16.6066,4.70709 Z M8.22837,13.0853 L15.1924,6.12131 L18.0208,8.94974 L11.05679,15.9138 C10.98699,15.9836 10.89809,16.0312 10.8013,16.0505 L9.62453,16.2859 L8.4306,16.5247 C7.94708,16.6213 7.52078,16.195 7.61748,15.7115 L7.85628,14.5176 L8.09163,13.3409 C8.11099,13.244 8.15857,13.1552 8.22837,13.0853 Z" id="ic_edit" fill="#2D333F" fill-rule="nonzero"></path>
    </g>
</svg>