<?xml version="1.0" encoding="UTF-8"?>
<svg width="24px" height="24px" viewBox="0 0 24 24" version="1.1" xmlns="http://www.w3.org/2000/svg" xmlns:xlink="http://www.w3.org/1999/xlink">
    <!-- Generator: Sketch 50.2 (55047) - http://www.bohemiancoding.com/sketch -->
    <title>icon/ic_email</title>
    <desc>Created with Sketch.</desc>
    <defs></defs>
    <g id="icon/ic_email" stroke="none" stroke-width="1" fill="none" fill-rule="evenodd">
        <path d="M19,9 L19,7 L5,7 L5,9 L11.5527864,12.2763932 C11.8343139,12.4171569 12.1656861,12.4171569 12.4472136,12.2763932 L19,9 Z M19,11.5 L12.4472136,14.7763932 C12.1656861,14.9171569 11.8343139,14.9171569 11.5527864,14.7763932 L5,11.5 L5,17 L19,17 L19,11.5 Z M5,5 L19,5 C20.1045695,5 21,5.8954305 21,7 L21,17 C21,18.1045695 20.1045695,19 19,19 L5,19 C3.8954305,19 3,18.1045695 3,17 L3,7 C3,5.8954305 3.8954305,5 5,5 Z" id="ic_email" fill="#2D333F"></path>
    </g>
</svg>