<?xml version="1.0" encoding="UTF-8"?>
<svg width="24px" height="24px" viewBox="0 0 24 24" version="1.1" xmlns="http://www.w3.org/2000/svg" xmlns:xlink="http://www.w3.org/1999/xlink">
    <!-- Generator: Sketch 51.1 (57501) - http://www.bohemiancoding.com/sketch -->
    <title>icon/ic_export</title>
    <desc>Created with Sketch.</desc>
    <defs></defs>
    <g id="icon/ic_export" stroke="none" stroke-width="1" fill="none" fill-rule="evenodd">
        <path d="M13,6.83578644 L13,14.5 C13,14.7761424 12.7761424,15 12.5,15 L11.5,15 C11.2238576,15 11,14.7761424 11,14.5 L11,6.82106781 L9.51776695,8.30330086 C9.32250481,8.498563 9.00592231,8.498563 8.81066017,8.30330086 L8.10355339,7.59619408 C7.90829124,7.40093193 7.90829124,7.08434944 8.10355339,6.8890873 L11.6390873,3.35355339 C11.8343494,3.15829125 12.1509319,3.15829124 12.3461941,3.35355339 L13.4068542,4.41421356 L15.881728,6.8890873 C16.0769901,7.08434944 16.0769901,7.40093194 15.881728,7.59619408 L15.1746212,8.30330086 C14.9793591,8.498563 14.6627766,8.498563 14.4675144,8.30330086 L13,6.83578644 Z M18,19 L18,12 L16.5,12 C16.2238576,12 16,11.7761424 16,11.5 L16,10.5 C16,10.2238576 16.2238576,10 16.5,10 L19,10 C19.5522847,10 20,10.4477153 20,11 L20,20 C20,20.5522847 19.5522847,21 19,21 L5,21 C4.44771525,21 4,20.5522847 4,20 L4,11 C4,10.4477153 4.44771525,10 5,10 L7.5,10 C7.77614237,10 8,10.2238576 8,10.5 L8,11.5 C8,11.7761424 7.77614237,12 7.5,12 L6,12 L6,19 L18,19 Z" id="ic_share" fill="#2D333F" fill-rule="nonzero" transform="translate(12.000000, 12.103553) scale(1, -1) translate(-12.000000, -12.103553) "></path>
    </g>
</svg>