<svg width="24" height="24" viewBox="0 0 24 24" fill="none" xmlns="http://www.w3.org/2000/svg">
<path fill-rule="evenodd" clip-rule="evenodd" d="M2.08689 15.5923C2.24777 15.232 2.60544 15 2.99999 15H21C21.3945 15 21.7522 15.232 21.9131 15.5923C22.074 15.9525 22.008 16.3737 21.7446 16.6675C19.9843 18.6313 17.6219 20.0584 14.9442 20.6698C14.9803 20.7732 15 20.8843 15 21C15 21.5523 14.5523 22 14 22H10C9.44772 22 9 21.5523 9 21C9 20.8843 9.01966 20.7732 9.05581 20.6698C6.37804 20.0584 4.01573 18.6313 2.25537 16.6675C1.99201 16.3737 1.92602 15.9525 2.08689 15.5923ZM5.62542 17C7.42301 18.2591 9.62234 19 12 19C14.3776 19 16.577 18.2591 18.3746 17L5.62542 17Z" fill="#2D333F"/>
<path fill-rule="evenodd" clip-rule="evenodd" d="M17 3C17 2.44772 16.5523 2 16 2C15.4477 2 15 2.44772 15 3C15 5.20914 13.2091 7 11 7C10.4477 7 10 7.44772 10 8C10 8.55228 10.4477 9 11 9C13.2091 9 15 10.7909 15 13C15 13.5523 15.4477 14 16 14C16.5523 14 17 13.5523 17 13C17 10.7909 18.7909 9 21 9C21.5523 9 22 8.55228 22 8C22 7.44772 21.5523 7 21 7C18.7909 7 17 5.20914 17 3ZM14.3178 8C14.9842 7.55693 15.5569 6.98418 16 6.31779C16.4431 6.98418 17.0158 7.55693 17.6822 8C17.0158 8.44307 16.4431 9.01582 16 9.68221C15.5569 9.01582 14.9842 8.44307 14.3178 8Z" fill="#2D333F"/>
<path d="M9 4.5C9 5.32843 8.32843 6 7.5 6C6.67157 6 6 5.32843 6 4.5C6 3.67157 6.67157 3 7.5 3C8.32843 3 9 3.67157 9 4.5Z" fill="#2D333F"/>
<path d="M6 8C6 7.44772 5.55228 7 5 7C4.44772 7 4 7.44772 4 8L4 9H3C2.44772 9 2 9.44772 2 10C2 10.5523 2.44772 11 3 11H4V12C4 12.5523 4.44772 13 5 13C5.55228 13 6 12.5523 6 12V11H7C7.55229 11 8 10.5523 8 10C8 9.44771 7.55229 9 7 9H6V8Z" fill="#2D333F"/>
</svg>
