<?xml version="1.0" encoding="UTF-8"?>
<svg width="24px" height="24px" viewBox="0 0 24 24" version="1.1" xmlns="http://www.w3.org/2000/svg" xmlns:xlink="http://www.w3.org/1999/xlink">
    <!-- Generator: Sketch 49.3 (51167) - http://www.bohemiancoding.com/sketch -->
    <title>icon/ic_expand</title>
    <desc>Created with Sketch.</desc>
    <defs></defs>
    <g id="icon/ic_expand" stroke="none" stroke-width="1" fill="none" fill-rule="evenodd">
        <path d="M4,18.5 L4,13.5 C4,13.2238576 4.22385763,13 4.5,13 L5.5,13 C5.77614237,13 6,13.2238576 6,13.5 L6,16.5639608 L10.0104076,12.5535532 C10.2056698,12.3582911 10.5222523,12.3582911 10.7175144,12.5535532 L11.4246212,13.26066 C11.6198833,13.4559221 11.6198833,13.7725046 11.4246212,13.9677668 L7.39238796,18 L10.5,18 C10.7761424,18 11,18.2238576 11,18.5 L11,19.5 C11,19.7761424 10.7761424,20 10.5,20 L4.5,20 C4.22385763,20 4,19.7761424 4,19.5 L4,18.5 Z M16.5639608,6 L13.5,6 C13.2238576,6 13,5.77614237 13,5.5 L13,4.5 C13,4.22385763 13.2238576,4 13.5,4 L19.5,4 C19.7761424,4 20,4.22385763 20,4.5 L20,5.5 L20,10.5 C20,10.7761424 19.7761424,11 19.5,11 L18.5,11 C18.2238576,11 18,10.7761424 18,10.5 L18,7.39238796 L13.767767,11.624621 C13.5725048,11.8198832 13.2559223,11.8198832 13.0606602,11.624621 L12.3535534,10.9175142 C12.1582912,10.7222521 12.1582912,10.4056696 12.3535534,10.2104074 L16.5639608,6 Z" id="ic_expand" fill="#333333"></path>
    </g>
</svg>