<?xml version="1.0" encoding="UTF-8"?>
<svg width="24px" height="24px" viewBox="0 0 24 24" version="1.1" xmlns="http://www.w3.org/2000/svg" xmlns:xlink="http://www.w3.org/1999/xlink">
    <!-- Generator: Sketch 52.3 (67297) - http://www.bohemiancoding.com/sketch -->
    <title>icon/ic_facebook</title>
    <desc>Created with Sketch.</desc>
    <g id="social/ic_facebook" stroke="none" stroke-width="1" fill="none" fill-rule="evenodd">
        <g id="facebook-logo" transform="translate(3.000000, 3.000000)" fill-rule="nonzero">
            <path d="M17.0068966,0 L0.993103448,0 C0.444627559,-3.35844621e-17 6.71689242e-17,0.444627559 0,0.993103448 L0,17.0068966 C6.71689242e-17,17.5553724 0.444627559,18 0.993103448,18 L9.62068966,18 L9.62068966,11.0389655 L7.27758621,11.0389655 L7.27758621,8.31413793 L9.62068966,8.31413793 L9.62068966,6.30931034 C9.62068966,3.98482759 11.042069,2.71862069 13.1151724,2.71862069 C13.8137815,2.71709716 14.5119873,2.75231822 15.2068966,2.82413793 L15.2068966,5.25413793 L13.7793103,5.25413793 C12.6496552,5.25413793 12.4293103,5.78793103 12.4293103,6.5762069 L12.4293103,8.31103448 L15.1293103,8.31103448 L14.7786207,11.0358621 L12.4137931,11.0358621 L12.4137931,18 L17.0068966,18 C17.5553724,18 18,17.5553724 18,17.0068966 L18,0.993103448 C18,0.444627559 17.5553724,3.35844621e-17 17.0068966,0 Z" id="ic_facebook_1" fill="#4267B2"></path>
            <path d="M12.4137931,18 L12.4137931,11.0389655 L14.7631034,11.0389655 L15.1137931,8.31413793 L12.4137931,8.31413793 L12.4137931,6.57931034 C12.4137931,5.79103448 12.6341379,5.25724138 13.7637931,5.25724138 L15.2068966,5.25724138 L15.2068966,2.82413793 C14.5109577,2.75220945 13.8117131,2.71698825 13.112069,2.71862069 C11.0358621,2.71862069 9.62068966,3.98482759 9.62068966,6.30931034 L9.62068966,8.31413793 L7.27758621,8.31413793 L7.27758621,11.0389655 L9.62068966,11.0389655 L9.62068966,18 L12.4137931,18 Z" id="ic_facebook_2" fill="#FFFFFF"></path>
        </g>
    </g>
</svg>
