<svg width="24" height="24" viewBox="0 0 24 24" fill="none" xmlns="http://www.w3.org/2000/svg">
  <title>icon/ic_facebook</title>
  <mask id="mask0" mask-type="alpha" maskUnits="userSpaceOnUse" x="2" y="2" width="20" height="20">
    <path fill-rule="evenodd" clip-rule="evenodd" d="M2.00122 2.00073H22V21.8785H2.00122V2.00073Z" fill="white"/>
  </mask>
  <g mask="url(#mask0)">
    <path fill-rule="evenodd" clip-rule="evenodd" d="M22.0001 12C22.0001 6.47715 17.5229 2 12.0001 2C6.47721 2 2.00006 6.47715 2.00006 12C2.00006 16.9913 5.65692 21.1283 10.4376 21.8785V14.8906H7.8985V12H10.4376V9.79688C10.4376 7.29063 11.9305 5.90625 14.2147 5.90625C15.3088 5.90625 16.4532 6.10156 16.4532 6.10156V8.5625H15.1922C13.95 8.5625 13.5626 9.33334 13.5626 10.1242V12H16.336L15.8926 14.8906H13.5626V21.8785C18.3432 21.1283 22.0001 16.9913 22.0001 12Z" fill="#1877F2"/>
  </g>
  <path fill-rule="evenodd" clip-rule="evenodd" d="M15.8926 14.8906L16.336 12H13.5626V10.1242C13.5626 9.33334 13.95 8.5625 15.1922 8.5625H16.4532V6.10156C16.4532 6.10156 15.3088 5.90625 14.2147 5.90625C11.9305 5.90625 10.4376 7.29063 10.4376 9.79688V12H7.8985V14.8906H10.4376V21.8785C10.9467 21.9584 11.4685 22 12.0001 22C12.5316 22 13.0534 21.9584 13.5626 21.8785V14.8906H15.8926Z" fill="white"/>
</svg>
