<?xml version="1.0" encoding="UTF-8"?>
<svg width="24px" height="24px" viewBox="0 0 24 24" version="1.1" xmlns="http://www.w3.org/2000/svg" xmlns:xlink="http://www.w3.org/1999/xlink">
    <!-- Generator: Sketch 50.2 (55047) - http://www.bohemiancoding.com/sketch -->
    <title>icon/ic_filter</title>
    <desc>Created with Sketch.</desc>
    <defs></defs>
    <g id="icon/ic_filter" stroke="none" stroke-width="1" fill="none" fill-rule="evenodd">
        <path d="M13,9.73243561 L13,19 C13,19.5522847 12.5522847,20 12,20 C11.4477153,20 11,19.5522847 11,19 L11,9.73243561 C10.4021986,9.38662619 10,8.74028236 10,8 C10,7.25971764 10.4021986,6.61337381 11,6.26756439 L11,5 C11,4.44771525 11.4477153,4 12,4 C12.5522847,4 13,4.44771525 13,5 L13,6.26756439 C13.5978014,6.61337381 14,7.25971764 14,8 C14,8.74028236 13.5978014,9.38662619 13,9.73243561 Z M19,16.7324356 L19,19 C19,19.5522847 18.5522847,20 18,20 C17.4477153,20 17,19.5522847 17,19 L17,16.7324356 C16.4021986,16.3866262 16,15.7402824 16,15 C16,14.2597176 16.4021986,13.6133738 17,13.2675644 L17,5 C17,4.44771525 17.4477153,4 18,4 C18.5522847,4 19,4.44771525 19,5 L19,13.2675644 C19.5978014,13.6133738 20,14.2597176 20,15 C20,15.7402824 19.5978014,16.3866262 19,16.7324356 Z M7,10.2675644 C7.59780137,10.6133738 8,11.2597176 8,12 C8,12.7402824 7.59780137,13.3866262 7,13.7324356 L7,19 C7,19.5522847 6.55228475,20 6,20 C5.44771525,20 5,19.5522847 5,19 L5,13.7324356 C4.40219863,13.3866262 4,12.7402824 4,12 C4,11.2597176 4.40219863,10.6133738 5,10.2675644 L5,5 C5,4.44771525 5.44771525,4 6,4 C6.55228475,4 7,4.44771525 7,5 L7,10.2675644 Z" id="ic_filter" fill="#2D333F"></path>
    </g>
</svg>