<svg xmlns="http://www.w3.org/2000/svg" width="24" height="24" fill="none" viewBox="0 0 24 24">
  <path fill="#2D333F" d="M18.707 11.883a.51.51 0 00.353-.14.47.47 0 00.147-.34v-.96a.47.47 0 00-.147-.34.51.51 0 00-.353-.14h-3.064l4.21-4.042a.48.48 0 00.147-.34.464.464 0 00-.147-.34l-.707-.678a.51.51 0 00-.707 0l-4.232 4.063V5.643a.47.47 0 00-.147-.34.51.51 0 00-.353-.14h-1a.51.51 0 00-.354.14.47.47 0 00-.146.34v5.76c0 .127.053.25.146.34.094.09.221.14.354.14h6zM9.57 15.792v2.941c0 .128.053.25.146.34.094.09.221.14.354.14h1a.51.51 0 00.353-.14.47.47 0 00.147-.34v-5.76a.47.47 0 00-.147-.339.51.51 0 00-.353-.14h-6a.51.51 0 00-.354.14.47.47 0 00-.146.34v.96c0 .127.053.249.146.339.094.09.221.14.354.14H8.18l-4.033 3.871a.47.47 0 00-.147.34c0 .127.053.249.147.339l.708.679a.51.51 0 00.707 0l4.01-3.85H9.57z"/>
</svg>
