<?xml version="1.0" encoding="UTF-8"?>
<svg width="24px" height="24px" viewBox="0 0 24 24" version="1.1" xmlns="http://www.w3.org/2000/svg" xmlns:xlink="http://www.w3.org/1999/xlink">
    <!-- Generator: Sketch 51.1 (57501) - http://www.bohemiancoding.com/sketch -->
    <title>Icon/Fill/ic_food_drink_fill</title>
    <desc>Created with Sketch.</desc>
    <defs></defs>
    <g id="Icon/Fill/ic_food_drink_fill" stroke="none" stroke-width="1" fill="none" fill-rule="evenodd">
        <path d="M9.625,4.5 L9.625,9.28125 C9.625,9.59191017 9.83486652,9.84375 10.09375,9.84375 C10.3526335,9.84375 10.5625,9.59191017 10.5625,9.28125 L10.5625,4.5 C11.5980339,4.5 12.4375,5.17157288 12.4375,6 L12.4375,11.25 C12.4375,12.0784271 11.5980339,12.75 10.5625,12.75 L9.625,12.75 L9.625,18.75 C9.625,19.1642136 9.20526695,19.5 8.6875,19.5 L7.75,19.5 C7.23223305,19.5 6.8125,19.1642136 6.8125,18.75 L6.8125,12.75 L5.875,12.75 C4.83946609,12.75 4,12.0784271 4,11.25 L4,6 C4,5.17157288 4.83946609,4.5 5.875,4.5 L5.875,9.28125 C5.875,9.59191017 6.08486652,9.84375 6.34375,9.84375 C6.60263348,9.84375 6.8125,9.59191017 6.8125,9.28125 L6.8125,4.5 L7.75,4.5 L7.75,9.28125 C7.75,9.59191017 7.95986652,9.84375 8.21875,9.84375 C8.47763348,9.84375 8.6875,9.59191017 8.6875,9.28125 L8.6875,4.5 L9.625,4.5 Z M19,4.9125 L19,18.75 C19,19.1642136 19,19.5 19,19.5 L17.90625,19.5 C17.4316303,19.5 17.046875,19.1642136 17.046875,18.75 L17.046875,15.75 L16.1875,15.75 C15.2382606,15.75 14,15.0784271 14,14.25 L14,8.5875 C14,6.33003609 16.4133226,4.5 19,4.5 C19,4.5 19,4.68468254 19,4.9125 Z" id="ic_food_drink_fill" fill="#2D333F" fill-rule="nonzero"></path>
    </g>
</svg>