<?xml version="1.0" encoding="UTF-8"?>
<svg width="24px" height="24px" viewBox="0 0 24 24" version="1.1" xmlns="http://www.w3.org/2000/svg" xmlns:xlink="http://www.w3.org/1999/xlink" style="background: #FFFFFF;">
    <!-- Generator: Sketch 49.3 (51167) - http://www.bohemiancoding.com/sketch -->
    <title>icon/ic_favorite</title>
    <desc>Created with Sketch.</desc>
    <defs></defs>
    <g id="icon/ic_favorite" stroke="none" stroke-width="1" fill="none" fill-rule="evenodd">
        <path d="M18.34,11 L12,17.34 L5.6,11 C4.83723797,10.2408106 4.53743949,9.13236201 4.81353576,8.09219602 C5.08963203,7.05203003 5.89967746,6.23817263 6.93853576,5.95719602 C7.97739407,5.67621941 9.08723797,5.97081062 9.85,6.73 L12,8.85 L14.12,6.73 C14.8737603,5.93361184 16.0019708,5.61191332 17.0623938,5.8910043 C18.1228168,6.17009529 18.9464895,7.00550672 19.2105473,8.06977276 C19.4746051,9.1340388 19.1369743,10.2575842 18.33,11 L18.34,11 Z M19.75,5.34 C17.7975007,3.38809031 14.6324993,3.38809031 12.68,5.34 L12,6 L11.29,5.29 C9.32810557,3.39513895 6.20957611,3.42223813 4.28090712,5.35090712 C2.35223813,7.27957611 2.32513895,10.3981056 4.22,12.36 L12,20.16 L19.78,12.38 C21.7236496,10.4192284 21.7102195,7.25420636 19.75,5.31 L19.75,5.34 Z" id="ic_favorite" fill="#333333" fill-rule="nonzero"></path>
    </g>
</svg>