<?xml version="1.0" encoding="UTF-8"?>
<svg width="24px" height="24px" viewBox="0 0 24 24" version="1.1" xmlns="http://www.w3.org/2000/svg" xmlns:xlink="http://www.w3.org/1999/xlink">
    <!-- Generator: Sketch 53.2 (72643) - https://sketchapp.com -->
    <title>icon/line/ic_groups/Light UI - Default</title>
    <desc>Created with Sketch.</desc>
    <g id="icon/line/ic_groups/Light-UI---Default" stroke="none" stroke-width="1" fill="none" fill-rule="evenodd">
        <path d="M11.5,14.9909551 L11.5,20 L13.5,20 L13.5,18 C13.5,17.4477153 13.9477153,17 14.5,17 L15.5,17 C16.0522847,17 16.5,17.4477153 16.5,18 L16.5,20 L18.5,20 L18.5,14.9909551 C17.8184673,14.9730506 17.2365147,14.9242848 16.8647191,14.8082208 C16.4452636,14.9485003 15.9753344,15 15.431777,15 L14.568223,15 C14.0246656,15 13.5547365,14.9485003 13.1352809,14.8082208 C12.7634853,14.9242848 12.1815327,14.9730506 11.5,14.9909551 Z M9.5,14.8100816 C8.69238416,14.5266074 8.12899092,13.928515 8.01237413,13.0341099 C7.95805461,12.6175003 8.08033776,12.1971488 8.34965785,11.8746883 L10.1509828,9.71793797 C10.5309784,9.26296409 11.0932244,9 11.6860127,9 L18.3139873,9 C18.9067756,9 19.4690216,9.26296409 19.8490173,9.71793797 L21.6503421,11.8746883 C21.9196622,12.1971488 22.0419454,12.6175002 21.9876259,13.0341097 C21.8710092,13.928515 21.3076159,14.5266073 20.5,14.8100816 L20.5,20.1337822 C20.7989007,20.3066869 21,20.6298588 21,21 C21,21.5522847 20.5522847,22 20,22 L10,22 C9.44771525,22 9,21.5522847 9,21 C9,20.6298588 9.20109931,20.3066869 9.5,20.1337822 L9.5,14.8100816 Z M20,12.8437095 L18.2214983,10.7142857 L11.7785017,10.7142857 L10,12.8437095 C10.0443334,13.1837297 10.2287208,13.2857143 10.7046689,13.2857143 C11.0500939,13.2857143 11.8684306,13.2533506 12,13.2058449 C12.0437946,12.8884944 12.5,12.4285714 13,12.4285714 C13.5,12.4285714 13.9562054,12.8884945 14,13.205845 C14.1315694,13.2533507 14.2227979,13.2857143 14.568223,13.2857143 L15.431777,13.2857143 C15.7772021,13.2857143 15.8684306,13.2533507 16,13.205845 C16.0437946,12.8884945 16.5,12.4285714 17,12.4285714 C17.5,12.4285714 17.9562054,12.8884945 18,13.205845 C18.1315694,13.2533507 18.9499061,13.2857143 19.2953311,13.2857143 C19.7712793,13.2857143 19.9556666,13.1837297 20,12.8437095 Z M3.5,13.1337822 L3.5,7.81008161 C2.69238416,7.52660735 2.12899092,6.92851504 2.01237413,6.03410985 C1.95805461,5.61750032 2.08033776,5.19714881 2.34965785,4.87468827 L4.15098276,2.71793797 C4.53097843,2.26296409 5.09322443,2 5.68601271,2 L12.3139873,2 C12.9067756,2 13.4690216,2.26296409 13.8490173,2.71793797 L15.6503421,4.87468827 C15.9196622,5.19714876 16.0419454,5.61750019 15.9876259,6.03410967 C15.8191438,7.32630264 14.7181025,8 13.2953311,8 C12.2799829,8 11.3746707,7.9674132 10.8647191,7.80822083 C10.4452636,7.94850028 9.97533445,8 9.43177704,8 L8.56822298,8 C8.02466555,8 7.55473646,7.94850028 7.13528093,7.80822082 C6.76348529,7.92428484 6.18153269,7.97305065 5.5,7.99095508 L5.5,13 L6,13 C6.55228475,13 7,13.4477153 7,14 C7,14.5522847 6.55228475,15 6,15 L4,15 C3.44771525,15 3,14.5522847 3,14 C3,13.6298588 3.20109931,13.3066869 3.5,13.1337822 Z M14,5.84370947 L12.2214983,3.71428571 L5.77850168,3.71428571 L4,5.84370947 C4.04433344,6.18372968 4.22872076,6.28571429 4.70466891,6.28571429 C5.05009395,6.28571429 5.8684306,6.25335055 6,6.20584486 C6.04379455,5.88849439 6.5,5.42857143 7,5.42857143 C7.5,5.42857143 7.95620545,5.88849453 8,6.20584499 C8.1315694,6.25335069 8.22279794,6.28571429 8.56822298,6.28571429 L9.43177704,6.28571429 C9.77720205,6.28571429 9.86843057,6.25335069 10,6.20584499 C10.0437946,5.88849453 10.5,5.42857143 11,5.42857143 C11.5,5.42857143 11.9562054,5.88849453 12,6.20584499 C12.1315694,6.25335069 12.9499061,6.28571429 13.2953311,6.28571429 C13.7712793,6.28571429 13.9556666,6.18372968 14,5.84370947 Z" id="ic_groups" fill="#2D333F" fill-rule="nonzero"></path>
    </g>
</svg>