<?xml version="1.0" encoding="UTF-8"?>
<svg width="24px" height="24px" viewBox="0 0 24 24" version="1.1" xmlns="http://www.w3.org/2000/svg" xmlns:xlink="http://www.w3.org/1999/xlink">
    <!-- Generator: Sketch 53.2 (72643) - https://sketchapp.com -->
    <title>icon/line/ic_groups/Light UI - Default</title>
    <desc>Created with Sketch.</desc>
    <g id="icon/line/ic_groups/Light-UI---Default" stroke="none" stroke-width="1" fill="none" fill-rule="evenodd">
        <path d="M4.16,7 L5.49,7 L5.49,15 L4.16,15 L4.16,7 Z M14.1562928,6.54167555 L12.5000689,4.33337696 L6.50004912,4.33337696 L4.84382518,6.54167555 C4.88511056,6.89429026 5.05682065,7.00005242 5.50004582,7.00005242 C5.82172177,7.00005242 6.04928605,6.96649006 6.17180962,6.91722473 C6.21259316,6.58811946 6.49323998,6.33338356 6.83338355,6.33338356 C7.17352713,6.33338356 7.45417394,6.58811946 7.49495748,6.91722473 C7.61748106,6.96649006 7.84504533,7.00005242 8.16672128,7.00005242 C8.48839721,7.00005242 8.71596149,6.96649006 8.83848509,6.91722473 C8.87927943,6.58810961 9.15992202,6.33338356 9.50005901,6.33338356 C9.84020259,6.33338356 10.1208494,6.58811946 10.1616329,6.91722473 C10.2841565,6.96649006 10.5117208,7.00005242 10.8333967,7.00005242 C11.1550727,7.00005242 11.3826369,6.96649006 11.5051605,6.91722473 C11.5459441,6.58811946 11.8265909,6.33338356 12.1667345,6.33338356 C12.506878,6.33338356 12.7875248,6.58811946 12.8283084,6.91722473 C12.950832,6.96649006 13.1783963,7.00005242 13.5000722,7.00005242 C13.9432974,7.00005242 14.1150075,6.89429026 14.1562928,6.54167555 Z M12.001331,8.15120806 C11.6809553,8.28002746 11.29442,8.33005242 10.8333967,8.33005242 C10.3723734,8.33005242 9.98583819,8.28002746 9.66546244,8.15120806 L9.50005901,8.08470125 L9.33465557,8.15120806 C9.01427982,8.28002746 8.62774459,8.33005242 8.16672128,8.33005242 C7.70569792,8.33005242 7.31916267,8.28002746 6.99878691,8.15120803 L6.83338355,8.08470123 L6.66798019,8.15120803 C6.34760443,8.28002746 5.96106918,8.33005242 5.50004582,8.33005242 C4.43451655,8.33005242 3.6516753,7.79663666 3.5228487,6.69634014 C3.48318572,6.35758218 3.57518198,6.01653315 3.77982518,5.74367555 L5.53504912,3.40337696 C5.7239035,3.15157112 6.02029182,3.00337696 6.33504912,3.00337696 L12.6650689,3.00337696 C12.9798262,3.00337696 13.2762145,3.15157112 13.4650689,3.40337697 L15.2202928,5.74367555 C15.424936,6.01653311 15.5169323,6.35758208 15.4772693,6.69633999 C15.3484428,7.79663662 14.5656015,8.33005242 13.5000722,8.33005242 C13.0390489,8.33005242 12.6525136,8.28002746 12.3321379,8.15120806 L12.1667345,8.08470125 L12.001331,8.15120806 Z M4.165,13.67 L7.67,13.67 C7.85225397,13.67 8,13.817746 8,14 L8,14.67 C8,14.852254 7.85225397,15 7.67,15 L4.165,15 C3.79773064,15 3.5,14.7022694 3.5,14.335 C3.5,13.9677306 3.79773064,13.67 4.165,13.67 Z M18.5000722,14.3333901 C17.9616045,14.3333901 17.5062708,14.2551285 17.1667345,14.0855487 C16.8271981,14.2551285 16.3718644,14.3333901 15.8333967,14.3333901 C15.2949291,14.3333901 14.8395953,14.2551285 14.500059,14.0855487 C14.1605227,14.2551285 13.7051889,14.3333901 13.1667213,14.3333901 C12.6282537,14.3333901 12.1729199,14.2551285 11.8333836,14.0855487 C11.4938472,14.2551285 11.0385134,14.3333901 10.5000458,14.3333901 L10.5000458,19.6667411 L12.5000524,19.6667411 L12.5000524,16.3333967 C12.5000524,15.9652057 12.7985302,15.6667279 13.1667213,15.6667279 L15.8333967,15.6667279 C16.0174923,15.6667279 16.1841595,15.7413473 16.3048028,15.8619907 C16.4254462,15.982634 16.5000656,16.1493012 16.5000656,16.3333967 L16.5000656,19.6667411 L18.5000722,19.6667411 L18.5000722,14.3333901 Z M19.8334099,13.9276799 L19.8334099,19.6667411 C20.2016009,19.6667411 20.5000788,19.9652189 20.5000788,20.3334099 C20.5000788,20.7016009 20.2016009,21.0000788 19.8334099,21.0000788 L9.1667081,21.0000788 C8.79851705,21.0000788 8.50003923,20.7016009 8.50003923,20.3334099 C8.50003923,19.9652189 8.79851705,19.6667411 9.1667081,19.6667411 L9.1667081,13.9276799 C8.73742693,13.587971 8.50171026,13.0455456 8.50004809,12.3408937 C8.49834815,12.1990787 8.54169998,12.0556129 8.63337301,11.9333822 C8.63469021,11.9315638 8.63604747,11.9297758 8.63741353,11.9279949 L10.6287244,9.2729137 C10.7500362,9.10746163 10.9458305,9.00003924 11.1667147,9.00003924 C11.1693005,8.99999822 11.1718868,9.00001122 11.1744733,9.00003924 L17.8256447,9.00003924 C17.8282312,9.00001122 17.8308175,8.99999822 17.8334033,9.0000002 C18.0542875,9.00003924 18.2500818,9.10746163 18.3713936,9.2729137 L20.3627045,11.9279949 C20.3640705,11.9297758 20.3654278,11.9315638 20.3667762,11.9333588 C20.458418,12.0556129 20.5017699,12.1990787 20.5000699,12.3408937 C20.4984078,13.0455456 20.2626911,13.587971 19.8334099,13.9276799 Z M19.1562928,12.5416755 L17.5000689,10.333377 L11.5000491,10.333377 L9.84382518,12.5416755 C9.88511056,12.8942903 10.0568206,13.0000524 10.5000458,13.0000524 C10.8217218,13.0000524 11.049286,12.9664901 11.1718096,12.9172247 C11.2125932,12.5881195 11.49324,12.3333836 11.8333836,12.3333836 C12.1735271,12.3333836 12.4541739,12.5881195 12.4949575,12.9172247 C12.6174811,12.9664901 12.8450453,13.0000524 13.1667213,13.0000524 C13.4883972,13.0000524 13.7159615,12.9664901 13.8384851,12.9172247 C13.8792794,12.5881096 14.159922,12.3333836 14.500059,12.3333836 C14.8402026,12.3333836 15.1208494,12.5881195 15.1616329,12.9172247 C15.2841565,12.9664901 15.5117208,13.0000524 15.8333967,13.0000524 C16.1550727,13.0000524 16.3826369,12.9664901 16.5051605,12.9172247 C16.5459441,12.5881195 16.8265909,12.3333836 17.1667345,12.3333836 C17.506878,12.3333836 17.7875248,12.5881195 17.8283084,12.9172247 C17.950832,12.9664901 18.1783963,13.0000524 18.5000722,13.0000524 C18.9432974,13.0000524 19.1150075,12.8942903 19.1562928,12.5416755 Z M13.8333901,19.6667411 L15.1667279,19.6667411 L15.1667279,17.0000656 L13.8333901,17.0000656 L13.8333901,19.6667411 Z" id="ic_groups" fill="#2D333F" fill-rule="nonzero"></path>
    </g>
</svg>