<svg width="24" height="24" viewBox="0 0 24 24" fill="none" xmlns="http://www.w3.org/2000/svg">
<path fill-rule="evenodd" clip-rule="evenodd" d="M4.5 8C4.5 6.34315 5.84315 5 7.5 5H16.5C18.1569 5 19.5 6.34315 19.5 8V14C19.5 15.6569 18.1569 17 16.5 17H7.5C5.84315 17 4.5 15.6569 4.5 14V8ZM7.90909 8.78768H16.0909V10.0502H7.90909V8.78768ZM16.0909 11.3128H7.90909V12.5754H16.0909V11.3128ZM9.86924 20C9.54963 20 9.27273 19.8722 9.27273 19.5197C9.27273 19.0058 9.27273 17 9.27273 17H14.7273C14.7273 17 11.2757 18.9853 10.6364 19.5197C10.4357 19.6874 10.1249 20 9.86924 20Z" fill="#2D333F"/>
</svg>
