<svg width="24" height="24" viewBox="0 0 24 24" fill="none" xmlns="http://www.w3.org/2000/svg">
  <path d="M7.0769 5.84615C7.0769 4.82655 7.90346 4 8.92306 4C9.94266 4 10.7692 4.82655 10.7692 5.84615C10.7692 6.86576 9.94266 7.69231 8.92306 7.69231C7.90346 7.69231 7.0769 6.86576 7.0769 5.84615Z" fill="#2D333F"/>
  <path d="M7.0769 12C7.0769 10.9804 7.90346 10.1538 8.92306 10.1538C9.94266 10.1538 10.7692 10.9804 10.7692 12C10.7692 13.0196 9.94266 13.8462 8.92306 13.8462C7.90346 13.8462 7.0769 13.0196 7.0769 12Z" fill="#2D333F"/>
  <path d="M7.0769 18.1538C7.0769 17.1342 7.90346 16.3077 8.92306 16.3077C9.94266 16.3077 10.7692 17.1342 10.7692 18.1538C10.7692 19.1734 9.94266 20 8.92306 20C7.90346 20 7.0769 19.1734 7.0769 18.1538Z" fill="#2D333F"/>
  <path d="M13.2308 5.84615C13.2308 4.82655 14.0573 4 15.0769 4C16.0965 4 16.9231 4.82655 16.9231 5.84615C16.9231 6.86576 16.0965 7.69231 15.0769 7.69231C14.0573 7.69231 13.2308 6.86576 13.2308 5.84615Z" fill="#2D333F"/>
  <path d="M13.2308 12C13.2308 10.9804 14.0573 10.1538 15.0769 10.1538C16.0965 10.1538 16.9231 10.9804 16.9231 12C16.9231 13.0196 16.0965 13.8462 15.0769 13.8462C14.0573 13.8462 13.2308 13.0196 13.2308 12Z" fill="#2D333F"/>
  <path d="M13.2308 18.1538C13.2308 17.1342 14.0573 16.3077 15.0769 16.3077C16.0965 16.3077 16.9231 17.1342 16.9231 18.1538C16.9231 19.1734 16.0965 20 15.0769 20C14.0573 20 13.2308 19.1734 13.2308 18.1538Z" fill="#2D333F"/>
</svg>
