<svg width="24" height="24" viewBox="0 0 24 24" fill="none" xmlns="http://www.w3.org/2000/svg">
<path fill-rule="evenodd" clip-rule="evenodd" d="M11.375 19V14.874C9.43412 14.4299 8 12.8638 8 11V3.75C8 3.33579 8.37776 3 8.84375 3H16.1562C16.6222 3 17 3.33579 17 3.75V11C17 12.8638 15.5659 14.4299 13.625 14.874V19H13.9062C14.3722 19 14.75 19.3358 14.75 19.75V20.25C14.75 20.6642 14.3722 21 13.9062 21H11.0938C10.6278 21 10.25 20.6642 10.25 20.25V19.75C10.25 19.3358 10.6278 19 11.0938 19H11.375ZM14.75 5V6.63976L10.25 7.97309V5H14.75Z" fill="#2D333F"/>
</svg>
