<?xml version="1.0" encoding="UTF-8"?>
<svg width="24px" height="24px" viewBox="0 0 24 24" version="1.1" xmlns="http://www.w3.org/2000/svg" xmlns:xlink="http://www.w3.org/1999/xlink" style="background: #FFFFFF;">
    <!-- Generator: Sketch 49.3 (51167) - http://www.bohemiancoding.com/sketch -->
    <title>icon/ic_hamburger</title>
    <desc>Created with Sketch.</desc>
    <defs></defs>
    <g id="icon/ic_hamburger" stroke="none" stroke-width="1" fill="none" fill-rule="evenodd">
        <path d="M4.5,5 L19.5,5 C19.7761424,5 20,5.22385763 20,5.5 L20,6.5 C20,6.77614237 19.7761424,7 19.5,7 L4.5,7 C4.22385763,7 4,6.77614237 4,6.5 L4,5.5 C4,5.22385763 4.22385763,5 4.5,5 Z M4.5,11 L19.5,11 C19.7761424,11 20,11.2238576 20,11.5 L20,12.5 C20,12.7761424 19.7761424,13 19.5,13 L4.5,13 C4.22385763,13 4,12.7761424 4,12.5 L4,11.5 C4,11.2238576 4.22385763,11 4.5,11 Z M4.5,17 L19.5,17 C19.7761424,17 20,17.2238576 20,17.5 L20,18.5 C20,18.7761424 19.7761424,19 19.5,19 L4.5,19 C4.22385763,19 4,18.7761424 4,18.5 L4,17.5 C4,17.2238576 4.22385763,17 4.5,17 Z" id="ic_hamburger" fill="#333333"></path>
    </g>
</svg>