<?xml version="1.0" encoding="UTF-8"?>
<svg width="24px" height="24px" viewBox="0 0 24 24" version="1.1" xmlns="http://www.w3.org/2000/svg" xmlns:xlink="http://www.w3.org/1999/xlink">
    <!-- Generator: Sketch 50.2 (55047) - http://www.bohemiancoding.com/sketch -->
    <title>icon/ic_hide</title>
    <desc>Created with Sketch.</desc>
    <defs></defs>
    <g id="icon/ic_hide" stroke="none" stroke-width="1" fill="none" fill-rule="evenodd">
        <path d="M7.68312555,17.731088 L6.34314575,19.0710678 C5.95262146,19.4615921 5.31945648,19.4615921 4.92893219,19.0710678 C4.5384079,18.6805435 4.5384079,18.0473785 4.92893219,17.6568542 L6.00265486,16.5831316 C4.88567036,15.6733932 3.80904697,14.4934731 2.7727847,13.043371 C2.27573983,12.3478273 2.2757396,11.4132661 2.77277778,10.7177176 C5.55365864,6.82626551 8.62520178,4.88053948 11.9874072,4.88053948 C13.5402954,4.88053948 15.0311794,5.29560203 16.4600593,6.12572714 L17.6568542,4.92893219 C18.0473785,4.5384079 18.6805435,4.5384079 19.0710678,4.92893219 C19.4615921,5.31945648 19.4615921,5.95262146 19.0710678,6.34314575 L18.11678,7.29743356 C19.1821438,8.19019585 20.2105604,9.3302873 21.2020297,10.7177079 C21.6990746,11.4132517 21.6990748,12.3478128 21.2020366,13.0433614 C18.4211558,16.9348134 15.3496126,18.8805395 11.9874072,18.8805395 C10.4954097,18.8805395 9.06064917,18.497389 7.68312555,17.731088 Z M9.10238062,16.3118329 C10.0323392,16.6909706 10.9940147,16.8805395 11.9874072,16.8805395 C14.7464219,16.8805395 17.2607792,15.4182505 19.5304792,12.4936725 L19.5305079,12.4936947 C19.8105139,12.1328983 19.8105146,11.6282425 19.5305095,11.2674454 C18.669844,10.1584456 17.7739989,9.25971023 16.8429742,8.57123935 L15.4817815,9.9324321 C15.8038521,10.5089031 15.9874072,11.1732855 15.9874072,11.8805395 C15.9874072,14.0896785 14.1965462,15.8805395 11.9874072,15.8805395 C11.2801532,15.8805395 10.6157709,15.6969843 10.0392998,15.3749137 L9.10238062,16.3118329 Z M7.28488983,15.3008966 L8.59111776,13.9946687 C8.20848922,13.3812857 7.98740721,12.6567308 7.98740721,11.8805395 C7.98740721,9.67140048 9.77826821,7.88053948 11.9874072,7.88053948 C12.7635986,7.88053948 13.4881535,8.10162149 14.1015364,8.48425003 L15.0581298,7.52765668 C14.0706456,7.09624521 13.0470714,6.88053948 11.9874072,6.88053948 C9.22839254,6.88053948 6.7140352,8.34282846 4.44433518,11.2674064 L4.44430655,11.2673842 C4.16430048,11.6281806 4.16429982,12.1328364 4.44430495,12.4936336 C5.35203432,13.663277 6.29889594,14.5990313 7.28488983,15.3008966 Z M12.6073176,9.97846885 C12.4121463,9.91490239 12.2037897,9.88053948 11.9874072,9.88053948 C10.8828377,9.88053948 9.98740721,10.77597 9.98740721,11.8805395 C9.98740721,12.0969219 10.0217701,12.3052785 10.0853366,12.5004499 L12.6073176,9.97846885 Z M13.9450551,11.4691585 L11.5760262,13.8381874 C11.7087928,13.8659461 11.8463958,13.8805395 11.9874072,13.8805395 C13.0919767,13.8805395 13.9874072,12.985109 13.9874072,11.8805395 C13.9874072,11.7395281 13.9728139,11.6019251 13.9450551,11.4691585 Z" id="ic_hide" fill="#2D333F" fill-rule="nonzero"></path>
    </g>
</svg>