<svg width="24" height="24" viewBox="0 0 24 24" fill="none" xmlns="http://www.w3.org/2000/svg">
    <path fill-rule="evenodd" clip-rule="evenodd" d="M5.00164 7C5.00164 8.821 5.97364 10.414 7.42764 11.288C4.99664 11.882 3.26764 13.396 2.23764 15.831C1.59264 17.357 2.30564 19.118 3.83164 19.763C4.20164 19.919 4.59864 20 5.00064 20H13.8027C13.4513 19.3926 13.2034 18.7179 13.083 18H5.00764C4.90064 18 4.79464 17.983 4.69264 17.949C4.16864 17.776 3.88464 17.21 4.05864 16.686C4.87164 14.229 6.85264 13 10.0016 13C11.5758 13 12.8582 13.3073 13.8487 13.9218C14.189 13.3536 14.6207 12.8463 15.1234 12.4203C14.3824 11.8997 13.5325 11.5223 12.5736 11.288C14.0286 10.413 15.0016 8.821 15.0016 7C15.0016 4.239 12.7636 2 10.0006 2C7.23964 2 5.00164 4.239 5.00164 7ZM7.00164 7C7.00164 5.343 8.34364 4 10.0006 4C11.6576 4 13.0006 5.343 13.0006 7C13.0006 8.657 11.6576 10 10.0006 10C8.34364 10 7.00164 8.657 7.00164 7ZM19 22C21.7614 22 24 19.7614 24 17C24 14.2386 21.7614 12 19 12C16.2386 12 14 14.2386 14 17C14 19.7614 16.2386 22 19 22ZM17.4001 16.4028C17.0722 16.0722 16.5383 16.0702 16.2079 16.3984C15.8777 16.7263 15.8757 17.2597 16.2034 17.59L17.5506 18.9479C17.8785 19.2785 18.4124 19.2805 18.7428 18.9523C18.7867 18.9087 18.8248 18.8615 18.8571 18.8116L21.8483 15.8064C22.175 15.4781 22.1738 14.9473 21.8457 14.6205C21.5174 14.2937 20.9863 14.2948 20.6595 14.6232L18.143 17.1516L17.4001 16.4028Z" fill="#2D333F"/>
</svg>
