<svg width="24" height="24" viewBox="0 0 24 24" fill="none" xmlns="http://www.w3.org/2000/svg">
    <path fill-rule="evenodd" clip-rule="evenodd" d="M5.00164 7C5.00164 8.821 5.97364 10.414 7.42764 11.288C4.99664 11.882 3.26764 13.396 2.23764 15.831C1.59264 17.357 2.30564 19.118 3.83164 19.763C4.20164 19.919 4.59864 20 5.00064 20H13.8027C13.4513 19.3926 13.2034 18.7179 13.083 18H5.00764C4.90064 18 4.79464 17.983 4.69264 17.949C4.16864 17.776 3.88464 17.21 4.05864 16.686C4.87164 14.229 6.85264 13 10.0016 13C11.5758 13 12.8582 13.3073 13.8487 13.9218C14.189 13.3536 14.6207 12.8463 15.1234 12.4203C14.3824 11.8997 13.5325 11.5223 12.5736 11.288C14.0286 10.413 15.0016 8.821 15.0016 7C15.0016 4.239 12.7636 2 10.0006 2C7.23964 2 5.00164 4.239 5.00164 7ZM7.00164 7C7.00164 5.343 8.34364 4 10.0006 4C11.6576 4 13.0006 5.343 13.0006 7C13.0006 8.657 11.6576 10 10.0006 10C8.34364 10 7.00164 8.657 7.00164 7ZM19 22C21.7614 22 24 19.7614 24 17C24 14.2386 21.7614 12 19 12C16.2386 12 14 14.2386 14 17C14 19.7614 16.2386 22 19 22ZM21.2878 14.7943C20.9596 14.4675 20.4286 14.4687 20.1019 14.7969L18.9961 15.9075L17.8903 14.7969C17.5635 14.4687 17.0326 14.4675 16.7044 14.7943C16.3761 15.1211 16.3749 15.6521 16.7018 15.9803L17.8127 17.0961L16.7018 18.2119C16.3749 18.5401 16.3761 19.0711 16.7044 19.3979C17.0326 19.7246 17.5635 19.7234 17.8903 19.3952L18.9961 18.2846L20.1019 19.3952C20.4286 19.7234 20.9596 19.7246 21.2878 19.3979C21.616 19.0711 21.6172 18.5401 21.2904 18.2119L20.1795 17.0961L21.2904 15.9803C21.6172 15.6521 21.616 15.1211 21.2878 14.7943Z" fill="#2D333F"/>
</svg>
