<?xml version="1.0" encoding="UTF-8"?>
<svg width="24px" height="24px" viewBox="0 0 24 24" version="1.1" xmlns="http://www.w3.org/2000/svg" xmlns:xlink="http://www.w3.org/1999/xlink">
    <!-- Generator: Sketch 55.2 (78181) - https://sketchapp.com -->
    <title>icon/line/ic_keyboard/Light UI/Default</title>
    <desc>Created with Sketch.</desc>
    <defs>
        <path d="M20.8,4.5 L3.2,4.5 C1.9845,4.5 1.011,5.45892857 1.011,6.64285714 L1,17.3571429 C1,18.5410714 1.9845,19.5 3.2,19.5 L20.8,19.5 C22.0155,19.5 23,18.5410714 23,17.3571429 L23,6.64285714 C23,5.45892857 22.0155,4.5 20.8,4.5 Z M10.9,7.71428571 L13.1,7.71428571 L13.1,9.85714286 L10.9,9.85714286 L10.9,7.71428571 Z M10.9,10.9285714 L13.1,10.9285714 L13.1,13.0714286 L10.9,13.0714286 L10.9,10.9285714 Z M7.6,7.71428571 L9.8,7.71428571 L9.8,9.85714286 L7.6,9.85714286 L7.6,7.71428571 Z M7.6,10.9285714 L9.8,10.9285714 L9.8,13.0714286 L7.6,13.0714286 L7.6,10.9285714 Z M6.5,13.0714286 L4.3,13.0714286 L4.3,10.9285714 L6.5,10.9285714 L6.5,13.0714286 Z M6.5,9.85714286 L4.3,9.85714286 L4.3,7.71428571 L6.5,7.71428571 L6.5,9.85714286 Z M16.4,17.3571429 L7.6,17.3571429 L7.6,15.2142857 L16.4,15.2142857 L16.4,17.3571429 Z M16.4,13.0714286 L14.2,13.0714286 L14.2,10.9285714 L16.4,10.9285714 L16.4,13.0714286 Z M16.4,9.85714286 L14.2,9.85714286 L14.2,7.71428571 L16.4,7.71428571 L16.4,9.85714286 Z M19.7,13.0714286 L17.5,13.0714286 L17.5,10.9285714 L19.7,10.9285714 L19.7,13.0714286 Z M19.7,9.85714286 L17.5,9.85714286 L17.5,7.71428571 L19.7,7.71428571 L19.7,9.85714286 Z" id="path-1"></path>
    </defs>
    <g id="icon/line/ic_keyboard/Light-UI/Default" stroke="none" stroke-width="1" fill="none" fill-rule="evenodd">
        <mask id="mask-2" fill="white">
            <use xlink:href="#path-1"></use>
        </mask>
        <use id="Shape-Copy" fill="#2D333F" fill-rule="nonzero" xlink:href="#path-1"></use>
    </g>
</svg>