<?xml version="1.0" encoding="UTF-8"?>
<svg width="24px" height="24px" viewBox="0 0 24 24" xmlns="http://www.w3.org/2000/svg" xmlns:xlink="http://www.w3.org/1999/xlink">
  <g fill-rule="nonzero">
    <path fill="#2D333F" d="M20.8 4.5H3.2c-1.216 0-2.189.959-2.189 2.143L1 17.357c0 1.184.984 2.143 2.2 2.143h17.6c1.215 0 2.2-.959 2.2-2.143V6.643c0-1.184-.985-2.143-2.2-2.143zm-9.9 3.214h2.2v2.143h-2.2V7.714zm0 3.215h2.2v2.142h-2.2V10.93zM7.6 7.714h2.2v2.143H7.6V7.714zm0 3.215h2.2v2.142H7.6V10.93zM6.5 13.07H4.3V10.93h2.2v2.142zm0-3.214H4.3V7.714h2.2v2.143zm9.9 7.5H7.6v-2.143h8.8v2.143zm0-4.286h-2.2V10.93h2.2v2.142zm0-3.214h-2.2V7.714h2.2v2.143zm3.3 3.214h-2.2V10.93h2.2v2.142zm0-3.214h-2.2V7.714h2.2v2.143z" />
  </g>
</svg>