<svg width="24" height="24" viewBox="0 0 24 24" fill="none" xmlns="http://www.w3.org/2000/svg">
<path fill-rule="evenodd" clip-rule="evenodd" d="M5 6.5C5 6.22386 5.22386 6 5.5 6H15.5C15.7761 6 16 6.22386 16 6.5V14.5C16 14.7761 15.7761 15 15.5 15H5.5C5.22386 15 5 14.7761 5 14.5V6.5ZM6.5 13.5V7.5H14.5V13.5H6.5Z" fill="#2D333F"/>
<path fill-rule="evenodd" clip-rule="evenodd" d="M5 3C3.34315 3 2 4.34315 2 6V15C2 16.6569 3.34315 18 5 18H16C17.6569 18 19 16.6569 19 15V6C19 4.34315 17.6569 3 16 3H5ZM4 6C4 5.44772 4.44772 5 5 5H16C16.5523 5 17 5.44772 17 6V15C17 15.5523 16.5523 16 16 16H5C4.44772 16 4 15.5523 4 15V6Z" fill="#2D333F"/>
<path d="M15 20C15 20.5523 14.5523 21 14 21H8C7.44772 21 7 20.5523 7 20C7 19.4477 7.44772 19 8 19H14C14.5523 19 15 19.4477 15 20Z" fill="#2D333F"/>
<path d="M20.5 12C20.3247 12 20.1564 11.9699 20 11.9146V4.08535C20.1564 4.03008 20.3247 4 20.5 4C21.3284 4 22 4.67157 22 5.5V10.5C22 11.3284 21.3284 12 20.5 12Z" fill="#2D333F"/>
</svg>
