<?xml version="1.0" encoding="UTF-8"?>
<svg width="24px" height="24px" viewBox="0 0 24 24" version="1.1" xmlns="http://www.w3.org/2000/svg" xmlns:xlink="http://www.w3.org/1999/xlink">
    <!-- Generator: Sketch 52.6 (67491) - http://www.bohemiancoding.com/sketch -->
    <title>icon/ic_link</title>
    <desc>Created with Sketch.</desc>
    <g id="icon/ic_link" stroke="none" stroke-width="1" fill="none" fill-rule="evenodd">
        <path d="M21,7 C21.5522847,7 22,7.44771525 22,8 L22,16 C22,16.5522847 21.5522847,17 21,17 L14,17 C13.4477153,17 13,16.5522847 13,16 C13,15.4477153 13.4477153,15 14,15 L20,15 L20,9 L14,9 C13.4477153,9 13,8.55228475 13,8 C13,7.44771525 13.4477153,7 14,7 L21,7 Z M8,11 L16,11 C16.5522847,11 17,11.4477153 17,12 C17,12.5522847 16.5522847,13 16,13 L8,13 C7.44771525,13 7,12.5522847 7,12 C7,11.4477153 7.44771525,11 8,11 Z M3,7 L10,7 C10.5522847,7 11,7.44771525 11,8 C11,8.55228475 10.5522847,9 10,9 L4,9 L4,15 L10,15 C10.5522847,15 11,15.4477153 11,16 C11,16.5522847 10.5522847,17 10,17 L3,17 C2.44771525,17 2,16.5522847 2,16 L2,8 C2,7.44771525 2.44771525,7 3,7 Z" id="ic_link" fill="#333333"></path>
    </g>
</svg>