<?xml version="1.0" encoding="UTF-8"?>
<svg width="24px" height="24px" viewBox="0 0 24 24" version="1.1" xmlns="http://www.w3.org/2000/svg" xmlns:xlink="http://www.w3.org/1999/xlink">
    <!-- Generator: Sketch 51.1 (57501) - http://www.bohemiancoding.com/sketch -->
    <title>Icon/Fill/ic_left_message_fill</title>
    <desc>Created with Sketch.</desc>
    <defs></defs>
    <g id="Icon/Fill/ic_left_message_fill" stroke="none" stroke-width="1" fill="none" fill-rule="evenodd">
        <path d="M16.9230769,13.5869565 C17.797635,13.5869565 18.5,12.8922259 18.5,12.0434783 C18.5,11.1947306 17.797635,10.5 16.9230769,10.5 C16.0485189,10.5 15.3461538,11.1947306 15.3461538,12.0434783 C15.3461538,12.8922259 16.0485189,13.5869565 16.9230769,13.5869565 Z M16.9230769,16.5869565 C14.3989596,16.5869565 12.3461538,14.5564639 12.3461538,12.0434783 C12.3461538,9.53049265 14.3989596,7.5 16.9230769,7.5 C19.4471942,7.5 21.5,9.53049265 21.5,12.0434783 C21.5,14.5564639 19.4471942,16.5869565 16.9230769,16.5869565 Z M7.07692308,13.5869565 C7.95148114,13.5869565 8.65384615,12.8922259 8.65384615,12.0434783 C8.65384615,11.1947306 7.95148114,10.5 7.07692308,10.5 C6.20236501,10.5 5.5,11.1947306 5.5,12.0434783 C5.5,12.8922259 6.20236501,13.5869565 7.07692308,13.5869565 Z M7.07692308,16.5869565 C4.55280576,16.5869565 2.5,14.5564639 2.5,12.0434783 C2.5,9.53049265 4.55280576,7.5 7.07692308,7.5 C9.60104039,7.5 11.6538462,9.53049265 11.6538462,12.0434783 C11.6538462,14.5564639 9.60104039,16.5869565 7.07692308,16.5869565 Z M7.39358974,16.5869565 L7.39358974,13.5869565 L16.2602564,13.5869565 L16.2602564,16.5869565 L7.39358974,16.5869565 Z M7.39358974,13.5869565 L16.2602564,13.5869565 L16.2602564,16.5869565 L7.39358974,16.5869565 L7.39358974,13.5869565 Z" id="ic_left_message_fill" fill="#2D333F" fill-rule="nonzero"></path>
    </g>
</svg>