<?xml version="1.0" encoding="UTF-8"?>
<svg width="24px" height="24px" viewBox="0 0 24 24" version="1.1" xmlns="http://www.w3.org/2000/svg" xmlns:xlink="http://www.w3.org/1999/xlink" style="background: #FFFFFF;">
    <!-- Generator: Sketch 49.3 (51167) - http://www.bohemiancoding.com/sketch -->
    <title>icon/ic_location</title>
    <desc>Created with Sketch.</desc>
    <defs></defs>
    <g id="icon/ic_location" stroke="none" stroke-width="1" fill="none" fill-rule="evenodd">
        <path d="M12,2 C16.418278,2 20,5.581722 20,10 C20,12.8133333 17.5666667,16.59 12.7,21.33 C12.3111565,21.7111429 11.6888435,21.7111429 11.3,21.33 C6.43333333,16.59 4,12.8133333 4,10 C4,5.581722 7.581722,2 12,2 Z M12,4 C8.6862915,4 6,6.6862915 6,10 C6,11.21 6.8,14 12,19.21 C17.2,14 18,11.21 18,10 C18,6.6862915 15.3137085,4 12,4 Z M12,7 C13.6568542,7 15,8.34314575 15,10 C15,11.6568542 13.6568542,13 12,13 C10.3431458,13 9,11.6568542 9,10 C9,8.34314575 10.3431458,7 12,7 Z M12,9 C11.4477153,9 11,9.44771525 11,10 C11,10.5522847 11.4477153,11 12,11 C12.5522847,11 13,10.5522847 13,10 C13,9.44771525 12.5522847,9 12,9 Z" id="ic_location" fill="#333333"></path>
    </g>
</svg>