<?xml version="1.0" encoding="UTF-8"?>
<svg width="24px" height="24px" viewBox="0 0 24 24" version="1.1" xmlns="http://www.w3.org/2000/svg" xmlns:xlink="http://www.w3.org/1999/xlink">
    <!-- Generator: Sketch 50.2 (55047) - http://www.bohemiancoding.com/sketch -->
    <title>icon/ic_list</title>
    <desc>Created with Sketch.</desc>
    <defs></defs>
    <g id="icon/ic_list" stroke="none" stroke-width="1" fill="none" fill-rule="evenodd">
        <path d="M4,17 C4.55228475,17 5,17.4477153 5,18 C5,18.5522847 4.55228475,19 4,19 C3.44771525,19 3,18.5522847 3,18 C3,17.4477153 3.44771525,17 4,17 Z M8,17 L20,17 C20.5522847,17 21,17.4477153 21,18 C21,18.5522847 20.5522847,19 20,19 L8,19 C7.44771525,19 7,18.5522847 7,18 C7,17.4477153 7.44771525,17 8,17 Z M4,11 C4.55228475,11 5,11.4477153 5,12 C5,12.5522847 4.55228475,13 4,13 C3.44771525,13 3,12.5522847 3,12 C3,11.4477153 3.44771525,11 4,11 Z M8,11 L20,11 C20.5522847,11 21,11.4477153 21,12 C21,12.5522847 20.5522847,13 20,13 L8,13 C7.44771525,13 7,12.5522847 7,12 C7,11.4477153 7.44771525,11 8,11 Z M4,5 C4.55228475,5 5,5.44771525 5,6 C5,6.55228475 4.55228475,7 4,7 C3.44771525,7 3,6.55228475 3,6 C3,5.44771525 3.44771525,5 4,5 Z M8,5 L20,5 C20.5522847,5 21,5.44771525 21,6 C21,6.55228475 20.5522847,7 20,7 L8,7 C7.44771525,7 7,6.55228475 7,6 C7,5.44771525 7.44771525,5 8,5 Z" id="ic_list" fill="#2D333F"></path>
    </g>
</svg>