<?xml version="1.0" encoding="UTF-8"?>
<svg width="24px" height="24px" viewBox="0 0 24 24" version="1.1" xmlns="http://www.w3.org/2000/svg" xmlns:xlink="http://www.w3.org/1999/xlink">
    <!-- Generator: Sketch 50.2 (55047) - http://www.bohemiancoding.com/sketch -->
    <title>icon/ic_lightbulb</title>
    <desc>Created with Sketch.</desc>
    <defs></defs>
    <g id="icon/ic_lightbulb" stroke="none" stroke-width="1" fill="none" fill-rule="evenodd">
        <path d="M12,16 C14.3316181,16 17,12.9504206 17,10 C17,6.1045695 14.8954305,4 12,4 C9.1045695,4 7,6.1045695 7,10 C7,12.9504206 9.66838194,16 12,16 Z M14,17.2011195 L14,17.5796212 C13.3828115,17.8598737 12.7161449,18 12,18 C11.2838551,18 10.6171885,17.8598737 10,17.5796212 L10,17.2011195 L10,19 L14,19 L14,17.2011195 Z M8,16.3150215 C6.24858253,14.7782029 5,12.3891015 5,10 C5,4.5 8.5,2 12,2 C15.5,2 19,4.5 19,10 C19,12.3891015 17.7514175,14.7782029 16,16.3150215 L16,17 L16,19 C16,20.1045695 15.1045695,21 14,21 C14,21.5522847 13.5522847,22 13,22 L11,22 C10.4477153,22 10,21.5522847 10,21 C8.8954305,21 8,20.1045695 8,19 L8,17 L8,16.3150164 Z" id="ic_lightbulb" fill="#2D333F" fill-rule="nonzero"></path>
        <path d="M11.4053394,10.5077478 C10.8530546,10.5077478 10.4053394,10.0600326 10.4053394,9.50774783 C10.4053394,8.95546308 10.8530546,8.50774783 11.4053394,8.50774783 C12.9603776,8.50774783 13.9628386,7.92955126 14.2861324,6.6073743 C14.4173104,6.07089433 14.9585542,5.74233221 15.4950342,5.87351027 C16.0315141,6.00468833 16.3600763,6.5459321 16.2288982,7.08241207 C15.6540785,9.43325691 13.7911561,10.5077478 11.4053394,10.5077478 Z" id="ic_lightbulb_sheen" fill="#2D333F" fill-rule="nonzero" transform="translate(13.331544, 8.176204) rotate(-90.000000) translate(-13.331544, -8.176204) "></path>
    </g>
</svg>