<svg width="24" height="24" viewBox="0 0 24 24" fill="none" xmlns="http://www.w3.org/2000/svg">
<path fill-rule="evenodd" clip-rule="evenodd" d="M12 3C16.9706 3 21 7.02944 21 12C21 16.9706 16.9706 21 12 21C7.02944 21 3 16.9706 3 12C3 7.02944 7.02944 3 12 3ZM8.02441 13C8.00828 12.6717 8 12.338 8 12C8 11.662 8.00828 11.3283 8.02441 11H5.07089C5.02417 11.3266 5 11.6605 5 12C5 12.3395 5.02417 12.6734 5.07089 13H8.02441ZM8.22761 15H5.67363C6.3957 16.52 7.64943 17.7385 9.1945 18.4151C8.76601 17.4664 8.43213 16.3019 8.22761 15ZM10.2554 15H13.7446C13.567 15.9951 13.3075 16.8615 13.0008 17.5517C12.7068 18.2133 12.4084 18.6248 12.1782 18.8439C12.0963 18.9219 12.0371 18.9634 12 18.9848C11.9629 18.9634 11.9037 18.9219 11.8218 18.8439C11.5916 18.6248 11.2932 18.2133 10.9992 17.5517C10.6925 16.8615 10.433 15.9951 10.2554 15ZM13.9729 13H10.0271C10.0093 12.6744 10 12.3407 10 12C10 11.6593 10.0093 11.3256 10.0271 11H13.9729C13.9907 11.3256 14 11.6593 14 12C14 12.3407 13.9907 12.6744 13.9729 13ZM15.7724 15C15.5679 16.3019 15.234 17.4664 14.8055 18.4151C16.3506 17.7385 17.6043 16.52 18.3264 15H15.7724ZM18.9291 13H15.9756C15.9917 12.6717 16 12.338 16 12C16 11.662 15.9917 11.3283 15.9756 11H18.9291C18.9758 11.3266 19 11.6605 19 12C19 12.3395 18.9758 12.6734 18.9291 13ZM10.9992 6.44832C10.6925 7.13847 10.433 8.0049 10.2554 9H13.7446C13.567 8.0049 13.3075 7.13847 13.0008 6.44832C12.7068 5.78673 12.4084 5.37516 12.1782 5.15605C12.0963 5.07812 12.0371 5.03659 12 5.01516C11.9629 5.03659 11.9037 5.07812 11.8218 5.15605C11.5916 5.37516 11.2932 5.78673 10.9992 6.44832ZM15.7724 9H18.3264C17.6043 7.48001 16.3506 6.26152 14.8055 5.58487C15.234 6.53363 15.5679 7.69807 15.7724 9ZM5.67363 9H8.22761C8.43213 7.69807 8.76601 6.53363 9.1945 5.58487C7.64943 6.26152 6.3957 7.48001 5.67363 9Z" fill="#2D333F"/>
</svg>
