<?xml version="1.0" encoding="UTF-8"?>
<svg width="24px" height="24px" viewBox="0 0 24 24" version="1.1" xmlns="http://www.w3.org/2000/svg" xmlns:xlink="http://www.w3.org/1999/xlink">
    <!-- Generator: Sketch 50.2 (55047) - http://www.bohemiancoding.com/sketch -->
    <title>icon/ic_menu</title>
    <desc>Created with Sketch.</desc>
    <defs></defs>
    <g id="icon/ic_menu" stroke="none" stroke-width="1" fill="none" fill-rule="evenodd">
        <path d="M11,6.35584416 L5,4.99955455 L5,17.618935 L11,18.9659174 L11,6.35584416 Z M13,6.35627003 L13,18.9654613 L19,17.6157419 L19,5.00253564 L13,6.35627003 Z M5.44175055,3.09665498 L11.5664986,4.48371798 C11.8520165,4.54837883 12.1482485,4.54957157 12.4342779,4.48721197 L18.5739712,3.14864758 C19.6531898,2.91335837 20.7188089,3.5974983 20.9540981,4.67671689 C20.9846111,4.81667294 21,4.95950207 21,5.1027457 L21,17.6172341 C21,18.5576289 20.3448572,19.3710019 19.4260472,19.5713282 L12.4342964,21.0957257 C12.1482551,21.1580907 11.85201,21.1568979 11.5664802,21.0922316 L4.55823111,19.5050141 C3.64694685,19.2986278 3,18.4887771 3,17.5544141 L3,5.04725911 C3,3.94268961 3.8954305,3.04725911 5,3.04725911 C5.14862816,3.04725911 5.2967932,3.0638267 5.44175055,3.09665498 Z" id="ic_menu" fill="#2D333F"></path>
    </g>
</svg>