<?xml version="1.0" encoding="UTF-8"?>
<svg width="24px" height="24px" viewBox="0 0 24 24" version="1.1" xmlns="http://www.w3.org/2000/svg" xmlns:xlink="http://www.w3.org/1999/xlink" style="background: #FFFFFF;">
    <!-- Generator: Sketch 61 (89581) - https://sketch.com -->
    <title>icon/line/ic_megaphone/Light UI/Default</title>
    <desc>Created with Sketch.</desc>
    <g id="icon/line/ic_megaphone/Light-UI/Default" stroke="none" stroke-width="1" fill="none" fill-rule="evenodd">
        <rect fill="#FFFFFF" opacity="0" x="0" y="0" width="24" height="24"></rect>
        <g id="Megaphone-(3)" transform="translate(2.000000, 2.000000)" fill="#000000" fill-rule="nonzero">
            <path d="M16,0 L16.1535465,0.005260464 C18.5394984,0.169636931 20,4.16503635 20,9 C20,13.9378352 18.4766882,18 16,18 C15.7502529,18 15.5102003,17.9586938 15.2804265,17.8793487 C14.2468354,17.6180968 12.4249209,16.9412289 10.0014557,15.9511605 L10,17 C10,18.6568847 8.65688475,20 7,20 C5.40231088,20 4.09633853,18.7511009 4.00509266,17.176275 L4,17 L4.00083388,13.4071975 C3.28471302,13.096075 2.54483037,12.7727729 1.78330322,12.4384543 C0.757143949,11.9879764 0.0786230832,11.0054944 0.00639903409,9.89711972 L0,9.7003 L0,8.2997 C0,7.11192255 0.696761696,6.03858105 1.78327887,5.56157644 L5.68960233,3.86285999 C10.2825652,1.88886723 13.7021536,0.519435499 15.2821665,0.120200767 C15.5108892,0.0411877964 15.7506113,0 16,0 L15.922635,0.00266760025 C15.9500994,0.00089225085 15.9758933,0 16,0 Z M6.00102738,14.2708144 L6,17 C6,17.5523026 6.44770207,18 7,18 C7.51286416,18 7.93551121,17.6139861 7.9932727,17.1166268 L8,17 L8.00131029,15.1209236 C7.36407235,14.8528264 6.6965163,14.5690199 6.00102738,14.2708144 Z M16,2 C15.1629797,2 14,5.10127922 14,9 C14,12.8987208 15.1629797,16 16,16 C16.8370203,16 18,12.8987208 18,9 C18,5.10127922 16.8370203,2 16,2 Z M12.9155973,3.04084359 L12.7098948,3.12224105 C10.9271579,3.82436963 8.57442994,4.80446574 5.9955069,5.91225825 L6,6 L6,12.09 L6.0406157,12.1071048 C8.70331992,13.2505081 11.1217647,14.2563839 12.9170866,14.9591177 C12.3238189,13.3671225 12,11.2766343 12,9 L12,9 L12.0019783,8.69255431 C12.0298111,6.53546261 12.3505589,4.56094019 12.9155973,3.04084359 Z M2.58725799,7.39286494 C2.26921554,7.53249247 2.05257558,7.82729707 2.00835981,8.16940351 L2,8.2997 L2,9.7003 C2,10.0965719 2.22948071,10.450093 2.58724959,10.6071514 L4,11.221 L4.00035133,6.77511031 C3.53296812,6.97855159 3.06132325,7.18473807 2.58725799,7.39286494 Z" id="Combined-Shape"></path>
        </g>
    </g>
</svg>