<?xml version="1.0" encoding="UTF-8"?>
<svg width="24px" height="24px" viewBox="0 0 24 24" version="1.1" xmlns="http://www.w3.org/2000/svg" xmlns:xlink="http://www.w3.org/1999/xlink">
    <!-- Generator: Sketch 50.2 (55047) - http://www.bohemiancoding.com/sketch -->
    <title>icon/ic_metric_change_up</title>
    <desc>Created with Sketch.</desc>
    <defs></defs>
    <g id="icon/ic_metric_change_up" stroke="none" stroke-width="1" fill="none" fill-rule="evenodd">
        <path d="M13.0014037,7.42685918 L13.0014037,19 C13.0014037,19.5522847 12.5536885,20 12.0014037,20 L11.9985963,20 C11.4463115,20 10.9985963,19.5522847 10.9985963,19 L10.9985963,7.42884437 L8.4624809,9.96495973 C8.07195661,10.355484 7.43879163,10.355484 7.04826734,9.96495973 L7.04628215,9.96297454 C6.65575786,9.57245025 6.65575786,8.93928527 7.04628215,8.54876098 L11.2099025,4.38514062 C11.3929136,4.1507221 11.6781534,4 11.9985963,4 L12.0014037,4 C12.3257954,4 12.6141111,4.1544597 12.7968166,4.39384488 L16.9566956,8.55372395 C17.3472199,8.94424824 17.3472199,9.57741322 16.9566956,9.96793752 C16.5661713,10.3584618 15.9330064,10.3584618 15.5424821,9.96793752 L13.0014037,7.42685918 Z" id="up" fill="#000000"></path>
    </g>
</svg>