<?xml version="1.0" encoding="UTF-8"?>
<svg width="24px" height="24px" viewBox="0 0 24 24" version="1.1" xmlns="http://www.w3.org/2000/svg" xmlns:xlink="http://www.w3.org/1999/xlink">
    <!-- Generator: Sketch 53.2 (72643) - https://sketchapp.com -->
    <title>icon/action/ic_merge/Light UI - Default</title>
    <desc>Created with Sketch.</desc>
    <g id="icon/action/ic_merge/Light-UI---Default" stroke="none" stroke-width="1" fill="none" fill-rule="evenodd">
        <path d="M10.8594055,8.23810663 L8.89909782,10.1750257 C8.65787206,10.4133734 8.26676784,10.4133734 8.02554209,10.1750257 L7.15971227,9.31952616 C6.91848651,9.0811785 6.91848651,8.69474057 7.15971227,8.4563929 L10.5413106,5.11514072 C10.5627986,5.08397437 10.5875317,5.05433803 10.6155098,5.0266938 L11.4736817,4.17876076 C11.7149075,3.94041308 12.1060118,3.94041308 12.3472374,4.17876076 L16.6918383,8.47152591 C16.9330642,8.70987357 16.9330642,9.09631149 16.6918383,9.33465916 L15.8336665,10.1825922 C15.5924406,10.4209399 15.2013364,10.4209399 14.9601107,10.1825922 L13.2048277,8.44825159 C13.1889565,9.41692048 13.1467211,10.3190202 13.0774464,11.1552495 C13.1413201,12.9737814 13.4260806,14.3692226 13.913625,15.3325388 C14.5481005,16.5861693 15.8362774,17.2991446 17.9344408,17.4403219 C18.5615642,17.4825186 19.0375843,18.0540662 18.9976616,18.7169093 C18.9577388,19.3797523 18.416991,19.8828855 17.7898676,19.8406888 C14.9771748,19.6514336 12.9682722,18.5442291 11.9178472,16.4882508 C10.9164788,18.7060763 8.942738,19.8801771 6.18414766,19.998984 C5.55627581,20.0260252 5.0265452,19.5099647 5.00096123,18.8463306 C4.97537726,18.1826965 5.46362805,17.6227936 6.0914999,17.5957524 C8.06290483,17.5108479 9.25849103,16.7984931 9.86648207,15.4470756 C10.317409,14.4447737 10.6317827,12.9874009 10.7981389,11.0868244 C10.7730115,10.2070989 10.7938517,9.25773484 10.8594055,8.23810663 Z" id="ic_merge" fill="#2D333F" fill-rule="nonzero"></path>
    </g>
</svg>