<svg width="24" height="24" viewBox="0 0 24 24" fill="none" xmlns="http://www.w3.org/2000/svg">
<path fill-rule="evenodd" clip-rule="evenodd" d="M19 4H5C3.89543 4 3 4.89543 3 6V15C3 16.1046 3.89543 17 5 17H11L15.36 20.63C15.6583 20.8785 16.0735 20.9318 16.425 20.7668C16.7765 20.6018 17.0006 20.2483 17 19.86V17H19C20.1046 17 21 16.1046 21 15V6C21 4.89543 20.1046 4 19 4ZM7.75 9.5C7.05964 9.5 6.5 10.0596 6.5 10.75C6.5 11.4404 7.05964 12 7.75 12C8.44036 12 9 11.4404 9 10.75C9 10.0596 8.44036 9.5 7.75 9.5ZM11 10.75C11 10.0596 11.5596 9.5 12.25 9.5C12.9404 9.5 13.5 10.0596 13.5 10.75C13.5 11.4404 12.9404 12 12.25 12C11.5596 12 11 11.4404 11 10.75ZM16.25 9.5C15.5596 9.5 15 10.0596 15 10.75C15 11.4404 15.5596 12 16.25 12C16.9404 12 17.5 11.4404 17.5 10.75C17.5 10.0596 16.9404 9.5 16.25 9.5Z" fill="#2D333F"/>
</svg>
