<?xml version="1.0" encoding="UTF-8"?>
<svg width="26px" height="26px" viewBox="0 0 26 26" version="1.1" xmlns="http://www.w3.org/2000/svg" xmlns:xlink="http://www.w3.org/1999/xlink">
    <!-- Generator: Sketch 50.2 (55047) - http://www.bohemiancoding.com/sketch -->
    <title>icon/ic_map</title>
    <desc>Created with Sketch.</desc>
    <defs></defs>
    <g id="icon/ic_map" stroke="none" stroke-width="1" fill="none" fill-rule="evenodd" transform="translate(13.000000, 5471.000000) scale(-1, 1) translate(-13.000000, -5471.000000) ">
        <path d="M11,5.31128268 L11,19.4774662 C11.0287304,19.485452 11.0573922,19.4937647 11.08598,19.5024043 L15,20.6852714 L15,6.53388852 C14.9592528,6.522812 14.9186408,6.51107952 14.8781796,6.49869123 L11,5.31128268 Z M9,5.24477987 L5,6.29870948 L5,20.5002647 L8.9034206,19.4650327 C8.9355385,19.4565147 8.96773416,19.4484042 8.99999999,19.4407012 L9,5.24477987 Z M17,6.55931084 L17,20.7480597 L21,19.6971978 L20.9905189,5.50442328 L17.0721542,6.54094057 C17.0481449,6.54729169 17.0240925,6.55341507 17,6.55931079 Z M4.49319028,4.35724669 L9.45119817,3.05847178 C9.80998837,2.9644849 10.1878462,2.97211886 10.5425475,3.08052059 L15.4574525,4.58258515 C15.8121538,4.69098688 16.1900116,4.69862084 16.5488018,4.60463396 L20.4931903,3.57138172 C21.561707,3.29147844 22.6548173,3.93077593 22.9347206,4.99929262 C22.9780612,5.16474303 23,5.33506948 23,5.50610235 L23,19.7079877 C23,20.6173653 22.3865055,21.4122677 21.5068097,21.6427084 L16.5486432,22.9415248 C16.1899528,23.0354856 15.8122033,23.0278825 15.4575842,22.9195647 L10.5392748,21.4172757 C10.1845815,21.3089353 9.80674959,21.3013521 9.44799482,21.3953735 L5.50703062,22.4282096 C4.43854589,22.7082348 3.34536253,22.0690622 3.06533725,21.0005774 C3.02195842,20.835058 3,20.6646561 3,20.4935468 L3,6.29196732 C3,5.38258971 3.61349447,4.5876874 4.49319028,4.35724669 Z" id="ic_map" fill="#2D333F"></path>
    </g>
</svg>