<?xml version="1.0" encoding="UTF-8"?>
<svg width="24px" height="24px" viewBox="0 0 24 24" version="1.1" xmlns="http://www.w3.org/2000/svg" xmlns:xlink="http://www.w3.org/1999/xlink">
  <path fill="#000000" fill-rule="nonzero" d="M18 2l.154.005C20.539 2.17 22 6.165 22 11c0 4.938-1.523 9-4 9-.25 0-.49-.041-.72-.12-1.033-.262-2.855-.939-5.279-1.929L12 19a3 3 0 01-5.995.176L6 19v-3.593a633.79 633.79 0 01-2.217-.969 2.983 2.983 0 01-1.777-2.54L2 11.7v-1.4c0-1.188.697-2.261 1.783-2.738l3.907-1.7c4.593-1.973 8.012-3.343 9.592-3.742.229-.079.469-.12.718-.12l-.077.003L18 2zM8.001 16.27L8 19a1 1 0 001.993.117L10 19l.001-1.88c-.637-.267-1.304-.551-2-.85zM18 4c-.837 0-2 3.101-2 7s1.163 7 2 7 2-3.101 2-7-1.163-7-2-7zm-3.084 1.04l-.206.082a252.894 252.894 0 00-6.714 2.79L8 8v6.09l.04.017c2.663 1.144 5.082 2.15 6.877 2.852C14.324 15.367 14 13.277 14 11l.002-.307c.028-2.158.349-4.132.914-5.652zM4.587 9.394a.982.982 0 00-.579.776L4 10.3V11.7c0 .397.23.75.587.907L6 13.221V8.775l-1.413.618z"/>
</svg>
