<?xml version="1.0" encoding="UTF-8"?>
<svg width="24px" height="24px" viewBox="0 0 24 24" version="1.1" xmlns="http://www.w3.org/2000/svg" xmlns:xlink="http://www.w3.org/1999/xlink" style="background: #FFFFFF;">
    <!-- Generator: Sketch 49.3 (51167) - http://www.bohemiancoding.com/sketch -->
    <title>icon/ic_new_window</title>
    <desc>Created with Sketch.</desc>
    <defs></defs>
    <g id="icon/ic_new_window" stroke="none" stroke-width="1" fill="none" fill-rule="evenodd">
        <path d="M19.5,4 C19.7761424,4 20,4.22385763 20,4.5 L20,9.5 C20,9.77614237 19.7761424,10 19.5,10 L18.5,10 C18.2238576,10 18,9.77614237 18,9.5 L18,7.41 L12.18,13.25 C12.0861167,13.3446563 11.9583188,13.3978992 11.825,13.3978992 C11.6916812,13.3978992 11.5638833,13.3446563 11.47,13.25 L10.76,12.54 C10.6653437,12.4461167 10.6121008,12.3183188 10.6121008,12.185 C10.6121008,12.0516812 10.6653437,11.9238833 10.76,11.83 L16.59,6 L14.5,6 C14.2238576,6 14,5.77614237 14,5.5 L14,4.5 C14,4.22385763 14.2238576,4 14.5,4 L19.5,4 Z M19.5,14 C19.7761424,14 20,14.2238576 20,14.5 L20,18 C20,19.1045695 19.1045695,20 18,20 L6,20 C4.8954305,20 4,19.1045695 4,18 L4,6 C4,4.8954305 4.8954305,4 6,4 L9.5,4 C9.77614237,4 10,4.22385763 10,4.5 L10,5.5 C10,5.77614237 9.77614237,6 9.5,6 L6,6 L6,18 L18,18 L18,14.5 C18,14.2238576 18.2238576,14 18.5,14 L19.5,14 Z" id="ic_new_window" fill="#333333" fill-rule="nonzero"></path>
    </g>
</svg>