<svg xmlns="http://www.w3.org/2000/svg" viewBox="0 0 24 24"><path fill-rule="evenodd" clip-rule="evenodd" d="M3.21965 20.0405C2.82913 19.6499 2.82913 19.0168 3.21965 18.6263L18.4808 3.36516C18.8713 2.97463 19.5044 2.97463 19.895 3.36516C20.2855 3.75568 20.2855 4.38885 19.895 4.77937L4.63386 20.0405C4.24334 20.431 3.61018 20.431 3.21965 20.0405Z" fill="currentColor" fill-rule="nonzero"/><path fill-rule="evenodd" clip-rule="evenodd" d="M19.4789 15.9851L17.2404 13.7465C16.6677 13.1739 15.7548 13.1584 15.2014 13.7118C15.0803 13.8329 14.9956 13.9858 14.9562 14.1541L14.7205 15.1611C14.5205 16.0161 13.5253 16.1923 12.8888 15.5557L12.4184 15.0853L10.3543 17.1494L11.4681 18.2632C13.7292 20.5244 17.3344 20.5861 19.52 18.4005C20.1756 17.7449 20.1572 16.6634 19.4789 15.9851ZM8.94007 15.7352L11.0042 13.6711L8.4444 11.1113C7.80791 10.4749 7.98412 9.47969 8.83911 9.27963L9.84611 9.04401C10.0144 9.00463 10.1672 8.91987 10.2883 8.79878C10.8418 8.24532 10.8263 7.33245 10.2537 6.75983L8.0151 4.52127C7.33675 3.84292 6.25531 3.82453 5.59964 4.48019C3.41409 6.66574 3.4758 10.2709 5.73698 12.5321L8.94007 15.7352Z" fill="currentColor" fill-rule="nonzero"/></svg>
