<?xml version="1.0" encoding="UTF-8"?>
<svg width="24px" height="24px" viewBox="0 0 24 24" version="1.1" xmlns="http://www.w3.org/2000/svg" xmlns:xlink="http://www.w3.org/1999/xlink">
    <!-- Generator: Sketch 49.3 (51167) - http://www.bohemiancoding.com/sketch -->
    <title>icon/ic_neighborhood</title>
    <desc>Created with Sketch.</desc>
    <defs></defs>
    <g id="icon/ic_neighborhood" stroke="none" stroke-width="1" fill="none" fill-rule="evenodd">
        <path d="M11.0042221,7.00000436 C11.046625,6.34790658 11.405963,5.75411959 11.9710085,5.41509227 L14.9710085,3.61509227 C15.6043733,3.23507341 16.3956267,3.23507341 17.0289915,3.61509227 L20.0289915,5.41509227 C20.6314023,5.77653877 21,6.42755242 21,7.13007812 L21,17.9976974 C21,19.1022669 20.1045695,19.9976974 19,19.9976974 L11.0968245,19.9976974 C11.0647419,19.9992266 11.0324613,20 11,20 L5,20 C3.8954305,20 3,19.1045695 3,18 L3,9 C3,7.8954305 3.8954305,7 5,7 L11,7 C11.0014077,7 11.0028151,7.00000145 11.0042221,7.00000436 Z M11,9 L5,9 L5,18 L11,18 L11,9 Z M13,7 L13,18.0000782 L19,18.0000782 L19,7 L16,5.07741671 L13,7 Z M7.5,11 L8.5,11 C8.77614237,11 9,11.2238576 9,11.5 L9,12.5 C9,12.7761424 8.77614237,13 8.5,13 L7.5,13 C7.22385763,13 7,12.7761424 7,12.5 L7,11.5 C7,11.2238576 7.22385763,11 7.5,11 Z M7.5,14 L8.5,14 C8.77614237,14 9,14.2238576 9,14.5 L9,15.5 C9,15.7761424 8.77614237,16 8.5,16 L7.5,16 C7.22385763,16 7,15.7761424 7,15.5 L7,14.5 C7,14.2238576 7.22385763,14 7.5,14 Z M15.5,11 L16.5,11 C16.7761424,11 17,11.2238576 17,11.5 L17,12.5 C17,12.7761424 16.7761424,13 16.5,13 L15.5,13 C15.2238576,13 15,12.7761424 15,12.5 L15,11.5 C15,11.2238576 15.2238576,11 15.5,11 Z M15.5,14 L16.5,14 C16.7761424,14 17,14.2238576 17,14.5 L17,15.5 C17,15.7761424 16.7761424,16 16.5,16 L15.5,16 C15.2238576,16 15,15.7761424 15,15.5 L15,14.5 C15,14.2238576 15.2238576,14 15.5,14 Z M15.5,8 L16.5,8 C16.7761424,8 17,8.22385763 17,8.5 L17,9.5 C17,9.77614237 16.7761424,10 16.5,10 L15.5,10 C15.2238576,10 15,9.77614237 15,9.5 L15,8.5 C15,8.22385763 15.2238576,8 15.5,8 Z" id="ic_neighborhood" fill="#333333"></path>
    </g>
</svg>