<svg width="24" height="24" viewBox="0 0 24 24" fill="none" xmlns="http://www.w3.org/2000/svg">
<path fill-rule="evenodd" clip-rule="evenodd" d="M20.5602 2.22539C20.154 1.88292 19.5491 1.93679 19.2092 2.3457L16.9558 5.05657H4.8C3.80589 5.05657 3 5.83382 3 6.7926V17.2088C3 18.1675 3.80589 18.9448 4.8 18.9448H5.41095L4.18952 20.4141C3.8496 20.823 3.90334 21.4322 4.30953 21.7746C4.71573 22.1171 5.32057 22.0632 5.66049 21.6543L20.6802 3.58587C21.0201 3.17696 20.9664 2.56785 20.5602 2.22539ZM6.85405 17.2088L11.1834 12.0007H4.8V17.2088H6.85405ZM14.1785 8.39759L15.5127 6.7926H4.8V8.52862L14.1785 8.39759Z" fill="#2D333F"/>
<path d="M19.2 17.2088H11.8232L10.3764 18.9448H19.2C20.1941 18.9448 21 18.1675 21 17.2088V6.7926C21 6.61757 20.9731 6.44858 20.9232 6.28928L16.1635 12.0007H19.2V17.2088Z" fill="#2D333F"/>
</svg>
