<?xml version="1.0" encoding="UTF-8"?>
<svg width="24px" height="24px" viewBox="0 0 24 24" version="1.1" xmlns="http://www.w3.org/2000/svg" xmlns:xlink="http://www.w3.org/1999/xlink">
    <!-- Generator: Sketch 49 (51002) - http://www.bohemiancoding.com/sketch -->
    <title>icon/details/ic_noise_level</title>
    <desc>Created with Sketch.</desc>
    <defs></defs>
    <g id="icon/details/ic_noise_level" stroke="none" stroke-width="1" fill="none" fill-rule="evenodd">
        <path d="M16,4 L18,4 C18.2761424,4 18.5,4.22385763 18.5,4.5 L18.5,19.5 C18.5,19.7761424 18.2761424,20 18,20 L16,20 C15.7238576,20 15.5,19.7761424 15.5,19.5 L15.5,4.5 C15.5,4.22385763 15.7238576,4 16,4 Z M11,9 L13,9 C13.2761424,9 13.5,9.22385763 13.5,9.5 L13.5,19.5 C13.5,19.7761424 13.2761424,20 13,20 L11,20 C10.7238576,20 10.5,19.7761424 10.5,19.5 L10.5,9.5 C10.5,9.22385763 10.7238576,9 11,9 Z M6,14 L8,14 C8.27614237,14 8.5,14.2238576 8.5,14.5 L8.5,19.5 C8.5,19.7761424 8.27614237,20 8,20 L6,20 C5.72385763,20 5.5,19.7761424 5.5,19.5 L5.5,14.5 C5.5,14.2238576 5.72385763,14 6,14 Z" id="Combined-Shape" fill="#333333"></path>
    </g>
</svg>