<?xml version="1.0" encoding="UTF-8"?>
<svg width="24px" height="24px" viewBox="0 0 24 24" version="1.1" xmlns="http://www.w3.org/2000/svg" xmlns:xlink="http://www.w3.org/1999/xlink">
    <!-- Generator: Sketch 50.2 (55047) - http://www.bohemiancoding.com/sketch -->
    <title>icon/ic_negative</title>
    <desc>Created with Sketch.</desc>
    <defs></defs>
    <g id="icon/ic_negative" stroke="none" stroke-width="1" fill="none" fill-rule="evenodd">
        <path d="M12,21 C7.02943725,21 3,16.9705627 3,12 C3,7.02943725 7.02943725,3 12,3 C16.9705627,3 21,7.02943725 21,12 C21,16.9705627 16.9705627,21 12,21 Z M11.5,8 C11.2238576,8 11,8.22385763 11,8.5 L11,12.5 C11,12.7761424 11.2238576,13 11.5,13 L12.5,13 C12.7761424,13 13,12.7761424 13,12.5 L13,8.5 C13,8.22385763 12.7761424,8 12.5,8 L11.5,8 Z M11.5,15 C11.2238576,15 11,15.2238576 11,15.5 L11,16.5 C11,16.7761424 11.2238576,17 11.5,17 L12.5,17 C12.7761424,17 13,16.7761424 13,16.5 L13,15.5 C13,15.2238576 12.7761424,15 12.5,15 L11.5,15 Z" id="ic_negative" fill="#2D333F"></path>
    </g>
</svg>