<?xml version="1.0" encoding="UTF-8"?>
<svg width="24px" height="24px" viewBox="0 0 24 24" version="1.1" xmlns="http://www.w3.org/2000/svg" xmlns:xlink="http://www.w3.org/1999/xlink">
    <!-- Generator: Sketch 51.1 (57501) - http://www.bohemiancoding.com/sketch -->
    <title>Icon/Fill/ic_notes_fill</title>
    <desc>Created with Sketch.</desc>
    <defs></defs>
    <g id="Icon/Fill/ic_notes_fill" stroke="none" stroke-width="1" fill="none" fill-rule="evenodd">
        <path d="M6,17 L4.5,17 C4.22385763,17 4,16.7761424 4,16.5 L4,15.5 C4,15.2238576 4.22385763,15 4.5,15 L6,15 L6,13 L4.5,13 C4.22385763,13 4,12.7761424 4,12.5 L4,11.5 C4,11.2238576 4.22385763,11 4.5,11 L6,11 L6,9 L4.5,9 C4.22385763,9 4,8.77614237 4,8.5 L4,7.5 C4,7.22385763 4.22385763,7 4.5,7 L6,7 L6,6 C6,4.8954305 6.8954305,4 8,4 L17,4 C18.1045695,4 19,4.8954305 19,6 L19,18 C19,19.1045695 18.1045695,20 17,20 L8,20 C6.8954305,20 6,19.1045695 6,18 L6,17 Z M9.5,7 C9.22385763,7 9,7.22385763 9,7.5 L9,8.5 C9,8.77614237 9.22385763,9 9.5,9 L15.5,9 C15.7761424,9 16,8.77614237 16,8.5 L16,7.5 C16,7.22385763 15.7761424,7 15.5,7 L9.5,7 Z M9.5,11 C9.22385763,11 9,11.2238576 9,11.5 L9,12.5 C9,12.7761424 9.22385763,13 9.5,13 L15.5,13 C15.7761424,13 16,12.7761424 16,12.5 L16,11.5 C16,11.2238576 15.7761424,11 15.5,11 L9.5,11 Z M9.5,15 C9.22385763,15 9,15.2238576 9,15.5 L9,16.5 C9,16.7761424 9.22385763,17 9.5,17 L15.5,17 C15.7761424,17 16,16.7761424 16,16.5 L16,15.5 C16,15.2238576 15.7761424,15 15.5,15 L9.5,15 Z" id="ic_notes_fill" fill="#2D333F"></path>
    </g>
</svg>