<?xml version="1.0" encoding="UTF-8"?>
<svg width="24px" height="24px" viewBox="0 0 24 24" version="1.1" xmlns="http://www.w3.org/2000/svg" xmlns:xlink="http://www.w3.org/1999/xlink">
    <!-- Generator: Sketch 51.1 (57501) - http://www.bohemiancoding.com/sketch -->
    <title>Icon/Fill/ic_ot_reservation_fill</title>
    <desc>Created with Sketch.</desc>
    <defs></defs>
    <g id="Icon/Fill/ic_ot_reservation_fill" stroke="none" stroke-width="1" fill="none" fill-rule="evenodd">
        <path d="M4.5,8.99715203 C4.5,7.34187067 5.84435073,6 7.49942248,6 L16.5005775,6 C18.1571128,6 19.5,7.34162278 19.5,8.99715203 L19.5,15.002848 C19.5,16.6581293 18.1556493,18 16.5005775,18 L7.49942248,18 C5.84288718,18 4.5,16.6583772 4.5,15.002848 L4.5,8.99715203 Z M13.5814,15.8430233 C11.5161864,15.8430233 9.84199999,14.1530283 9.84199999,12.068314 C9.84199999,9.98359957 11.5161864,8.29360465 13.5814,8.29360465 C15.6466136,8.29360465 17.3208,9.98359957 17.3208,12.068314 C17.3208,14.1530283 15.6466136,15.8430233 13.5814,15.8430233 Z M13.5814,13.0119913 C14.0977034,13.0119913 14.51625,12.5894925 14.51625,12.068314 C14.51625,11.5471354 14.0977034,11.1246366 13.5814,11.1246366 C13.0650966,11.1246366 12.64655,11.5471354 12.64655,12.068314 C12.64655,12.5894925 13.0650966,13.0119913 13.5814,13.0119913 Z M7.57165,13.1468023 C7.0553466,13.1468023 6.6368,12.7243036 6.6368,12.203125 C6.6368,11.6819464 7.0553466,11.2594477 7.57165,11.2594477 C8.08795339,11.2594477 8.5065,11.6819464 8.5065,12.203125 C8.5065,12.7243036 8.08795339,13.1468023 7.57165,13.1468023 Z" id="ic_ot_reservation_fill" fill="#2D333F"></path>
    </g>
</svg>