<svg width="24" height="24" viewBox="0 0 24 24" fill="none" xmlns="http://www.w3.org/2000/svg">
<path d="M20.6472 2.23517C20.2232 1.88125 19.5841 1.93081 19.2198 2.34585L15.6081 6.46C9.63686 5.06495 4.59889 7.32025 2.37849 9.10353C1.94789 9.44936 1.87917 10.0788 2.225 10.5094C2.57083 10.94 3.20025 11.0087 3.63086 10.6629C5.35062 9.28169 9.27963 7.45151 14.0784 8.20255L12.1099 10.4448C9.91885 10.3913 7.78489 11.0382 6.16773 12.337C5.73713 12.6828 5.66841 13.3122 6.01424 13.7428C6.36007 14.1734 6.9895 14.2422 7.4201 13.8963C8.19721 13.2722 9.15832 12.8373 10.2054 12.6144L3.44682 20.3132C3.08246 20.7282 3.1308 21.3516 3.55478 21.7055L3.61971 21.7597C4.04369 22.1136 4.68276 22.0641 5.04712 21.649L20.8201 3.6817C21.1844 3.26665 21.1361 2.64328 20.7121 2.28937L20.6472 2.23517Z" fill="#2D333F"/>
<path d="M16.5198 11.5436L15.1482 13.1108C15.6636 13.3299 16.1653 13.6046 16.6427 13.9372C17.0959 14.2529 17.7192 14.1414 18.0349 13.6882C18.3506 13.2351 18.2391 12.6118 17.7859 12.2961C17.3782 12.0121 16.9548 11.7614 16.5198 11.5436Z" fill="#2D333F"/>
<path d="M13.426 15.0785L10.4648 18.4618L11.7216 19.7099C11.809 19.7968 11.928 19.8457 12.0522 19.8457C12.1764 19.8457 12.2954 19.7968 12.3828 19.7099L15.3612 16.7518C15.4533 16.6628 15.504 16.5404 15.5014 16.4135C15.4988 16.2865 15.443 16.1663 15.3473 16.0811C14.7715 15.6018 14.1147 15.2676 13.426 15.0785Z" fill="#2D333F"/>
<path d="M19.662 7.95338L18.297 9.51297C19.0094 9.84836 19.731 10.2486 20.4585 10.7216C20.9215 11.0226 21.5409 10.8913 21.842 10.4283C22.143 9.96526 22.0117 9.34586 21.5487 9.04482C20.9159 8.63343 20.2864 8.27096 19.662 7.95338Z" fill="#2D333F"/>
</svg>
