<svg width="20" height="18" viewbox="0 0 20 18" fill="none" xmlns="http://www.w3.org/2000/svg">
  <path fill-rule="evenodd" clip-rule="evenodd" d="M10 7a6 6 0 0 0-6 6H2a8 8 0 0 1 16 0h-2a6 6 0 0 0-6-6Z" fill="#2D333F"/>
  <path d="M0 13a1 1 0 0 1 1-1h18a1 1 0 1 1 0 2H1a1 1 0 0 1-1-1ZM2 17a1 1 0 0 1 1-1h2a1 1 0 1 1 0 2H3a1 1 0 0 1-1-1ZM0 8a1 1 0 1 1 2 0 1 1 0 0 1-2 0ZM18 8a1 1 0 1 1 2 0 1 1 0 0 1-2 0ZM1.707 3.707a1 1 0 0 1 1.414 0l.707.707A1 1 0 0 1 2.414 5.83l-.707-.708a1 1 0 0 1 0-1.414ZM6.966.259a1 1 0 0 1 1.225.707l.517 1.932a1 1 0 1 1-1.932.518L6.26 1.484A1 1 0 0 1 6.966.259Z" fill="#2D333F"/>
  <path d="M19.967 8a1 1 0 1 0-2 0 1 1 0 0 0 2 0ZM18.26 3.707a1 1 0 0 0-1.414 0l-.707.707a1 1 0 1 0 1.414 1.415l.707-.708a1 1 0 0 0 0-1.414ZM13.001.259a1 1 0 0 0-1.224.707l-.518 1.932a1 1 0 0 0 1.932.518l.517-1.932a1 1 0 0 0-.707-1.225ZM8 17a1 1 0 0 1 1-1h8a1 1 0 1 1 0 2H9a1 1 0 0 1-1-1Z" fill="#2D333F"/>
</svg>
