<svg width="24" height="24" viewBox="0 0 24 24" fill="none" xmlns="http://www.w3.org/2000/svg">
  <path fill-rule="evenodd" clip-rule="evenodd" d="M12 10a6 6 0 0 0-6 6H4a8 8 0 1 1 16 0h-2a6 6 0 0 0-6-6Z" fill="#2D333F"/>
  <path d="M2 16a1 1 0 0 1 1-1h18a1 1 0 1 1 0 2H3a1 1 0 0 1-1-1ZM4 20a1 1 0 0 1 1-1h2a1 1 0 1 1 0 2H5a1 1 0 0 1-1-1ZM2 11a1 1 0 1 1 2 0 1 1 0 0 1-2 0ZM20 11a1 1 0 1 1 2 0 1 1 0 0 1-2 0ZM3.707 6.707a1 1 0 0 1 1.414 0l.707.707A1 1 0 0 1 4.414 8.83l-.707-.708a1 1 0 0 1 0-1.414ZM8.966 3.259a1 1 0 0 1 1.225.707l.517 1.932a1 1 0 1 1-1.932.518L8.26 4.484a1 1 0 0 1 .707-1.225Z" fill="#2D333F"/>
  <path d="M21.967 11a1 1 0 1 0-2 0 1 1 0 0 0 2 0ZM20.26 6.707a1 1 0 0 0-1.414 0l-.707.707a1 1 0 1 0 1.414 1.415l.707-.708a1 1 0 0 0 0-1.414ZM15.001 3.259a1 1 0 0 0-1.224.707l-.518 1.932a1 1 0 0 0 1.932.518l.517-1.932a1 1 0 0 0-.707-1.225ZM10 20a1 1 0 0 1 1-1h8a1 1 0 1 1 0 2h-8a1 1 0 0 1-1-1Z" fill="#2D333F"/>
</svg>
