<svg width="24" height="24" viewBox="0 0 24 24" fill="none" xmlns="http://www.w3.org/2000/svg">
<path d="M3.6311 10.6628C6.07021 8.70386 12.9533 5.84179 20.4587 10.7215C20.9218 11.0225 21.5412 10.8912 21.8422 10.4282C22.1432 9.96516 22.0119 9.34576 21.5489 9.04472C13.1395 3.57734 5.30772 6.75107 2.37874 9.10343C1.94813 9.44926 1.87941 10.0787 2.22524 10.5093C2.57107 10.9399 3.2005 11.0086 3.6311 10.6628Z" fill="#2D333F"/>
<path d="M7.42034 13.8962C9.7281 12.0428 13.6586 11.8582 16.643 13.9371C17.0962 14.2528 17.7194 14.1413 18.0351 13.6881C18.3508 13.235 18.2393 12.6117 17.7862 12.296C14.1394 9.75572 9.22832 9.87903 6.16798 12.3369C5.73737 12.6827 5.66865 13.3121 6.01448 13.7427C6.36031 14.1733 6.98974 14.2421 7.42034 13.8962Z" fill="#2D333F"/>
<path d="M15.5016 16.4134C15.5043 16.5403 15.4536 16.6627 15.3615 16.7517L12.383 19.7098C12.2957 19.7967 12.1766 19.8456 12.0524 19.8456C11.9282 19.8456 11.8092 19.7967 11.7219 19.7098L8.74292 16.7517C8.65089 16.6627 8.60027 16.5402 8.60299 16.4133C8.60572 16.2863 8.66156 16.1661 8.75733 16.081C10.6595 14.4977 13.4454 14.4977 15.3475 16.081C15.4432 16.1662 15.499 16.2864 15.5016 16.4134Z" fill="#2D333F"/>
</svg>
