<svg width="24" height="24" viewBox="0 0 24 24" fill="none" xmlns="http://www.w3.org/2000/svg"><path d="M4 9.188V21M20 9.188V21M3 21h1M20 21h1" stroke="#2D333F" stroke-width="2" stroke-linecap="round"/><circle cx="12" cy="15.375" r="2.25" stroke="#2D333F" stroke-width="2"/><path d="M16.5 21c-.5-1-2.25-2.25-4.5-2.25S8 20 7.5 21" stroke="#2D333F" stroke-width="2" stroke-linecap="round"/><path d="M17.625 3H6.375L3 7.5c.9 3.15 3.375 2.063 4.5 1.125 1.8 1.8 3.75.75 4.5 0 1.8 1.8 3.75.75 4.5 0 3.15 1.8 4.313 0 4.5-1.125L17.625 3Z" stroke="#2D333F" stroke-width="2" stroke-linejoin="round"/></svg>