<?xml version="1.0" encoding="UTF-8"?>
<svg width="24" height="24" viewBox="0 0 24 24" fill="none" xmlns="http://www.w3.org/2000/svg">
    <path fill-rule="evenodd" clip-rule="evenodd" d="M7.5858 3H18.3559L20.8978 19.2684C21.04 20.1782 20.3366 21 19.4158 21H4.67483C3.66754 21 2.94654 20.0269 3.23982 19.0633L6.30255 9H5.20712C3.87077 9 3.20151 7.38429 4.14646 6.43934L7.5858 3ZM8.39313 9L5.34965 19H12.2425L15.3397 7.98748L14.902 8.48776C14.6172 8.81328 14.2057 9 13.7731 9H8.39313ZM17.2204 8.68784L14.3201 19H18.8316L17.2204 8.68784ZM15.2962 5H8.41423L6.41423 7H13.5462L15.2962 5ZM13.3968 7.17075C13.3967 7.17091 13.397 7.17059 13.3968 7.17075V7.17075Z" fill="#2D333F"/>
</svg>
