<?xml version="1.0" encoding="UTF-8"?>
<svg width="24px" height="24px" viewBox="0 0 24 24" version="1.1" xmlns="http://www.w3.org/2000/svg" xmlns:xlink="http://www.w3.org/1999/xlink" style="background: #FFFFFF;">
    <!-- Generator: Sketch 49.3 (51167) - http://www.bohemiancoding.com/sketch -->
    <title>icon/ic_photos</title>
    <desc>Created with Sketch.</desc>
    <defs></defs>
    <g id="icon/ic_photos" stroke="none" stroke-width="1" fill="none" fill-rule="evenodd">
        <path d="M19,12.4993762 L19,5 L5,5 L5,14.2000648 L6.59081469,12.7683832 C7.38105212,12.0571951 8.58958839,12.0885436 9.34189256,12.8397441 L9.5896985,13.0864624 C10.3711787,13.8667961 11.6372291,13.8660288 12.4177629,13.0847486 L14.5856238,10.9142407 C15.366299,10.1328189 16.6326288,10.1322136 17.4140506,10.9128888 C17.4142671,10.9131051 17.4144835,10.9133214 17.4146999,10.9135378 L19,12.4993762 Z M19,15 L17.4142136,13.4142136 C16.633165,12.633165 15.366835,12.633165 14.5857864,13.4142136 L12.4142136,15.5857864 C11.633165,16.366835 10.366835,16.366835 9.58578644,15.5857864 L9.41421356,15.4142136 C8.63316498,14.633165 7.36683502,14.633165 6.58578644,15.4142136 L5,17 L5,19 L19,19 L19,15 Z M5,3 L19,3 C20.1045695,3 21,3.8954305 21,5 L21,19 C21,20.1045695 20.1045695,21 19,21 L5,21 C3.8954305,21 3,20.1045695 3,19 L3,5 C3,3.8954305 3.8954305,3 5,3 Z M8,10 C6.8954305,10 6,9.1045695 6,8 C6,6.8954305 6.8954305,6 8,6 C9.1045695,6 10,6.8954305 10,8 C10,9.1045695 9.1045695,10 8,10 Z" id="ic_photos" fill="#333333"></path>
    </g>
</svg>