<?xml version="1.0" encoding="UTF-8"?>
<svg fill="none" height="20" viewBox="0 0 20 20" width="20" xmlns="http://www.w3.org/2000/svg">
    <path clip-rule="evenodd" d="m6.32118 2.5h8.97512l2.1182 13.557c.1185.7581-.4677 1.443-1.235 1.443h-12.28413c-.83941 0-1.44025-.8109-1.19584-1.614l2.55227-8.386h-.91286c-1.11362 0-1.67134-1.34642-.88388-2.13388zm.67277 5-2.53623 8.3333h5.74398l2.5811-9.17707-.3648.4169c-.2374.27127-.5803.42687-.9407.42687zm7.35605-.26013-2.4169 8.59343h3.7596zm-1.6035-3.0732h-5.73497l-1.66666 1.66666h5.94333zm-1.5828 1.80895c-.0001.00014.0001-.00013 0 0z" fill="#2d333f" fill-rule="evenodd" />
</svg>
