<?xml version="1.0" encoding="UTF-8"?>
<svg width="24px" height="24px" viewBox="0 0 24 24" version="1.1" xmlns="http://www.w3.org/2000/svg" xmlns:xlink="http://www.w3.org/1999/xlink">
    <!-- Generator: Sketch 49 (51002) - http://www.bohemiancoding.com/sketch -->
    <title>icon/details/ic_parking_details</title>
    <desc>Created with Sketch.</desc>
    <defs></defs>
    <g id="icon/details/ic_parking_details" stroke="none" stroke-width="1" fill="none" fill-rule="evenodd">
        <path d="M12,21 C7.02943725,21 3,16.9705627 3,12 C3,7.02943725 7.02943725,3 12,3 C16.9705627,3 21,7.02943725 21,12 C21,16.9705627 16.9705627,21 12,21 Z M12,19 C15.8659932,19 19,15.8659932 19,12 C19,8.13400675 15.8659932,5 12,5 C8.13400675,5 5,8.13400675 5,12 C5,15.8659932 8.13400675,19 12,19 Z" id="Combined-Shape" fill="#333333"></path>
        <path d="M9.5,7.97771 C9.5,7.85871 9.596,7.74971 9.728,7.74971 L12.546,7.74971 C14.021,7.74971 15.233,8.94871 15.233,10.40071 C15.233,11.88771 14.021,13.09971 12.558,13.09971 L11.059,13.09971 L11.059,15.91771 C11.059,16.03671 10.951,16.14571 10.831,16.14571 L9.728,16.14571 C9.596,16.14571 9.5,16.03671 9.5,15.91771 L9.5,7.97771 Z M12.498,11.63571 C13.17,11.63571 13.685,11.09671 13.685,10.38871 C13.685,9.72971 13.17,9.22571 12.498,9.22571 L11.059,9.22571 L11.059,11.63571 L12.498,11.63571 Z" id="Combined-Shape" fill="#323232"></path>
    </g>
</svg>
