<?xml version="1.0" encoding="UTF-8"?>
<svg width="24px" height="24px" viewBox="0 0 24 24" version="1.1" xmlns="http://www.w3.org/2000/svg" xmlns:xlink="http://www.w3.org/1999/xlink">
    <!-- Generator: Sketch 52.6 (67491) - http://www.bohemiancoding.com/sketch -->
    <title>Icon/Line/ic_party_count_fill</title>
    <desc>Created with Sketch.</desc>
    <g id="Icon/Line/ic_party_count_fill" stroke="none" stroke-width="1" fill="none" fill-rule="evenodd">
        <path d="M15.5499947,13.357237 C19.719937,14.6722314 20.3932635,19.7889474 19.0979323,19.7889474 C17.6116088,19.7889474 9.64729335,19.7889474 7.84708527,19.7889474 C6.22379999,19.7889474 7.21851232,14.311217 11.8332987,13.2345243 C10.7995382,12.5821811 10.1128528,11.4298435 10.1128528,10.1171219 L10.1128528,9.99878449 C10.1128528,7.96443184 11.7620215,6.31526316 13.7963741,6.31526316 C15.8307268,6.31526316 17.4798955,7.96443184 17.4798955,9.99878449 L17.4798955,10.1171219 C17.4798955,11.516618 16.6994259,12.7338257 15.5499947,13.357237 Z M6.53065936,14.977914 L5.44312491,14.9779077 C5.350072,14.9779077 5.25736739,14.966543 5.16706991,14.9440662 C4.55457977,14.7916053 4.18165244,14.1714899 4.33410933,13.5589987 C4.86626515,11.4211387 6.0609602,10.1678092 7.91819451,9.79901033 C6.91582211,9.35050084 6.2174228,8.34444522 6.2174228,7.1752697 L6.2174228,7.0829721 C6.2174228,5.49627343 7.50369622,4.21 9.0903949,4.21 C10.1634421,4.21 11.0990898,4.79827723 11.59242,5.66991363 C9.63305291,6.16315721 8.29182623,8.04154608 8.52516327,10.1047368 L8.52878303,10.1367431 C8.64394515,11.1550186 9.0248258,12.0846985 9.59752235,12.8597671 C8.36650798,13.2146444 7.29057168,13.9640637 6.53065936,14.977914 Z" id="ic_party_fill" fill="#2D333F"></path>
    </g>
</svg>