<?xml version="1.0" encoding="UTF-8"?>
<svg width="24px" height="24px" viewBox="0 0 24 24" version="1.1" xmlns="http://www.w3.org/2000/svg" xmlns:xlink="http://www.w3.org/1999/xlink" style="background: #FFFFFF;">
    <!-- Generator: Sketch 49.3 (51167) - http://www.bohemiancoding.com/sketch -->
    <title>icon/ic_price_range</title>
    <desc>Created with Sketch.</desc>
    <defs></defs>
    <g id="icon/ic_price_range" stroke="none" stroke-width="1" fill="none" fill-rule="evenodd">
        <path d="M20,15 L20,9 L18.5,9 C18.2238576,9 18,8.77614237 18,8.5 L18,7 L6,7 L6,8.5 C6,8.77614237 5.77614237,9 5.5,9 L4,9 L4,15 L5.5,15 C5.77614237,15 6,15.2238576 6,15.5 L6,17 L18,17 L18,15.5 C18,15.2238576 18.2238576,15 18.5,15 L20,15 Z M4,5 L20,5 C21.1045695,5 22,5.8954305 22,7 L22,17 C22,18.1045695 21.1045695,19 20,19 L4,19 C2.8954305,19 2,18.1045695 2,17 L2,7 C2,5.8954305 2.8954305,5 4,5 Z M12,10 C13.1045695,10 14,10.8954305 14,12 C14,13.1045695 13.1045695,14 12,14 C10.8954305,14 10,13.1045695 10,12 C10,10.8954305 10.8954305,10 12,10 Z" id="ic_price_range" fill="#333333"></path>
    </g>
</svg>