<svg width="24" height="24" fill="none" xmlns="http://www.w3.org/2000/svg"><path fill-rule="evenodd" clip-rule="evenodd" d="M3.5 3a.5.5 0 00-.5.5V11a4.002 4.002 0 003 3.874V19h-.5a.5.5 0 00-.5.5v1a.5.5 0 00.5.5h3a.5.5 0 00.5-.5v-1a.5.5 0 00-.5-.5H8v-4.126c1.725-.444 3-2.01 3-3.874V3.5a.5.5 0 00-.5-.5h-7zM5 5h4v1.64L5 7.973V5zm0 4.973V11a2 2 0 104 0V8.64L5 9.973zM15.5 19a.5.5 0 00-.5.5v1a.5.5 0 00.5.5h3a.5.5 0 00.5-.5v-1a.5.5 0 00-.5-.5H18v-4.126c1.725-.444 3-2.01 3-3.874V3.5a.5.5 0 00-.5-.5h-7a.5.5 0 00-.5.5V11a4.002 4.002 0 003 3.874V19h-.5zM19 5h-4v2.973l4-1.333V5zm0 3.64l-4 1.333V11a2 2 0 104 0V8.64z" fill="#2D333F"/></svg>