<?xml version="1.0" encoding="UTF-8"?>
<svg width="24px" height="24px" viewBox="0 0 24 24" version="1.1" xmlns="http://www.w3.org/2000/svg" xmlns:xlink="http://www.w3.org/1999/xlink">
    <!-- Generator: Sketch 49 (51002) - http://www.bohemiancoding.com/sketch -->
    <title>icon/details/ic_public_transit</title>
    <desc>Created with Sketch.</desc>
    <defs></defs>
    <g id="icon/details/ic_public_transit" stroke="none" stroke-width="1" fill="none" fill-rule="evenodd">
        <path d="M16,18 L18,18 L18,13 L6,13 L6,18 L8,18 L9,18 L15,18 L16,18 Z M17,20 L17,21 C17,21.5522847 16.5522847,22 16,22 L15,22 C14.4477153,22 14,21.5522847 14,21 L14,20 L10,20 L10,21 C10,21.5522847 9.55228475,22 9,22 L8,22 C7.44771525,22 7,21.5522847 7,21 L7,20 L6,20 C4.8954305,20 4,19.1045695 4,18 L4,6 C4,4.34314575 5.34314575,3 7,3 L7.08535285,3 C7.29127106,2.41740381 7.84689059,2 8.5,2 L15.5,2 C16.1531094,2 16.7087289,2.41740381 16.9146471,3 L17,3 C18.6568542,3 20,4.34314575 20,6 L20,18 C20,19.1045695 19.1045695,20 18,20 L17,20 Z M6,11 L18,11 L18,5 L15.5,5 L8.5,5 L6,5 L6,11 Z M8.5,14 C9.32842712,14 10,14.6715729 10,15.5 C10,16.3284271 9.32842712,17 8.5,17 C7.67157288,17 7,16.3284271 7,15.5 C7,14.6715729 7.67157288,14 8.5,14 Z M15.5,14 C16.3284271,14 17,14.6715729 17,15.5 C17,16.3284271 16.3284271,17 15.5,17 C14.6715729,17 14,16.3284271 14,15.5 C14,14.6715729 14.6715729,14 15.5,14 Z" id="Combined-Shape" fill="#333333"></path>
    </g>
</svg>