<?xml version="1.0" encoding="UTF-8"?>
<svg width="24px" height="24px" viewBox="0 0 24 24" version="1.1" xmlns="http://www.w3.org/2000/svg" xmlns:xlink="http://www.w3.org/1999/xlink">
    <!-- Generator: Sketch 51.1 (57501) - http://www.bohemiancoding.com/sketch -->
    <title>Icon/Fill/ic_paid_fill</title>
    <desc>Created with Sketch.</desc>
    <defs></defs>
    <g id="Icon/Fill/ic_paid_fill" stroke="none" stroke-width="1" fill="none" fill-rule="evenodd">
        <path d="M20.8,15.5 L20.8,8.9 L19.1,8.9 C18.8238576,8.9 18.6,8.67614237 18.6,8.4 L18.6,6.7 L5.4,6.7 L5.4,8.4 C5.4,8.67614237 5.17614237,8.9 4.9,8.9 L3.2,8.9 L3.2,15.5 L4.9,15.5 C5.17614237,15.5 5.4,15.7238576 5.4,16 L5.4,17.7 L18.6,17.7 L18.6,16 C18.6,15.7238576 18.8238576,15.5 19.1,15.5 L20.8,15.5 Z M3,4.5 L21,4.5 C22.1045695,4.5 23,5.3954305 23,6.5 L23,17.9 C23,19.0045695 22.1045695,19.9 21,19.9 L3,19.9 C1.8954305,19.9 1,19.0045695 1,17.9 L1,6.5 C1,5.3954305 1.8954305,4.5 3,4.5 Z M12.0000002,9 C13.7673115,9 15.2000003,10.4326888 15.2000003,12.2 C15.2000003,13.9673113 13.7673115,15.4000001 12.0000002,15.4000001 C10.232689,15.4000001 8.80000019,13.9673113 8.80000019,12.2 C8.80000019,10.4326888 10.232689,9 12.0000002,9 Z" id="ic_paid_fill" fill="#2D333F"></path>
    </g>
</svg>