<?xml version="1.0" encoding="UTF-8"?>
<svg width="24px" height="24px" viewBox="0 0 24 24" version="1.1" xmlns="http://www.w3.org/2000/svg" xmlns:xlink="http://www.w3.org/1999/xlink">
    <!-- Generator: Sketch 49.3 (51167) - http://www.bohemiancoding.com/sketch -->
    <title>icon/ic_phone</title>
    <desc>Created with Sketch.</desc>
    <defs></defs>
    <g id="icon/ic_phone" stroke="none" stroke-width="1" fill="none" fill-rule="evenodd">
        <path d="M11.1923881,7.19238816 C13.8147448,7.19238816 16.4332749,7.88002892 19.0481719,9.24949945 C20.3663707,9.93987064 21.1923881,11.3049175 21.1923881,12.7929562 L21.1923881,15.1923882 C21.1923881,16.2969577 20.2969576,17.1923882 19.1923881,17.1923882 L15.8386797,17.1923882 C14.9458358,17.1923934 14.1611367,16.600599 13.9157119,15.74215 C13.5311739,14.3971097 13.051748,13.8597684 12.4435462,13.8590555 L12.2445137,13.8590532 C11.9797378,13.8590516 11.9797378,13.8590516 11.1923912,13.8590525 L10.5908984,13.8590535 L9.94238815,13.8590549 C9.36404307,13.8590549 8.89692488,14.3907007 8.48907223,15.7623886 C8.23683842,16.610715 7.45704835,17.1923882 6.57201858,17.1923882 L3.19238815,17.1923882 C2.08781864,17.1923882 1.19238815,16.2969577 1.19238815,15.1923882 L1.19238815,12.7929431 C1.19239394,11.3049036 2.0184157,9.93985867 3.33661714,9.24949272 C5.95150798,7.88002719 8.5700348,7.19238816 11.1923881,7.19238816 Z M3.19238815,12.7929469 L3.19238815,15.1923882 L6.57201858,15.1923839 C7.20290417,13.0705928 8.26739372,11.8590549 9.94238599,11.8590549 L10.5908946,11.8590535 L11.1923885,11.8590525 C11.9797362,11.8590516 11.9797362,11.8590516 12.2445326,11.8590532 L12.4447301,11.8590562 C14.1421938,11.8610438 15.2370999,13.0882166 15.8386738,15.1923882 L19.1923881,15.1923882 L19.1923881,12.7929562 C19.1923881,12.0489367 18.7793784,11.3664115 18.1202811,11.021227 C15.7828612,9.79707646 13.4802133,9.19238816 11.1923881,9.19238816 C8.90456585,9.19238816 6.60192098,9.79707492 4.26450398,11.0212224 C3.60540308,11.3664055 3.19239104,12.0489299 3.19238815,12.7929469 Z" id="ic_phone" fill="#333333" fill-rule="nonzero" transform="translate(11.192388, 12.192388) rotate(-135.000000) translate(-11.192388, -12.192388) "></path>
    </g>
</svg>