<?xml version="1.0" encoding="UTF-8"?>
<svg width="24px" height="24px" viewBox="0 0 24 24" version="1.1" xmlns="http://www.w3.org/2000/svg" xmlns:xlink="http://www.w3.org/1999/xlink">
    <!-- Generator: Sketch 50.2 (55047) - http://www.bohemiancoding.com/sketch -->
    <title>icon/ic_privacy</title>
    <desc>Created with Sketch.</desc>
    <defs></defs>
    <g id="icon/ic_privacy" stroke="none" stroke-width="1" fill="none" fill-rule="evenodd">
        <path d="M11,15.7324356 C10.4021986,15.3866262 10,14.7402824 10,14 C10,12.8954305 10.8954305,12 12,12 C13.1045695,12 14,12.8954305 14,14 C14,14.7402824 13.5978014,15.3866262 13,15.7324356 L13,17 C13,17.5522847 12.5522847,18 12,18 C11.4477153,18 11,17.5522847 11,17 L11,15.7324356 Z M17,8.53512878 C18.1956027,9.22674762 19,10.5194353 19,12 L19,18 C19,20.209139 17.209139,22 15,22 L9,22 C6.790861,22 5,20.209139 5,18 L5,12 C5,10.5194353 5.80439726,9.22674762 7,8.53512878 L7,6 C7,3.790861 8.790861,2 11,2 L13,2 C15.209139,2 17,3.790861 17,6 L17,8.53512878 Z M9,10 C7.8954305,10 7,10.8954305 7,12 L7,18 C7,19.1045695 7.8954305,20 9,20 L15,20 C16.1045695,20 17,19.1045695 17,18 L17,12 C17,10.8954305 16.1045695,10 15,10 L9,10 Z M11,4 C9.8954305,4 9,4.8954305 9,6 L9,8 L15,8 L15,6 C15,4.8954305 14.1045695,4 13,4 L11,4 Z" id="ic_privacy" fill="#2D333F"></path>
    </g>
</svg>