<svg xmlns="http://www.w3.org/2000/svg" width="24" height="24" fill="none" viewBox="0 0 24 24">
  <path fill="#2D333F" fill-rule="evenodd" d="M12.768 2.36a1 1 0 00-1.536 0l-2 2.4a1 1 0 101.536 1.28L11 5.762V9a1 1 0 102 0V5.762l.232.278a1 1 0 101.536-1.28l-2-2.4zm0 19.28a1 1 0 01-1.536 0l-2-2.4a1 1 0 011.536-1.28l.232.278V15a1 1 0 112 0v3.238l.232-.278a1 1 0 111.536 1.28l-2 2.4zM22 12a1 1 0 00-.36-.768l-2.4-2a1 1 0 00-1.28 1.536l.278.232H15a1 1 0 100 2h3.238l-.278.232a1 1 0 101.28 1.536l2.4-2A1 1 0 0022 12zm-19.64-.768a1 1 0 000 1.536l2.4 2a1 1 0 101.28-1.536L5.762 13H9a1 1 0 100-2H5.762l.278-.232a1 1 0 10-1.28-1.536l-2.4 2z" clip-rule="evenodd"/>
</svg>
