<?xml version="1.0" encoding="UTF-8"?>
<svg width="24px" height="24px" viewBox="0 0 24 24" version="1.1" xmlns="http://www.w3.org/2000/svg" xmlns:xlink="http://www.w3.org/1999/xlink">
    <!-- Generator: Sketch 52.6 (67491) - http://www.bohemiancoding.com/sketch -->
    <title>icon/ic_print</title>
    <desc>Created with Sketch.</desc>
    <g id="icon/ic_print" stroke="none" stroke-width="1" fill="none" fill-rule="evenodd">
        <path d="M16,7 L16,5 L8,5 L8,7 L6,7 L6,5 C6,3.8954305 6.8954305,3 8,3 L16,3 C17.1045695,3 18,3.8954305 18,5 L18,7 L16,7 Z M18,19 C18,20.1045695 17.1045695,21 16,21 L8,21 C6.8954305,21 6,20.1045695 6,19 L4,19 C2.8954305,19 2,18.1045695 2,17 L2,9 C2,7.8954305 2.8954305,7 4,7 L6,7 L6,5 C6,3.8954305 6.8954305,3 8,3 L16,3 C17.1045695,3 18,3.8954305 18,5 L18,7 L20,7 C21.1045695,7 22,7.8954305 22,9 L22,17 C22,18.1045695 21.1045695,19 20,19 L18,19 Z M18,17 L20,17 L20,9 L4,9 L4,17 L6,17 L6,13 C6,11.8954305 6.8954305,11 8,11 L16,11 C17.1045695,11 18,11.8954305 18,13 L18,17 Z M16,7 L16,5 L8,5 L8,7 L16,7 Z M8,13 L8,19 L16,19 L16,13 L8,13 Z M9.5,15 L14.5,15 C14.7761424,15 15,15.2238576 15,15.5 L15,16.5 C15,16.7761424 14.7761424,17 14.5,17 L9.5,17 C9.22385763,17 9,16.7761424 9,16.5 L9,15.5 C9,15.2238576 9.22385763,15 9.5,15 Z" id="ic_print" fill="#2D333F" fill-rule="nonzero"></path>
    </g>
</svg>