<?xml version="1.0" encoding="UTF-8"?>
<svg width="24px" height="24px" viewBox="0 0 24 24" version="1.1" xmlns="http://www.w3.org/2000/svg" xmlns:xlink="http://www.w3.org/1999/xlink">
    <!-- Generator: Sketch 49 (51002) - http://www.bohemiancoding.com/sketch -->
    <title>icon/details/ic_phone</title>
    <desc>Created with Sketch.</desc>
    <defs></defs>
    <g id="icon/details/ic_phone" stroke="none" stroke-width="1" fill="none" fill-rule="evenodd">
        <path d="M3.80056058,10.1353575 C2.81190886,10.6531323 2.19239249,11.6769173 2.19238815,12.7929469 L2.19238815,15.1923882 C2.19238815,15.744673 2.6401034,16.1923882 3.19238815,16.1923882 L6.57201858,16.1923882 C7.01453306,16.1923882 7.40442749,15.9015529 7.53054472,15.4773886 C8.02144753,13.8263868 8.76006563,12.8590549 9.94238815,12.8590549 L10.5908962,12.8590535 L11.1923895,12.8590525 C12.1276298,12.8590515 12.1276298,12.8590515 12.4435591,12.8590556 C13.6502937,12.8604686 14.4092533,13.8305156 14.8771903,15.4672698 C14.9999026,15.8964939 15.3922505,16.1923908 15.8386738,16.1923882 L19.1923881,16.1923882 C19.7446728,16.1923882 20.1923881,15.744673 20.1923881,15.1923882 L20.1923881,12.7929562 C20.1923881,11.6769265 19.572874,10.6531408 18.5842249,10.1353624 C16.1045517,8.83671115 13.6439827,8.19238816 11.1923881,8.19238816 C8.74079655,8.19238816 6.28023069,8.83670955 3.80056058,10.1353575 Z" id="Shape" stroke="#333333" stroke-width="2" transform="translate(11.192388, 12.192388) rotate(-135.000000) translate(-11.192388, -12.192388) "></path>
    </g>
</svg>