<svg width="48" height="48" viewBox="0 0 48 48" fill="none" xmlns="http://www.w3.org/2000/svg">
    <path fill-rule="evenodd" clip-rule="evenodd" d="M0 23.9994C0 10.7453 10.7444 0 24 0C37.2544 0 48 10.7453 48 23.9994C48 37.2547 37.2544 48 24 48C10.7444 48 0 37.2547 0 23.9994Z"/>
    <path fill-rule="evenodd" clip-rule="evenodd" d="M17.0016 19C17.0016 20.821 17.9736 22.414 19.4276 23.288C16.9966 23.882 15.2676 25.396 14.2376 27.831C13.5926 29.357 14.3056 31.118 15.8316 31.763C16.2016 31.919 16.5986 32 17.0006 32H25.8027C25.4513 31.3926 25.2034 30.7179 25.083 30H17.0076C16.9006 30 16.7946 29.983 16.6926 29.949C16.1686 29.776 15.8846 29.21 16.0586 28.686C16.8716 26.229 18.8526 25 22.0016 25C23.5758 25 24.8582 25.3073 25.8487 25.9218C26.189 25.3536 26.6207 24.8463 27.1234 24.4203C26.3824 23.8997 25.5325 23.5223 24.5736 23.288C26.0286 22.413 27.0016 20.821 27.0016 19C27.0016 16.239 24.7636 14 22.0006 14C19.2396 14 17.0016 16.239 17.0016 19ZM19.0016 19C19.0016 17.343 20.3436 16 22.0006 16C23.6576 16 25.0006 17.343 25.0006 19C25.0006 20.657 23.6576 22 22.0006 22C20.3436 22 19.0016 20.657 19.0016 19ZM31 34C33.7614 34 36 31.7614 36 29C36 26.2386 33.7614 24 31 24C28.2386 24 26 26.2386 26 29C26 31.7614 28.2386 34 31 34ZM29.4001 28.4028C29.0722 28.0722 28.5383 28.0702 28.2079 28.3984C27.8777 28.7263 27.8757 29.2597 28.2034 29.59L29.5506 30.9479C29.8785 31.2785 30.4124 31.2805 30.7428 30.9523C30.7867 30.9087 30.8248 30.8615 30.8571 30.8116L33.8483 27.8064C34.175 27.4781 34.1738 26.9473 33.8457 26.6205C33.5174 26.2937 32.9863 26.2948 32.6595 26.6232L30.143 29.1516L29.4001 28.4028Z" fill="white"/>
</svg>
