<svg width="48" height="48" viewBox="0 0 48 48" fill="none" xmlns="http://www.w3.org/2000/svg">
    <path fill-rule="evenodd" clip-rule="evenodd" d="M0 23.9994C0 10.7453 10.7444 0 24 0C37.2544 0 48 10.7453 48 23.9994C48 37.2547 37.2544 48 24 48C10.7444 48 0 37.2547 0 23.9994Z"/>
    <path fill-rule="evenodd" clip-rule="evenodd" d="M17.0016 19C17.0016 20.821 17.9736 22.414 19.4276 23.288C16.9966 23.882 15.2676 25.396 14.2376 27.831C13.5926 29.357 14.3056 31.118 15.8316 31.763C16.2016 31.919 16.5986 32 17.0006 32H25.8027C25.4513 31.3926 25.2034 30.7179 25.083 30H17.0076C16.9006 30 16.7946 29.983 16.6926 29.949C16.1686 29.776 15.8846 29.21 16.0586 28.686C16.8716 26.229 18.8526 25 22.0016 25C23.5758 25 24.8582 25.3073 25.8487 25.9218C26.189 25.3536 26.6207 24.8463 27.1234 24.4203C26.3824 23.8997 25.5325 23.5223 24.5736 23.288C26.0286 22.413 27.0016 20.821 27.0016 19C27.0016 16.239 24.7636 14 22.0006 14C19.2396 14 17.0016 16.239 17.0016 19ZM19.0016 19C19.0016 17.343 20.3436 16 22.0006 16C23.6576 16 25.0006 17.343 25.0006 19C25.0006 20.657 23.6576 22 22.0006 22C20.3436 22 19.0016 20.657 19.0016 19ZM31 34C33.7614 34 36 31.7614 36 29C36 26.2386 33.7614 24 31 24C28.2386 24 26 26.2386 26 29C26 31.7614 28.2386 34 31 34ZM33.2878 26.7943C32.9596 26.4675 32.4286 26.4687 32.1019 26.7969L30.9961 27.9075L29.8903 26.7969C29.5635 26.4687 29.0326 26.4675 28.7044 26.7943C28.3761 27.1211 28.3749 27.6521 28.7018 27.9803L29.8127 29.0961L28.7018 30.2119C28.3749 30.5401 28.3761 31.0711 28.7044 31.3979C29.0326 31.7246 29.5635 31.7234 29.8903 31.3952L30.9961 30.2846L32.1019 31.3952C32.4286 31.7234 32.9596 31.7246 33.2878 31.3979C33.616 31.0711 33.6172 30.5401 33.2904 30.2119L32.1795 29.0961L33.2904 27.9803C33.6172 27.6521 33.616 27.1211 33.2878 26.7943Z" fill="white"/>
</svg>
