<svg width="24" height="24" viewBox="0 0 24 24" fill="none" xmlns="http://www.w3.org/2000/svg">
<path fill-rule="evenodd" clip-rule="evenodd" d="M12.2747 2.03848C12.0952 1.98717 11.9048 1.98717 11.7253 2.03848L4.72528 4.03848C4.29598 4.16113 4 4.55352 4 5V12.3574C4 15.5871 5.73055 18.5692 8.53474 20.1716L11.5039 21.8682C11.8113 22.0439 12.1887 22.0439 12.4961 21.8682L15.4652 20.1716C18.2694 18.5692 20 15.5871 20 12.3574V5C20 4.55352 19.704 4.16113 19.2747 4.03848L12.2747 2.03848ZM6 12.3574V5.7543L12 4.04002L18 5.7543V12.3574C18 14.8694 16.654 17.1888 14.4729 18.4352L12 19.8483L9.52702 18.4352C7.34599 17.1888 6 14.8694 6 12.3574Z" fill="#2D333F"/>
<path fill-rule="evenodd" clip-rule="evenodd" d="M13.0846 11.6807C13.6354 11.3244 14 10.7048 14 10C14 8.89543 13.1046 8 12 8C10.8954 8 10 8.89543 10 10C10 10.7044 10.3642 11.3238 10.9145 11.6801L10.5698 14.438C10.5325 14.7364 10.7652 15 11.0659 15H12.9331C13.2339 15 13.4666 14.7364 13.4293 14.438L13.0846 11.6807Z" fill="#2D333F"/>
</svg>
