<?xml version="1.0" encoding="UTF-8"?>
<svg width="24px" height="24px" viewBox="0 0 24 24" version="1.1" xmlns="http://www.w3.org/2000/svg" xmlns:xlink="http://www.w3.org/1999/xlink">
    <!-- Generator: Sketch 49.2 (51160) - http://www.bohemiancoding.com/sketch -->
    <title>universal / icon / action / medium / ic_question</title>
    <desc>Created with Sketch.</desc>
    <defs>
        <path d="M12,2 C17.5228475,2 22,6.4771525 22,12 C22,17.5228475 17.5228475,22 12,22 C6.4771525,22 2,17.5228475 2,12 C2,6.4771525 6.4771525,2 12,2 Z M12,4 C7.581722,4 4,7.581722 4,12 C4,16.418278 7.581722,20 12,20 C16.418278,20 20,16.418278 20,12 C20,7.581722 16.418278,4 12,4 Z M11.16,13.192 C11.02,13.192 10.894,13.08 10.894,12.926 L10.894,12.338 C10.894,11.008 12.84,10.504 12.84,9.524 C12.84,9.02 12.42,8.586 11.72,8.586 C10.866,8.586 10.488,9.132 10.208,9.314 C10.096,9.384 9.998,9.384 9.9,9.3 L9.242,8.656 C9.13,8.558 9.144,8.39 9.242,8.292 C9.242,8.292 10.194,7.06 11.986,7.06 C13.456,7.06 14.702,8.04 14.702,9.412 C14.702,11.106 12.574,11.596 12.574,12.436 L12.574,12.898 C12.574,13.066 12.476,13.192 12.294,13.192 L11.16,13.192 Z M10.572,15.992 C10.572,15.362 11.09,14.83 11.72,14.83 C12.35,14.83 12.882,15.362 12.882,15.992 C12.882,16.622 12.35,17.14 11.72,17.14 C11.09,17.14 10.572,16.622 10.572,15.992 Z" id="path-1"></path>
    </defs>
    <g id="universal-/-icon-/-action-/-medium-/-ic_question" stroke="none" stroke-width="1" fill="none" fill-rule="evenodd">
        <mask id="mask-2" fill="white">
            <use xlink:href="#path-1"></use>
        </mask>
        <use id="ic_question" fill="#2D333F" xlink:href="#path-1"></use>
    </g>
</svg>