<svg xmlns="http://www.w3.org/2000/svg" width="24" height="24" fill="none" viewBox="0 0 24 24">
  <path fill="#2D333F" fill-rule="evenodd" d="M17.831 7.525A7.003 7.003 0 0016.363 6.1a7.407 7.407 0 00-3.158-1.298l-.03-.005a7.581 7.581 0 00-3.46.26l-.053.018A7.257 7.257 0 006.72 6.89a6.733 6.733 0 00-1.65 2.79l-.015.049a6.473 6.473 0 00-.1 3.2l.009.039a6.678 6.678 0 001.53 2.952 7.084 7.084 0 001.998 1.563c.046.024.09.052.131.082.343.254.502.706.331 1.106-.181.425-.668.634-1.083.431a9.426 9.426 0 01-.801-.443 8.87 8.87 0 01-1.953-1.64 8.358 8.358 0 01-1.904-3.652l-.009-.039a8.092 8.092 0 01.133-4.109l.014-.048a8.428 8.428 0 012.2-3.591 9.083 9.083 0 013.594-2.14l.053-.016a9.477 9.477 0 014.244-.314l.029.004a9.267 9.267 0 013.984 1.63A8.802 8.802 0 0119 6.167v-1.2c0-.534.448-.967 1-.967s1 .433 1 .966v3.866c0 .534-.448.967-1 .967h-4c-.552 0-1-.433-1-.967s.448-.966 1-.966h2.075a6.769 6.769 0 00-.244-.34zM13 14h6v5h-6v-5zm-2 0a2 2 0 012-2h6a2 2 0 012 2v5a2 2 0 01-2 2h-6a2 2 0 01-2-2v-5z" clip-rule="evenodd"/>
</svg>
