<?xml version="1.0" encoding="UTF-8"?>
<svg width="24px" height="24px" viewBox="0 0 24 24" version="1.1" xmlns="http://www.w3.org/2000/svg" xmlns:xlink="http://www.w3.org/1999/xlink">
    <!-- Generator: Sketch 49 (51002) - http://www.bohemiancoding.com/sketch -->
    <title>icon/details/ic_review</title>
    <desc>Created with Sketch.</desc>
    <defs></defs>
    <g id="icon/details/ic_review" stroke="none" stroke-width="1" fill="none" fill-rule="evenodd">
        <path d="M19,4 L5,4 C3.8954305,4 3,4.8954305 3,6 L3,15 C3,16.1045695 3.8954305,17 5,17 L11,17 L15.36,20.63 C15.6583354,20.8784924 16.0735425,20.9318337 16.4250008,20.7668198 C16.776459,20.6018059 17.0006314,20.2482681 17,19.86 L17,17 L19,17 C20.1045695,17 21,16.1045695 21,15 L21,6 C21,4.8954305 20.1045695,4 19,4 Z M19,15 L15,15 L15,17.73 L11.72,15 L5,15 L5,6 L19,6 L19,15 Z" id="review" fill="#333333" fill-rule="nonzero"></path>
    </g>
</svg>