<?xml version="1.0" encoding="UTF-8"?>
<svg width="24px" height="24px" viewBox="0 0 24 24" version="1.1" xmlns="http://www.w3.org/2000/svg" xmlns:xlink="http://www.w3.org/1999/xlink">
    <!-- Generator: Sketch 49.2 (51160) - http://www.bohemiancoding.com/sketch -->
    <title>universal / icon / action / medium / ic_reveal</title>
    <desc>Created with Sketch.</desc>
    <defs>
        <path d="M11.5874071,19 C8.22520447,19 5.15366364,17.0542772 2.3727846,13.1628316 C1.87573973,12.4672878 1.87573951,11.5327267 2.37277768,10.8371781 C5.15365854,6.94572604 8.22520169,5 11.5874071,5 C14.9496097,5 18.0211506,6.94572281 20.8020296,10.8371684 C21.2990745,11.5327122 21.2990747,12.4672733 20.8020365,13.1628219 C18.0211557,17.054274 14.9496125,19 11.5874071,19 Z M11.5874071,17 C14.3464218,17 16.8607791,15.537711 19.1304791,12.613133 L19.1305078,12.6131553 C19.4105138,12.2523589 19.4105145,11.7477031 19.1305094,11.3869059 C16.8608014,8.46230197 14.346434,7 11.5874071,7 C8.82839245,7 6.31403511,8.46228899 4.04433509,11.386867 L4.04430645,11.3868447 C3.76430038,11.7476411 3.76429972,12.2522969 4.04430485,12.6130941 C6.31401277,15.537698 8.82838019,17 11.5874071,17 Z M11.5874071,8 C13.7965461,8 15.5874071,9.790861 15.5874071,12 C15.5874071,14.209139 13.7965461,16 11.5874071,16 C9.37826811,16 7.58740711,14.209139 7.58740711,12 C7.58740711,9.790861 9.37826811,8 11.5874071,8 Z M11.5874071,10 C10.4828376,10 9.58740711,10.8954305 9.58740711,12 C9.58740711,13.1045695 10.4828376,14 11.5874071,14 C12.6919766,14 13.5874071,13.1045695 13.5874071,12 C13.5874071,10.8954305 12.6919766,10 11.5874071,10 Z" id="path-1"></path>
    </defs>
    <g id="universal-/-icon-/-action-/-medium-/-ic_reveal" stroke="none" stroke-width="1" fill="none" fill-rule="evenodd">
        <mask id="mask-2" fill="white">
            <use xlink:href="#path-1"></use>
        </mask>
        <use id="ic_reveal" fill="#2D333F" xlink:href="#path-1"></use>
    </g>
</svg>