<svg xmlns="http://www.w3.org/2000/svg" width="24" height="24" viewBox="0 0 24 24" fill="none">
  <path d="M15 5.5C16 5.9 16.9 6.6 17.6 7.4 17.6 7.4 17.6 7.5 17.6 7.5H16C15.4 7.5 15 7.9 15 8.5 15 9.1 15.4 9.5 16 9.5H20C20.6 9.5 21 9.1 21 8.5V4.5C21 3.9 20.6 3.5 20 3.5 19.4 3.5 19 3.9 19 4.5V6.3C19 6.3 18.9 6.3 18.9 6.2 18.1 5.2 17 4.4 15.8 3.8 14 3 12.1 2.8 10.2 3.2 8.3 3.6 6.6 4.5 5.3 6 4 7.4 3.2 9.2 3 11.1 2.9 13 3.3 15 4.3 16.6 5.3 18.3 6.7 19.6 8.5 20.3 10.3 21 12.2 21.2 14.1 20.7 15.4 20.4 16.6 19.8 17.7 19 17.8 18.9 18 18.7 18.1 18.6 18.2 18.5 18.2 18.5 18.3 18.4 18.6 18.1 18.6 17.5 18.2 17.2 17.9 16.9 17.4 16.9 17 17.2 17 17.2 16.9 17.2 16.9 17.3 16.8 17.4 16.7 17.5 16.6 17.6 15.7 18.3 14.7 18.7 13.7 19 12.2 19.4 10.6 19.2 9.2 18.6 7.8 18 6.6 17 5.8 15.7 5 14.4 4.7 12.8 4.8 11.3 5 9.8 5.6 8.3 6.7 7.2 7.7 6 9.1 5.3 10.6 4.9 12.1 4.6 13.6 4.8 15 5.5Z" fill="#2D333F"/>
</svg>