<?xml version="1.0" encoding="UTF-8"?>
<svg width="24px" height="24px" viewBox="0 0 24 24" version="1.1" xmlns="http://www.w3.org/2000/svg" xmlns:xlink="http://www.w3.org/1999/xlink">
    <!-- Generator: Sketch 50.2 (55047) - http://www.bohemiancoding.com/sketch -->
    <title>icon/ic_reveal</title>
    <desc>Created with Sketch.</desc>
    <defs></defs>
    <g id="icon/ic_reveal" stroke="none" stroke-width="1" fill="none" fill-rule="evenodd">
        <path d="M11.9874072,19 C8.62520457,19 5.55366373,17.0542772 2.7727847,13.1628316 C2.27573983,12.4672878 2.2757396,11.5327267 2.77277778,10.8371781 C5.55365864,6.94572604 8.62520178,5 11.9874072,5 C15.3496098,5 18.4211507,6.94572281 21.2020297,10.8371684 C21.6990746,11.5327122 21.6990748,12.4672733 21.2020366,13.1628219 C18.4211558,17.054274 15.3496126,19 11.9874072,19 Z M11.9874072,17 C14.7464219,17 17.2607792,15.537711 19.5304792,12.613133 L19.5305079,12.6131553 C19.8105139,12.2523589 19.8105146,11.7477031 19.5305095,11.3869059 C17.2608015,8.46230197 14.7464341,7 11.9874072,7 C9.22839254,7 6.7140352,8.46228899 4.44433518,11.386867 L4.44430655,11.3868447 C4.16430048,11.7476411 4.16429982,12.2522969 4.44430495,12.6130941 C6.71401287,15.537698 9.22838029,17 11.9874072,17 Z M11.9874072,8 C14.1965462,8 15.9874072,9.790861 15.9874072,12 C15.9874072,14.209139 14.1965462,16 11.9874072,16 C9.77826821,16 7.98740721,14.209139 7.98740721,12 C7.98740721,9.790861 9.77826821,8 11.9874072,8 Z M11.9874072,10 C10.8828377,10 9.98740721,10.8954305 9.98740721,12 C9.98740721,13.1045695 10.8828377,14 11.9874072,14 C13.0919767,14 13.9874072,13.1045695 13.9874072,12 C13.9874072,10.8954305 13.0919767,10 11.9874072,10 Z" id="ic_reveal" fill="#2D333F"></path>
    </g>
</svg>