<svg width="40" height="40" viewBox="0 0 40 40" fill="none" xmlns="http://www.w3.org/2000/svg">
    <path fill-rule="evenodd" clip-rule="evenodd" d="M20 40C31.0457 40 40 31.0457 40 20C40 8.9543 31.0457 0 20 0C8.9543 0 0 8.9543 0 20C0 31.0457 8.9543 40 20 40Z" fill="#DA3743"/>
    <path fill-rule="evenodd" clip-rule="evenodd" d="M12.5 16C12.5 14.3431 13.8431 13 15.5 13H24.5C26.1569 13 27.5 14.3431 27.5 16V22C27.5 23.6569 26.1569 25 24.5 25H15.5C13.8431 25 12.5 23.6569 12.5 22V16ZM15.9091 16.7877H24.0909V18.0502H15.9091V16.7877ZM24.0909 19.3128H15.9091V20.5754H24.0909V19.3128ZM17.8692 28C17.5496 28 17.2727 27.8722 17.2727 27.5197C17.2727 27.0058 17.2727 25 17.2727 25H22.7273C22.7273 25 19.2757 26.9853 18.6364 27.5197C18.4357 27.6874 18.1249 28 17.8692 28Z" fill="white"/>
</svg>
