<svg width="24" height="24" viewBox="0 0 24 24" fill="none" xmlns="http://www.w3.org/2000/svg">
<path fill-rule="evenodd" clip-rule="evenodd" d="M3.54142 5.74079C3.6587 5.3038 4.05479 5 4.50724 5H20.5535C21.0595 5 21.4858 5.37796 21.5463 5.88033L22.9928 17.8803C23.0271 18.1643 22.938 18.4494 22.7482 18.6634C22.5584 18.8775 22.2861 19 22 19H6.45517C5.96641 19 5.54926 18.6467 5.46881 18.1646L5.16463 16.3418H2.00001C1.68905 16.3418 1.39578 16.1972 1.20653 15.9504C1.01728 15.7037 0.953583 15.3829 1.03419 15.0826L3.54142 5.74079ZM6.99929 15.1853L7.30212 17H20.8722L19.6668 7H5.68826L6.49645 11.8351L6.49906 11.8516L6.99929 15.1853ZM4.27983 10.7051L4.52244 12.1566L4.85033 14.3418H3.30379L4.27983 10.7051Z" fill="#2D333F"/>
<path fill-rule="evenodd" clip-rule="evenodd" d="M8.5 12C8.5 11.4477 8.94772 11 9.5 11L17.2254 11C17.7777 11 18.2254 11.4477 18.2254 12C18.2254 12.5523 17.7777 13 17.2254 13L9.5 13C8.94772 13 8.5 12.5523 8.5 12Z" fill="#2D333F"/>
</svg>
