<?xml version="1.0" encoding="UTF-8"?>
<svg width="24px" height="24px" viewBox="0 0 24 24" version="1.1" xmlns="http://www.w3.org/2000/svg" xmlns:xlink="http://www.w3.org/1999/xlink">
    <!-- Generator: Sketch 50.2 (55047) - http://www.bohemiancoding.com/sketch -->
    <title>icon/ic_report</title>
    <desc>Created with Sketch.</desc>
    <defs></defs>
    <g id="icon/ic_report" stroke="none" stroke-width="1" fill="none" fill-rule="evenodd">
        <path d="M16,8 L19.55,3.9 C19.7765448,3.64479903 19.9317661,3.33435639 20,3 C20,2.44771525 19.5522847,2 19,2 L6,2 C4.8954305,2 4,2.8954305 4,4 L4,21 C4,21.5522847 4.44771525,22 5,22 C5.55228475,22 6,21.5522847 6,21 L6,14 L19,14 C19.5522847,14 20,13.5522847 20,13 C19.9688341,12.6188683 19.7978781,12.2627099 19.52,12 L16,8 Z M6,12 L6,4 L16.82,4 L14.49,6.69 L13.34,8 L14.5,9.32 L16.86,12 L6,12 Z" id="ic_report" fill="#2D333F" fill-rule="nonzero"></path>
    </g>
</svg>