<svg xmlns="http://www.w3.org/2000/svg" width="24" height="24" fill="none" viewBox="0 0 24 24">
  <path fill="#2D333F" fill-rule="evenodd" d="M6.169 7.525A7.001 7.001 0 017.637 6.1a7.407 7.407 0 013.158-1.298l.03-.005a7.581 7.581 0 013.46.26l.053.018A7.256 7.256 0 0117.28 6.89a6.733 6.733 0 011.65 2.79l.015.049c.3 1.044.335 2.14.1 3.2l-.009.039a6.678 6.678 0 01-1.53 2.952 7.083 7.083 0 01-1.998 1.563c-.046.024-.09.052-.131.082-.343.254-.502.706-.331 1.106.181.425.668.634 1.083.431a9.474 9.474 0 00.801-.443 8.87 8.87 0 001.953-1.64 8.358 8.358 0 001.904-3.652l.009-.039c.31-1.36.264-2.77-.133-4.109l-.014-.048a8.428 8.428 0 00-2.2-3.591 9.082 9.082 0 00-3.594-2.14l-.053-.016a9.477 9.477 0 00-4.244-.314l-.029.004a9.267 9.267 0 00-3.984 1.63A8.799 8.799 0 005 6.167V4.895c0-.523-.448-.948-1-.948s-1 .425-1 .948v3.79c0 .522.448.947 1 .947h4c.552 0 1-.425 1-.948 0-.523-.448-.947-1-.947H6.013c.05-.072.102-.142.156-.212zM5 19v-5h6v5H5zm-2-5a2 2 0 012-2h6a2 2 0 012 2v5a2 2 0 01-2 2H5a2 2 0 01-2-2v-5z" clip-rule="evenodd"/>
</svg>
