<?xml version="1.0" encoding="UTF-8"?>
<svg width="24px" height="24px" viewBox="0 0 24 24" version="1.1" xmlns="http://www.w3.org/2000/svg" xmlns:xlink="http://www.w3.org/1999/xlink">
    <!-- Generator: Sketch 51.1 (57501) - http://www.bohemiancoding.com/sketch -->
    <title>Icon/Fill/ic_seated_fill</title>
    <desc>Created with Sketch.</desc>
    <defs></defs>
    <g id="Icon/Fill/ic_seated_fill" stroke="none" stroke-width="1" fill="none" fill-rule="evenodd">
        <path d="M9,2 L15,2 C15.5522847,2 16,2.44771525 16,3 C16,3.55228475 15.5522847,4 15,4 L9,4 C8.44771525,4 8,3.55228475 8,3 C8,2.44771525 8.44771525,2 9,2 Z M9,20 L15,20 C15.5522847,20 16,20.4477153 16,21 C16,21.5522847 15.5522847,22 15,22 L9,22 C8.44771525,22 8,21.5522847 8,21 C8,20.4477153 8.44771525,20 9,20 Z M3,8 C3.55228475,8 4,8.44771525 4,9 L4,15 C4,15.5522847 3.55228475,16 3,16 C2.44771525,16 2,15.5522847 2,15 L2,9 C2,8.44771525 2.44771525,8 3,8 Z M21,8 C21.5522847,8 22,8.44771525 22,9 L22,15 C22,15.5522847 21.5522847,16 21,16 C20.4477153,16 20,15.5522847 20,15 L20,9 C20,8.44771525 20.4477153,8 21,8 Z M8,6 L16,6 C17.1045695,6 18,6.8954305 18,8 L18,16 C18,17.1045695 17.1045695,18 16,18 L8,18 C6.8954305,18 6,17.1045695 6,16 L6,8 C6,6.8954305 6.8954305,6 8,6 Z" id="ic_seated_fill" fill="#2D333F"></path>
    </g>
</svg>