<?xml version="1.0" encoding="UTF-8"?>
<svg width="24px" height="24px" viewBox="0 0 24 24" version="1.1" xmlns="http://www.w3.org/2000/svg" xmlns:xlink="http://www.w3.org/1999/xlink">
    <!-- Generator: Sketch 50.2 (55047) - http://www.bohemiancoding.com/sketch -->
    <title>icon/ic_social_proof</title>
    <desc>Created with Sketch.</desc>
    <defs></defs>
    <g id="icon/ic_social_proof" stroke="none" stroke-width="1" fill="none" fill-rule="evenodd">
        <path d="M15.5,5 C15.2239,5 15,5.223846 15,5.5 L15,6.5 C15,6.77615 15.2239,7 15.5,7 L17.5858,7 L14,10.58578 L12.70711,9.29291 L12.35355,8.93933 C12.15829,8.74408 11.84171,8.74408 11.64645,8.93933 L11.29289,9.29291 L5,15.5858 L5,7 L11.5,7 C11.77614,7 12,6.77615 12,6.5 L12,5.5 C12,5.22385 11.77614,5 11.5,5 L5,5 C3.89543,5 3,5.89542 3,7 L3,17 C3,18.1046 3.89543,19 5,19 L19,19 C20.1046,19 21,18.1046 21,17 L21,14.5 C21,14.2238 20.7761,14 20.5,14 L19.5,14 C19.2239,14 19,14.2238 19,14.5 L19,17 L6.4142,17 L12,11.41422 L13.2929,12.70709 L13.6464,13.06067 C13.8417,13.25592 14.1583,13.25592 14.3536,13.06067 L14.7071,12.70709 L19,8.41422 L19,10.5 C19,10.77615 19.2239,11 19.5,11 L20.5,11 C20.7761,11 21,10.77615 21,10.5 L21,6 L21,5.5 C21,5.223846 20.7761,5 20.5,5 L20,5 L15.5,5 Z" id="ic_social_proof" fill="#2D333F" fill-rule="nonzero"></path>
    </g>
</svg>