<?xml version="1.0" encoding="UTF-8"?>
<svg width="24px" height="24px" viewBox="0 0 24 24" version="1.1" xmlns="http://www.w3.org/2000/svg" xmlns:xlink="http://www.w3.org/1999/xlink">
    <!-- Generator: Sketch 49.3 (51167) - http://www.bohemiancoding.com/sketch -->
    <title>icon/ic_special_events</title>
    <desc>Created with Sketch.</desc>
    <defs></defs>
    <g id="icon/ic_special_events" stroke="none" stroke-width="1" fill="none" fill-rule="evenodd">
        <path d="M11,14 L11,12.5 C11,12.2238576 11.2238576,12 11.5,12 L12.5,12 C12.7761424,12 13,12.2238576 13,12.5 L13,14 L14.5,14 C14.7761424,14 15,14.2238576 15,14.5 L15,15.5 C15,15.7761424 14.7761424,16 14.5,16 L13,16 L13,17.5 C13,17.7761424 12.7761424,18 12.5,18 L11.5,18 C11.2238576,18 11,17.7761424 11,17.5 L11,16 L9.5,16 C9.22385763,16 9,15.7761424 9,15.5 L9,14.5 C9,14.2238576 9.22385763,14 9.5,14 L11,14 Z M17,5 L19,5 C20.1045695,5 21,5.8954305 21,7 L21,19 C21,20.1045695 20.1045695,21 19,21 L5,21 C3.8954305,21 3,20.1045695 3,19 L3,7 C3,5.8954305 3.8954305,5 5,5 L7,5 L7,4 C7,3.44771525 7.44771525,3 8,3 C8.55228475,3 9,3.44771525 9,4 L9,5 L15,5 L15,4 C15,3.44771525 15.4477153,3 16,3 C16.5522847,3 17,3.44771525 17,4 L17,5 Z M19,9 L19,7 L5,7 L5,9 L19,9 Z M19,11 L5,11 L5,19 L19,19 L19,11 Z" id="ic_special_events" fill="#333333"></path>
    </g>
</svg>