<svg width="24" height="24" viewBox="0 0 24 24" fill="none" xmlns="http://www.w3.org/2000/svg">
<path d="M15.4743 2.42303L16.0513 4.15396C16.6485 5.94559 18.0544 7.35148 19.8461 7.94869L21.577 8.52567C22.0328 8.67761 22.0328 9.3224 21.577 9.47435L19.8461 10.0513C18.0544 10.6485 16.6485 12.0544 16.0513 13.8461L15.4743 15.577C15.3224 16.0328 14.6776 16.0328 14.5257 15.577L13.9487 13.8461C13.3515 12.0544 11.9456 10.6485 10.1539 10.0513L8.42303 9.47435C7.96718 9.3224 7.96718 8.67761 8.42303 8.52567L10.1539 7.94869C11.9456 7.35148 13.3515 5.94559 13.9487 4.15396L14.5257 2.42303C14.6776 1.96718 15.3224 1.96718 15.4743 2.42303Z" fill="#2D333F"/>
<path d="M6.53015 12.4697C6.82305 12.7625 6.82307 13.2374 6.53019 13.5303L4.53035 15.5303C4.23747 15.8232 3.7626 15.8232 3.46969 15.5304C3.17679 15.2375 3.17677 14.7626 3.46965 14.4697L5.46949 12.4697C5.76237 12.1768 6.23724 12.1768 6.53015 12.4697Z" fill="#2D333F"/>
<path d="M10.5296 15.4701C10.8229 15.7632 10.8235 16.2379 10.5309 16.5305L6.5311 20.5305C6.23848 20.8232 5.76349 20.8229 5.47017 20.5299C5.17685 20.2369 5.17628 19.7621 5.4689 19.4695L9.46867 15.4695C9.76129 15.1768 10.2363 15.1771 10.5296 15.4701Z" fill="#2D333F"/>
</svg>
