<?xml version="1.0" encoding="UTF-8"?>
<svg width="24px" height="24px" viewBox="0 0 24 24" version="1.1" xmlns="http://www.w3.org/2000/svg" xmlns:xlink="http://www.w3.org/1999/xlink" style="background: #FFFFFF;">
    <!-- Generator: Sketch 61 (89581) - https://sketch.com -->
    <title>icon/line/ic_star/Light UI/Default</title>
    <desc>Created with Sketch.</desc>
    <g id="icon/line/ic_star/Light-UI/Default" stroke="none" stroke-width="1" fill="none" fill-rule="evenodd">
        <rect fill="#FFFFFF" opacity="0" x="0" y="0" width="24" height="24"></rect>
        <path d="M8.035,6.823 L4.14993362,7.37827936 L3.98676662,7.40677322 C2.06079281,7.80575492 1.29784773,10.2305904 2.77163321,11.6421006 L5.561,14.314 L4.90493227,18.0796441 L4.88221454,18.2368984 C4.65621401,20.2144477 6.75370358,21.6316004 8.51983394,20.7192585 L12.003,18.919 L15.48654,20.7192585 L15.6266142,20.7864764 C17.4083783,21.5774191 19.4515392,20.0854941 19.1015095,18.0796896 L18.444,14.314 L21.2347908,11.6420908 L21.3524523,11.522185 C22.70281,10.0567304 21.8462192,7.66236454 19.8564359,7.37827874 L15.97,6.823 L14.2396126,3.37667706 C13.3175658,1.54112184 10.688828,1.54112184 9.76680261,3.37663449 L8.035,6.823 Z M12.4524026,4.27438551 L14.6529535,8.65562993 L19.5737546,9.35820078 C19.9831364,9.41664914 20.1497491,9.91197299 19.8514171,10.1976957 L16.2906953,13.6080545 L17.131293,18.4235603 C17.2018399,18.8278211 16.7698238,19.1310743 16.404437,18.9423328 L12.0031981,16.6687557 L7.60192185,18.9423405 C7.2365812,19.131067 6.8045748,18.8278198 6.87514153,18.4235561 L7.71571641,13.6080525 L4.15501084,10.1977092 C3.85666719,9.91197219 4.02327348,9.41664543 4.43261932,9.35820077 L9.35338413,8.6556303 L11.554008,4.27435206 C11.7377658,3.90853816 12.268628,3.90853816 12.4524026,4.27438551 Z" id="Path" fill="#000000" fill-rule="nonzero"></path>
    </g>
</svg>