<?xml version="1.0" encoding="UTF-8"?>
<svg width="24px" height="24px" viewBox="0 0 24 24" version="1.1" xmlns="http://www.w3.org/2000/svg" xmlns:xlink="http://www.w3.org/1999/xlink">
    <!-- Generator: Sketch 54.1 (76490) - https://sketchapp.com -->
    <title>icon/line/ic_shift_notes_notification/Light UI - Default</title>
    <desc>Created with Sketch.</desc>
    <g id="icon/line/ic_shift_notes_notification/Light-UI---Default" stroke="none" stroke-width="1" fill="none" fill-rule="evenodd">
        <path d="M14.10001811,4 C14.0344303,4.32310994 14,4.65753416 14,5 C14,5.34246584 14.0344303,5.67689006 14.1000181,6 L6,6 L6,18 L18,18 L18,9.89998188 C18.3231099,9.96556974 18.6575342,10 19,10 C19.3424658,10 19.6768901,9.96556974 20,9.89998188 L20,18.0770861 C20,18.7457252 19.9303808,18.9881898 19.7996505,19.2326343 C19.6689202,19.4770787 19.4770787,19.6689202 19.2326343,19.7996505 C18.9881898,19.9303808 18.7457252,20 18.0770861,20 L5.9229139,20 C5.25427485,20 5.01181017,19.9303808 4.76736572,19.7996505 C4.52292128,19.6689202 4.33107985,19.4770787 4.20034953,19.2326343 C4.06961921,18.9881898 4,18.7457252 4,18.0770861 L4,5.9229139 C4,5.25427485 4.06961921,5.01181017 4.20034953,4.76736572 C4.33107985,4.52292128 4.52292128,4.33107985 4.76736572,4.20034953 C5.01181017,4.06961921 5.25427485,4 5.9229139,4 L14.1000181,4 Z M9.21239987,9.33333333 L14.7876001,9.33333333 C15.0104798,9.33333333 15.0913014,9.35653974 15.1727829,9.40011651 C15.2542643,9.44369328 15.3182115,9.50764043 15.3617883,9.58912191 C15.405365,9.67060339 15.4285714,9.75142495 15.4285714,9.97430463 L15.4285714,10.574715 C15.4285714,10.7975947 15.405365,10.8784162 15.3617883,10.9598977 C15.3182115,11.0413792 15.2542643,11.1053263 15.1727829,11.1489031 C15.0913014,11.1924799 15.0104798,11.2156863 14.7876001,11.2156863 L9.21239987,11.2156863 C8.98952019,11.2156863 8.90869863,11.1924799 8.82721715,11.1489031 C8.74573566,11.1053263 8.68178852,11.0413792 8.63821175,10.9598977 C8.59463497,10.8784162 8.57142857,10.7975947 8.57142857,10.574715 L8.57142857,9.97430463 C8.57142857,9.75142495 8.59463497,9.67060339 8.63821175,9.58912191 C8.68178852,9.50764043 8.74573566,9.44369328 8.82721715,9.40011651 C8.90869863,9.35653974 8.98952019,9.33333333 9.21239987,9.33333333 Z M9.21239987,13.1428571 L14.7876001,13.1428571 C15.0104798,13.1428571 15.0913014,13.1660635 15.1727829,13.2096403 C15.2542643,13.2532171 15.3182115,13.3171642 15.3617883,13.3986457 C15.405365,13.4801272 15.4285714,13.5609488 15.4285714,13.7838284 L15.4285714,14.3842388 C15.4285714,14.6071185 15.405365,14.68794 15.3617883,14.7694215 C15.3182115,14.850903 15.2542643,14.9148501 15.1727829,14.9584269 C15.0913014,15.0020037 15.0104798,15.0252101 14.7876001,15.0252101 L9.21239987,15.0252101 C8.98952019,15.0252101 8.90869863,15.0020037 8.82721715,14.9584269 C8.74573566,14.9148501 8.68178852,14.850903 8.63821175,14.7694215 C8.59463497,14.68794 8.57142857,14.6071185 8.57142857,14.3842388 L8.57142857,13.7838284 C8.57142857,13.5609488 8.59463497,13.4801272 8.63821175,13.3986457 C8.68178852,13.3171642 8.74573566,13.2532171 8.82721715,13.2096403 C8.90869863,13.1660635 8.98952019,13.1428571 9.21239987,13.1428571 Z" id="ic_shift_notes_notification" fill="#2D333F"></path>
        <path d="M19,7.5 C17.6192881,7.5 16.5,6.38071187 16.5,5 C16.5,3.61928813 17.6192881,2.5 19,2.5 C20.3807119,2.5 21.5,3.61928813 21.5,5 C21.5,6.38071187 20.3807119,7.5 19,7.5 Z" id="ic_dot" fill="#2D333F"></path>
    </g>
</svg>
