<?xml version="1.0" encoding="UTF-8"?>
<svg width="24px" height="24px" viewBox="0 0 24 24" version="1.1" xmlns="http://www.w3.org/2000/svg" xmlns:xlink="http://www.w3.org/1999/xlink">
    <!-- Generator: Sketch 53.2 (72643) - https://sketchapp.com -->
    <title>icon/navigation/ic_step1_fill/Light UI - Default</title>
    <desc>Created with Sketch.</desc>
    <defs>
        <path d="M12,22 C17.5228475,22 22,17.5228475 22,12 C22,6.4771525 17.5228475,2 12,2 C6.4771525,2 2,6.4771525 2,12 C2,17.5228475 6.4771525,22 12,22 Z M11.6451111,17.28 L11.6451111,8.912 L10.3331111,9.536 C10.1891111,9.6 10.0131111,9.568 9.96511111,9.424 L9.77311111,8.848 C9.72511111,8.72 9.75711111,8.592 9.82111111,8.512 L11.9171111,6.608 C12.0931111,6.464 12.2531111,6.4 12.4771111,6.4 L12.9731111,6.4 C13.1331111,6.4 13.2611111,6.544 13.2611111,6.704 L13.2611111,17.28 C13.2611111,17.456 13.1331111,17.6 12.9731111,17.6 L11.9651111,17.6 C11.7891111,17.6 11.6451111,17.456 11.6451111,17.28 Z" id="ic_step1_fill"></path>
    </defs>
    <g id="icon/navigation/ic_step1_fill/Light-UI---Default" stroke="none" stroke-width="1" fill="none" fill-rule="evenodd">
        <use id="ic_step1_fill" fill="#2D333F"></use>
    </g>
</svg>
