<?xml version="1.0" encoding="UTF-8"?>
<svg width="24px" height="24px" viewBox="0 0 24 24" version="1.1" xmlns="http://www.w3.org/2000/svg" xmlns:xlink="http://www.w3.org/1999/xlink">
    <!-- Generator: Sketch 50.2 (55047) - http://www.bohemiancoding.com/sketch -->
    <title>icon/ic_success</title>
    <desc>Created with Sketch.</desc>
    <defs></defs>
    <g id="icon/ic_success" stroke="none" stroke-width="1" fill="none" fill-rule="evenodd">
        <path d="M11.0355339,12.863961 L9.62132034,11.4497475 C9.23079605,11.0592232 8.59763107,11.0592232 8.20710678,11.4497475 C7.81658249,11.8402718 7.81658249,12.4734367 8.20710678,12.863961 L10.3284271,14.9852814 C10.5236893,15.1805435 10.7796116,15.2781746 11.0355339,15.2781746 C11.2914562,15.2781746 11.5473785,15.1805435 11.7426407,14.9852814 L15.9852814,10.7426407 C16.3758057,10.3521164 16.3758057,9.71895142 15.9852814,9.32842712 C15.5947571,8.93790283 14.9615921,8.93790283 14.5710678,9.32842712 L11.0355339,12.863961 Z M12,21 C7.02943725,21 3,16.9705627 3,12 C3,7.02943725 7.02943725,3 12,3 C16.9705627,3 21,7.02943725 21,12 C21,16.9705627 16.9705627,21 12,21 Z" id="ic_success" fill="#2D333F"></path>
    </g>
</svg>