<?xml version="1.0" encoding="UTF-8"?>
<svg width="24px" height="24px" viewBox="0 0 24 24" version="1.1" xmlns="http://www.w3.org/2000/svg" xmlns:xlink="http://www.w3.org/1999/xlink">
    <!-- Generator: Sketch 51.1 (57501) - http://www.bohemiancoding.com/sketch -->
    <title>Icon/Fill/ic_specials_fill</title>
    <desc>Created with Sketch.</desc>
    <defs></defs>
    <g id="Icon/Fill/ic_specials_fill" stroke="none" stroke-width="1" fill="none" fill-rule="evenodd">
        <path d="M13.5,5.5 L13.5,5 C13.5,4.44771525 13.9477153,4 14.5,4 C15.0522847,4 15.5,4.44771525 15.5,5 L15.5,5.5 C15.5,7.709139 17.290861,9.5 19.5,9.5 L20,9.5 C20.5522847,9.5 21,9.94771525 21,10.5 C21,11.0522847 20.5522847,11.5 20,11.5 L19.5,11.5 C17.290861,11.5 15.5,13.290861 15.5,15.5 L15.5,16 C15.5,16.5522847 15.0522847,17 14.5,17 C13.9477153,17 13.5,16.5522847 13.5,16 L13.5,15.5 C13.5,13.290861 11.709139,11.5 9.5,11.5 L9,11.5 C8.44771525,11.5 8,11.0522847 8,10.5 C8,9.94771525 8.44771525,9.5 9,9.5 L9.5,9.5 C11.709139,9.5 13.5,7.709139 13.5,5.5 Z M4.5,12 C3.67157288,12 3,11.3284271 3,10.5 C3,9.67157288 3.67157288,9 4.5,9 C5.32842712,9 6,9.67157288 6,10.5 C6,11.3284271 5.32842712,12 4.5,12 Z M9,16 L10,16 C10.5522847,16 11,16.4477153 11,17 C11,17.5522847 10.5522847,18 10,18 L9,18 L9,19 C9,19.5522847 8.55228475,20 8,20 C7.44771525,20 7,19.5522847 7,19 L7,18 L6,18 C5.44771525,18 5,17.5522847 5,17 C5,16.4477153 5.44771525,16 6,16 L7,16 L7,15 C7,14.4477153 7.44771525,14 8,14 C8.55228475,14 9,14.4477153 9,15 L9,16 Z" id="ic_specials_fill" fill="#2D333F" fill-rule="nonzero"></path>
    </g>
</svg>