<?xml version="1.0" encoding="UTF-8"?>
<svg width="24px" height="24px" viewBox="0 0 24 24" version="1.1" xmlns="http://www.w3.org/2000/svg" xmlns:xlink="http://www.w3.org/1999/xlink">
    <!-- Generator: Sketch 50.2 (55047) - http://www.bohemiancoding.com/sketch -->
    <title>icon/ic_scarcity</title>
    <desc>Created with Sketch.</desc>
    <defs></defs>
    <g id="icon/ic_scarcity" stroke="none" stroke-width="1" fill="none" fill-rule="evenodd">
        <path d="M15,5 C18.8659932,5 22,8.13400675 22,12 C22,15.8659932 18.8659932,19 15,19 C11.1340068,19 8,15.8659932 8,12 C8,8.13400675 11.1340068,5 15,5 Z M15,17 C17.7614237,17 20,14.7614237 20,12 C20,9.23857625 17.7614237,7 15,7 C12.2385763,7 10,9.23857625 10,12 C10,14.7614237 12.2385763,17 15,17 Z M17.5,11 C17.7761424,11 18,11.2238576 18,11.5 L18,12.5 C18,12.7761424 17.7761424,13 17.5,13 L14.5,13 C14.2238576,13 14,12.7761424 14,12.5 L14,8.5 C14,8.22385763 14.2238576,8 14.5,8 L15.5,8 C15.7761424,8 16,8.22385763 16,8.5 L16,11 L17.5,11 Z M6,7 C6.55228475,7 7,7.44771525 7,8 C7,8.55228475 6.55228475,9 6,9 L4,9 C3.44771525,9 3,8.55228475 3,8 C3,7.44771525 3.44771525,7 4,7 L6,7 Z M5,13 L3,13 C2.44771525,13 2,12.5522847 2,12 C2,11.4477153 2.44771525,11 3,11 L5,11 C5.55228475,11 6,11.4477153 6,12 C6,12.5522847 5.55228475,13 5,13 Z M6,15 C6.55228475,15 7,15.4477153 7,16 C7,16.5522847 6.55228475,17 6,17 L4,17 C3.44771525,17 3,16.5522847 3,16 C3,15.4477153 3.44771525,15 4,15 L6,15 Z" id="ic_scarcity" fill="#2D333F"></path>
    </g>
</svg>