<?xml version="1.0" encoding="UTF-8"?>
<svg width="24px" height="24px" viewBox="0 0 24 24" version="1.1" xmlns="http://www.w3.org/2000/svg" xmlns:xlink="http://www.w3.org/1999/xlink">
    <!-- Generator: Sketch 50.2 (55047) - http://www.bohemiancoding.com/sketch -->
    <title>icon/ic_sort</title>
    <desc>Created with Sketch.</desc>
    <defs></defs>
    <g id="icon/ic_sort" stroke="none" stroke-width="1" fill="none" fill-rule="evenodd">
        <path d="M12,6.61012279 L9.55270807,9.06132176 C9.35765926,9.25668196 9.04142266,9.25668196 8.84637386,9.06132176 L8.14628661,8.36011683 C7.9512378,8.16475664 7.9512378,7.84801518 8.14628661,7.65265498 L10.8805582,4.91401822 C10.8979329,4.88847291 10.9179314,4.86418167 10.9405537,4.84152324 L11.634449,4.14652015 C11.8294978,3.95115995 12.1457344,3.95115995 12.3407832,4.14652015 L15.8537134,7.66505865 C16.0487622,7.86041884 16.0487622,8.17716031 15.8537134,8.37252051 L15.1598181,9.0675236 C14.9647693,9.26288379 14.6485326,9.26288379 14.4534839,9.0675236 L12,6.61012279 Z M10.8805582,19.0859818 L8.14628661,16.3473451 C7.9512378,16.1519848 7.9512378,15.8352434 8.14628661,15.6398832 L8.84637386,14.9386782 C9.04142266,14.7433181 9.35765926,14.7433181 9.55270807,14.9386782 L12,17.3898772 L14.4534839,14.9324764 C14.6485326,14.7371162 14.9647693,14.7371162 15.1598181,14.9324764 L15.8537134,15.6274795 C16.0487622,15.8228397 16.0487622,16.1395812 15.8537134,16.3349413 L12.3407832,19.8534799 C12.1457344,20.04884 11.8294978,20.04884 11.634449,19.8534799 L10.9405537,19.1584768 C10.9179314,19.1358184 10.8979329,19.1115271 10.8805582,19.0859818 Z" id="ic_sort" fill="#2D333F" fill-rule="nonzero"></path>
    </g>
</svg>