<svg width="24" height="24" viewBox="0 0 24 24" fill="none" xmlns="http://www.w3.org/2000/svg">
  <g clip-path="url(#a)" fill="#2D333F">
    <path d="m9.383 9.284.309-.684a.75.75 0 0 0-.84.153l.531.53Zm-1.105 1.105-.53-.53a.75.75 0 0 0 0 1.06l.53-.53Zm1.444 1.444.53.53a.75.75 0 0 0 0-1.06l-.53.53ZM7.556 14l-.53.53a.75.75 0 0 0 1.06 0l-.53-.53ZM6.11 12.556l.53-.53a.75.75 0 0 0-1.06 0l.53.53ZM4.667 14l-.53.53a.75.75 0 0 0 1.06 0l-.53-.53ZM2.5 11.833l-.53-.53a.75.75 0 0 0 0 1.06l.53-.53Zm4.716-4.716.53.53a.75.75 0 0 0 .154-.839l-.684.309Zm3.95 3.3a5.083 5.083 0 0 0 5.084-5.084h-1.5a3.583 3.583 0 0 1-3.583 3.584v1.5Zm-2.092-.45c.64.29 1.348.45 2.093.45v-1.5A3.568 3.568 0 0 1 9.692 8.6l-.618 1.367Zm-.266.952 1.105-1.105-1.06-1.06-1.106 1.105 1.061 1.06Zm-1.06 0 1.444 1.445 1.06-1.061-1.444-1.444-1.06 1.06Zm1.444.384L7.025 13.47l1.06 1.06 2.168-2.166-1.061-1.061ZM8.086 13.47 6.64 12.025l-1.06 1.06 1.444 1.445 1.06-1.06Zm-2.889 1.06 1.444-1.444-1.06-1.06-1.445 1.444 1.061 1.06ZM1.97 12.364l2.166 2.166 1.061-1.06-2.167-2.167-1.06 1.06Zm4.716-5.777L1.97 11.303l1.06 1.06 4.717-4.716-1.061-1.06Zm-.603-1.254c0 .745.16 1.454.45 2.093L7.9 6.808a3.568 3.568 0 0 1-.317-1.475h-1.5ZM11.167.25a5.083 5.083 0 0 0-5.084 5.083h1.5a3.583 3.583 0 0 1 3.584-3.583V.25Zm5.083 5.083A5.083 5.083 0 0 0 11.167.25v1.5a3.583 3.583 0 0 1 3.583 3.583h1.5Z"/>
    <circle cx="11" cy="5.5" r="1.5"/>
  </g>
  <defs>
    <clipPath id="a">
      <path fill="#fff" transform="translate(.5)" d="M0 0h16v16H0z"/>
    </clipPath>
  </defs>
</svg>
