<?xml version="1.0" encoding="UTF-8"?>
<svg width="24px" height="24px" viewBox="0 0 24 24" version="1.1" xmlns="http://www.w3.org/2000/svg" xmlns:xlink="http://www.w3.org/1999/xlink">
  <path fill="#000000" fill-rule="nonzero" d="M8.035 6.823l-3.885.555-.163.029c-1.926.399-2.69 2.824-1.215 4.235l2.789 2.672-.656 3.766-.023.157c-.226 1.977 1.872 3.395 3.638 2.482l3.483-1.8 3.484 1.8.14.067c1.781.791 3.825-.7 3.475-2.706l-.658-3.766 2.79-2.672.118-.12c1.35-1.465.494-3.86-1.496-4.144l-3.886-.555-1.73-3.446c-.922-1.836-3.551-1.836-4.473 0L8.035 6.823zm4.417-2.549l2.201 4.382 4.92.702a.49.49 0 01.278.84l-3.56 3.41.84 4.816c.07.404-.361.707-.727.518l-4.4-2.273-4.402 2.273c-.365.19-.797-.114-.727-.518l.84-4.816-3.56-3.41a.49.49 0 01.278-.84l4.92-.702 2.201-4.382a.505.505 0 01.898 0z"/>
</svg>
