<?xml version="1.0" encoding="UTF-8"?>
<svg width="24px" height="24px" viewBox="0 0 24 24" version="1.1" xmlns="http://www.w3.org/2000/svg" xmlns:xlink="http://www.w3.org/1999/xlink">
    <!-- Generator: Sketch 49.2 (51160) - http://www.bohemiancoding.com/sketch -->
    <title>universal / icon / action / medium / ic_sort</title>
    <desc>Created with Sketch.</desc>
    <defs>
        <path d="M12.0030994,6.61282797 L9.55313065,9.06279668 C9.3578685,9.25805883 9.04128601,9.25805883 8.84602387,9.06279668 L8.14517088,8.36194369 C7.94990873,8.16668155 7.94990873,7.85009906 8.14517088,7.65483691 L10.8824331,4.91757468 C10.8998268,4.89204219 10.9198472,4.86776314 10.9424943,4.84511609 L11.6371485,4.15046182 C11.8324107,3.95519967 12.1489932,3.95519967 12.3442553,4.15046182 L15.8610278,7.66723436 C16.05629,7.8624965 16.05629,8.17907899 15.8610278,8.37434114 L15.1663736,9.06899541 C14.9711114,9.26425755 14.6545289,9.26425755 14.4592668,9.06899541 L12.0030994,6.61282797 Z M10.8824331,19.0824253 L8.14517088,16.3451631 C7.94990873,16.1499009 7.94990873,15.8333185 8.14517088,15.6380563 L8.84602387,14.9372033 C9.04128601,14.7419412 9.3578685,14.7419412 9.55313065,14.9372033 L12.0030994,17.387172 L14.4592668,14.9310046 C14.6545289,14.7357424 14.9711114,14.7357424 15.1663736,14.9310046 L15.8610278,15.6256589 C16.05629,15.820921 16.05629,16.1375035 15.8610278,16.3327656 L12.3442553,19.8495382 C12.1489932,20.0448003 11.8324107,20.0448003 11.6371485,19.8495382 L10.9424943,19.1548839 C10.9198472,19.1322369 10.8998268,19.1079578 10.8824331,19.0824253 Z" id="path-1"></path>
    </defs>
    <g id="universal-/-icon-/-action-/-medium-/-ic_sort" stroke="none" stroke-width="1" fill="none" fill-rule="evenodd">
        <mask id="mask-2" fill="white">
            <use xlink:href="#path-1"></use>
        </mask>
        <use id="ic_sort" fill="#2D333F" xlink:href="#path-1"></use>
    </g>
</svg>