<svg width="24" height="24" viewBox="0 0 24 24" fill="none" xmlns="http://www.w3.org/2000/svg">
<path fill-rule="evenodd" clip-rule="evenodd" d="M12.2747 2.03848C12.0952 1.98717 11.9048 1.98717 11.7253 2.03848L4.72528 4.03848C4.29598 4.16113 4 4.55352 4 5V12.3574C4 15.5871 5.73055 18.5692 8.53474 20.1716L11.5039 21.8682C11.8113 22.0439 12.1887 22.0439 12.4961 21.8682L15.4652 20.1716C18.2694 18.5692 20 15.5871 20 12.3574V5C20 4.55352 19.704 4.16113 19.2747 4.03848L12.2747 2.03848ZM6 12.3574V5.7543L12 4.04002L18 5.7543V12.3574C18 14.8694 16.654 17.1888 14.4729 18.4352L12 19.8483L9.52702 18.4352C7.34599 17.1888 6 14.8694 6 12.3574ZM8 12C8 11.4477 8.44772 11 9 11H11V9C11 8.44772 11.4477 8 12 8C12.5523 8 13 8.44772 13 9V11H15C15.5523 11 16 11.4477 16 12C16 12.5523 15.5523 13 15 13H13V15C13 15.5523 12.5523 16 12 16C11.4477 16 11 15.5523 11 15V13H9C8.44772 13 8 12.5523 8 12Z" fill="#2D333F"/>
</svg>
