<?xml version="1.0" encoding="UTF-8"?>
<svg width="24px" height="24px" viewBox="0 0 24 24" version="1.1" xmlns="http://www.w3.org/2000/svg" xmlns:xlink="http://www.w3.org/1999/xlink">
    <!-- Generator: Sketch 50.2 (55047) - http://www.bohemiancoding.com/sketch -->
    <title>icon/ic_ticket</title>
    <desc>Created with Sketch.</desc>
    <defs></defs>
    <g id="icon/ic_ticket" stroke="none" stroke-width="1" fill="none" fill-rule="evenodd">
        <path d="M12.7133596,8.1066091 L5.10669052,8.1066091 L5.10669052,8.77328543 C6.3444699,9.50130871 6.9633596,10.571987 6.9633596,11.9853202 C6.9633596,13.3986535 6.3444699,14.5653202 5.10669052,15.4853202 L5.10669052,16.1065308 L12.7133596,16.1065308 L12.7133596,8.1066091 Z M14.7133596,8.1066091 L14.7133596,16.1065308 L19.1067267,16.1065308 L19.1066376,15.4399081 C18.0111189,14.5501828 17.4633596,13.3986535 17.4633596,11.9853202 C17.4633596,10.571987 18.0111189,9.50130871 19.1066376,8.77328543 L19.1067267,8.1066091 L14.7133596,8.1066091 Z M5.10666174,6.10661527 L19.1067297,6.10659978 C20.2112992,6.10659978 21.1067297,7.00203028 21.1067297,8.10659978 C21.1067297,8.10660494 21.1067297,8.1066101 21.1067297,8.10661527 L21.1066829,9.22618756 C21.1066794,9.68056759 20.8003308,10.0778253 20.3608732,10.1933166 C19.5247569,10.4130515 19.1066987,11.0508445 19.1066987,12.1066957 C19.1066987,13.1625479 19.5247576,13.8003411 20.3608754,14.0200754 C20.8003452,14.1355669 21.106702,14.5328348 21.1067056,14.9872266 L21.1067297,16.1067762 C21.1067383,17.2113457 20.2113147,18.1067831 19.1067452,18.1067917 C19.10674,18.1067917 19.1067349,18.1067917 19.1067297,18.1067917 L5.10666174,18.1067947 C4.00209224,18.1067947 3.10666174,17.2113642 3.10666174,16.1067947 C3.10666174,16.1067885 3.10666174,16.1067824 3.10666174,16.1067762 L3.10671209,14.9872039 C3.1067163,14.5328237 3.41306541,14.1355662 3.85252318,14.0200751 C4.68864022,13.8003405 5.10669874,13.1625474 5.10669874,12.1066957 C5.10669874,11.0508436 4.68863984,10.4130504 3.85252204,10.193316 C3.41305192,10.0778259 3.1066948,9.68055819 3.10669059,9.22616633 L3.10666174,8.10661527 C3.10665152,7.00204577 4.00207374,6.10660698 5.10664324,6.10659677 C5.10664941,6.10659677 5.10665557,6.10659677 5.10666174,6.10659677 L5.10666174,6.10661527 Z" id="ic_ticket" fill="#2D333F" transform="translate(12.106696, 12.106696) rotate(-45.000000) translate(-12.106696, -12.106696) "></path>
    </g>
</svg>