<?xml version="1.0" encoding="UTF-8"?>
<svg width="24px" height="24px" viewBox="0 0 24 24" version="1.1" xmlns="http://www.w3.org/2000/svg" xmlns:xlink="http://www.w3.org/1999/xlink">
    <!-- Generator: Sketch 50.2 (55047) - http://www.bohemiancoding.com/sketch -->
    <title>icon/ic_table_categories</title>
    <desc>Created with Sketch.</desc>
    <defs></defs>
    <g id="icon/ic_table_categories" stroke="none" stroke-width="1" fill="none" fill-rule="evenodd">
        <path d="M17,9 L7,9 L7,11 L17,11 L17,9 Z M19,9 L19,18 C19,18.5522847 18.5522847,19 18,19 C17.4477153,19 17,18.5522847 17,18 L17,13 L7,13 L7,18 C7,18.5522847 6.55228475,19 6,19 C5.44771525,19 5,18.5522847 5,18 L5,9 L3,9 C2.44771525,9 2,8.55228475 2,8 L2,6 C2,5.44771525 2.44771525,5 3,5 L21,5 C21.5522847,5 22,5.44771525 22,6 L22,8 C22,8.55228475 21.5522847,9 21,9 L19,9 Z" id="ic_table_categories" fill="#2D333F"></path>
    </g>
</svg>