<svg width="24" height="24" viewBox="0 0 24 24" fill="none" xmlns="http://www.w3.org/2000/svg">
<path fill-rule="evenodd" clip-rule="evenodd" d="M15 3H9V4H4V9H3V15H4V20H9V21H15V20H20V15H21V9H20V4H15V3ZM12.0198 8.50026C10.152 8.50026 8.63795 10.0671 8.63795 12C8.63795 12.0408 8.63862 12.0815 8.63996 12.1219L9.1255 11.6275C9.3633 11.3854 9.74576 11.3886 9.97975 11.6347C10.2137 11.8808 10.2106 12.2766 9.97284 12.5187L8.59494 13.9218C8.45587 14.0634 8.26717 14.1209 8.08853 14.0955C7.97246 14.0873 7.8572 14.0444 7.7588 13.9651L6.23315 12.7367C5.96984 12.5247 5.92247 12.1319 6.12734 11.8594C6.33221 11.5869 6.71174 11.5379 6.97504 11.7499L7.43119 12.1172C7.43027 12.0782 7.42981 12.0392 7.42981 12C7.42981 9.37665 9.48481 7.25 12.0198 7.25C12.6612 7.25 13.2733 7.38651 13.8293 7.63357C14.1359 7.76979 14.2777 8.13739 14.1461 8.45463C14.0144 8.77188 13.6592 8.91863 13.3527 8.78241C12.9445 8.60103 12.4943 8.50026 12.0198 8.50026ZM15.0653 12.1587L15.3861 11.6626C15.3963 11.7735 15.4016 11.8861 15.4016 12C15.4016 13.9329 13.8875 15.4997 12.0198 15.4997C11.3235 15.4997 10.678 15.2826 10.1409 14.9104C9.86366 14.7183 9.48846 14.7951 9.30283 15.082C9.1172 15.3689 9.19143 15.7571 9.46863 15.9492C10.1985 16.455 11.0767 16.75 12.0198 16.75C14.5547 16.75 16.6097 14.6234 16.6097 12C16.6097 11.7947 16.5971 11.5922 16.5726 11.3935L17.0976 11.7019C17.3878 11.8724 17.7565 11.7671 17.9212 11.4669C18.0859 11.1666 17.9842 10.7851 17.694 10.6146L16.0129 9.62711C15.9579 9.59478 15.8996 9.57224 15.8403 9.55918C15.5859 9.46563 15.2932 9.5578 15.1362 9.80078L14.0612 11.4635C13.8757 11.7504 13.9501 12.1387 14.2274 12.3306C14.5047 12.5226 14.8798 12.4456 15.0653 12.1587Z" fill="#2D333F"/>
</svg>
