<?xml version="1.0" encoding="UTF-8"?>
<svg width="24px" height="24px" viewBox="0 0 24 24" version="1.1" xmlns="http://www.w3.org/2000/svg" xmlns:xlink="http://www.w3.org/1999/xlink">
    <!-- Generator: Sketch 49 (51002) - http://www.bohemiancoding.com/sketch -->
    <title>icon/details/ic_tag</title>
    <desc>Created with Sketch.</desc>
    <defs></defs>
    <g id="icon/details/ic_tag" stroke="none" stroke-width="1" fill="none" fill-rule="evenodd">
        <path d="M6.60660172,6.24807354 L8.2166649,3.22857095 C8.4199174,2.84739247 8.83545982,2.60660172 9.2900226,2.60660172 L15.9103925,2.60660172 C16.3682825,2.60660172 16.7862625,2.85089291 16.987846,3.2363267 L18.6066017,6.33143603 L18.6066017,19.4816017 C18.6066017,20.102922 18.0693434,20.6066017 17.4066017,20.6066017 L7.80660172,20.6066017 C7.14386002,20.6066017 6.60660172,20.102922 6.60660172,19.4816017 L6.60660172,6.24807354 Z M8.60660172,6.60660172 L8.60660172,18.6066017 L16.6066017,18.6066017 L16.6066017,6.60660172 L15.6066017,4.60660172 L9.60660172,4.60660172 L8.60660172,6.60660172 Z M12.6066017,6.60660172 C13.7111712,6.60660172 14.6066017,7.50203222 14.6066017,8.60660172 C14.6066017,9.71117122 13.7111712,10.6066017 12.6066017,10.6066017 C11.5020322,10.6066017 10.6066017,9.71117122 10.6066017,8.60660172 C10.6066017,7.50203222 11.5020322,6.60660172 12.6066017,6.60660172 Z" id="Combined-Shape" fill="#333333" transform="translate(12.606602, 11.606602) rotate(45.000000) translate(-12.606602, -11.606602) "></path>
    </g>
</svg>