<?xml version="1.0" encoding="UTF-8"?>
<svg width="24px" height="24px" viewBox="0 0 24 24" version="1.1" xmlns="http://www.w3.org/2000/svg" xmlns:xlink="http://www.w3.org/1999/xlink">
    <!-- Generator: Sketch 50.2 (55047) - http://www.bohemiancoding.com/sketch -->
    <title>icon/ic_toilet</title>
    <desc>Created with Sketch.</desc>
    <defs></defs>
    <g id="icon/ic_toilet" stroke="none" stroke-width="1" fill="none" fill-rule="evenodd">
        <path d="M5,11 L7,11 L7,6 C7,5.44771525 6.55228475,5 6,5 C5.44771525,5 5,5.44771525 5,6 L5,11 Z M9,8 L18,8 C19.6568542,8 21,9.34314575 21,11 L21,12 L21,14.1125475 C21,15.8780779 19.6592579,17.3549635 17.9019522,17.5251816 L13,18 L13,19 L16,19 C16.5522847,19 17,19.4477153 17,20 C17,20.5522847 16.5522847,21 16,21 L8.5,21 L5,21 C3.8954305,21 3,20.1045695 3,19 L3,13 L3,11 L3,6 C3,4.34314575 4.34314575,3 6,3 C7.65685425,3 9,4.34314575 9,6 L9,8 Z M9,13 L5,13 L5,19 L11,19 L11,16.1843657 L17.7091284,15.5344986 C18.4413495,15.4635734 19,14.8481956 19,14.1125475 L19,13 L9,13 Z M9,10 L9,11 L19,11 C19,10.4477153 18.5522847,10 18,10 L9,10 Z" id="ic_toilet" fill="#2D333F" fill-rule="nonzero"></path>
    </g>
</svg>