<?xml version="1.0" encoding="UTF-8"?>
<svg width="24px" height="24px" viewBox="0 0 24 24" version="1.1" xmlns="http://www.w3.org/2000/svg" xmlns:xlink="http://www.w3.org/1999/xlink">
    <!-- Generator: Sketch 52.3 (67297) - http://www.bohemiancoding.com/sketch -->
    <title>Social/Twitter</title>
    <desc>Created with Sketch.</desc>
    <g id="Social/Twitter" stroke="none" stroke-width="1" fill="none" fill-rule="evenodd">
        <g id="social/ic_twitter" transform="translate(3.000000, 3.000000)">
            <g id="Dark_Blue" fill="#1DA1F2">
                <path d="M15.75,18 L2.25,18 C1.008,18 0,16.992 0,15.75 L0,2.25 C0,1.008 1.008,0 2.25,0 L15.75,0 C16.992,0 18,1.008 18,2.25 L18,15.75 C18,16.992 16.992,18 15.75,18 Z" id="ic_twitter_1"></path>
            </g>
            <g id="logo/ic_twitter" transform="translate(3.375000, 4.410000)" fill="#FFFFFF">
                <path d="M3.537,9.162 C7.7805,9.162 10.1025,5.643 10.1025,2.5965 C10.1025,2.4975 10.1025,2.3985 10.098,2.2995 C10.548,1.9755 10.9395,1.566 11.25,1.1025 C10.836,1.287 10.3905,1.4085 9.9225,1.467 C10.3995,1.1835 10.764,0.729 10.9395,0.189 C10.494,0.4545 9.999,0.6435 9.4725,0.747 C9.0495,0.297 8.451,0.018 7.7895,0.018 C6.516,0.018 5.481,1.053 5.481,2.3265 C5.481,2.5065 5.5035,2.682 5.5395,2.853 C3.6225,2.7585 1.9215,1.836 0.783,0.441 C0.585,0.783 0.4725,1.179 0.4725,1.602 C0.4725,2.403 0.882,3.1095 1.4985,3.5235 C1.1205,3.51 0.765,3.4065 0.4545,3.2355 C0.4545,3.2445 0.4545,3.2535 0.4545,3.267 C0.4545,4.383 1.251,5.319 2.304,5.5305 C2.1105,5.5845 1.908,5.6115 1.6965,5.6115 C1.548,5.6115 1.404,5.598 1.2645,5.571 C1.557,6.489 2.412,7.155 3.42,7.173 C2.628,7.794 1.6335,8.163 0.5535,8.163 C0.369,8.163 0.1845,8.154 0.0045,8.1315 C1.0215,8.7795 2.2365,9.162 3.537,9.162" id="ic_twitter_2"></path>
            </g>
        </g>
    </g>
</svg>
