<?xml version="1.0" encoding="UTF-8"?>
<svg width="24px" height="24px" viewBox="0 0 24 24" version="1.1" xmlns="http://www.w3.org/2000/svg" xmlns:xlink="http://www.w3.org/1999/xlink">
    <!-- Generator: Sketch 49.3 (51167) - http://www.bohemiancoding.com/sketch -->
    <title>icon/ic_thumbs_up</title>
    <desc>Created with Sketch.</desc>
    <defs></defs>
    <g id="icon/ic_thumbs_up" stroke="none" stroke-width="1" fill="none" fill-rule="evenodd">
        <path d="M16,8.72965599 L19,8.72965599 C20.0434604,8.72965599 20.9090424,9.53135602 20.993357,10.5661228 L21.0047477,10.7059174 L19.3215536,19.1218884 C19.1345838,20.0567367 18.3137542,20.729656 17.3603922,20.729656 L5,20.729656 C3.89543051,20.729656 3,19.8342255 3,18.729656 L3,11.729656 C3,10.6250865 3.89543051,9.72965599 5,9.72965599 L7.84997559,9.72965599 L11.2586294,3.98015336 C11.73633,3.17440767 12.7092743,2.80815275 13.5997287,3.0988714 C14.7013375,3.45852859 15.5098011,3.99435755 16,4.72965598 C16.702641,5.78361739 16.6727445,7.12295221 16,8.72965599 Z M12.9943356,10.729656 L14.1551878,7.95721296 C14.5937359,6.90983649 14.6085099,6.24797216 14.3358994,5.83905634 C14.1236482,5.52067959 13.6869311,5.23123462 12.9790075,5.00010392 L8.98932097,11.729656 L5,11.729656 L5,18.729656 L17.3603922,18.729656 L18.9603922,10.729656 L12.9943356,10.729656 Z M7,10 L9,10 L9,20 L7,20 L7,10 Z" id="ic_thumbs_up" fill="#333333" fill-rule="nonzero"></path>
    </g>
</svg>