<?xml version="1.0" encoding="UTF-8"?>
<svg width="24px" height="24px" viewBox="0 0 24 24" version="1.1" xmlns="http://www.w3.org/2000/svg" xmlns:xlink="http://www.w3.org/1999/xlink" style="background: #FFFFFF;">
    <!-- Generator: Sketch 49.3 (51167) - http://www.bohemiancoding.com/sketch -->
    <title>icon/ic_thumbs_up</title>
    <desc>Created with Sketch.</desc>
    <defs></defs>
    <g id="icon/ic_thumbs_up" stroke="none" stroke-width="1" fill="none" fill-rule="evenodd">
        <g id="ic_thumbs_up" transform="translate(4.000000, 4.000000)">
            <path d="M15.9966602,6.64733539 C15.9547968,6.13355909 15.5245667,5.72965599 15,5.72965599 L10.4971678,5.72965599 L11.0775939,4.34343449 C11.6448973,2.98855382 11.6448973,1.99977755 11.1679497,1.28435619 C10.8228223,0.766665024 10.2093149,0.349837824 9.2893673,0.049490054 C8.8441398,-0.095869376 8.3576667,0.087259244 8.1188171,0.490130894 L4.41964828,6.72965599 L1,6.72965599 C0.44771525,6.72965599 0,7.17737129 0,7.72965599 L0,14.729656 C0,15.2819407 0.44771525,15.729656 1,15.729656 L13.3603922,15.729656 C13.8370732,15.729656 14.247488,15.3931963 14.3409729,14.9257721 L15.9966602,6.64733539 Z" id="Shape" stroke="#333333" stroke-width="2"></path>
            <rect id="Rectangle-path" fill="#333333" fill-rule="nonzero" x="3" y="6" width="2" height="10"></rect>
        </g>
    </g>
</svg>