<?xml version="1.0" encoding="UTF-8"?>
<svg width="24px" height="24px" viewBox="0 0 24 24" version="1.1" xmlns="http://www.w3.org/2000/svg" xmlns:xlink="http://www.w3.org/1999/xlink">
    <!-- Generator: Sketch 50.2 (55047) - http://www.bohemiancoding.com/sketch -->
    <title>icon/ic_toolbox</title>
    <desc>Created with Sketch.</desc>
    <defs></defs>
    <g id="icon/ic_toolbox" stroke="none" stroke-width="1" fill="none" fill-rule="evenodd">
        <path d="M7,8 L7,6 C7,4.8954305 7.8954305,4 9,4 L15,4 C16.1045695,4 17,4.8954305 17,6 L17,8 L20,8 C21.1045695,8 22,8.8954305 22,10 L22,18 C22,19.1045695 21.1045695,20 20,20 L4,20 C2.8954305,20 2,19.1045695 2,18 L2,10 C2,8.8954305 2.8954305,8 4,8 L7,8 Z M10,12 C10,11.4477153 10.4477153,11 11,11 L13,11 C13.5522847,11 14,11.4477153 14,12 L20,12 L20,10 L4,10 L4,12 L10,12 Z M10,14 L4,14 L4,18 L20,18 L20,14 L14,14 C14,14.5522847 13.5522847,15 13,15 L11,15 C10.4477153,15 10,14.5522847 10,14 Z M10,6 C9.44771525,6 9,6.44771525 9,7 L9,8 L15,8 L15,7 C15,6.44771525 14.5522847,6 14,6 L10,6 Z" id="ic_toolbox" fill="#2D333F"></path>
    </g>
</svg>