<?xml version="1.0" encoding="UTF-8"?>
<svg width="24px" height="24px" viewBox="0 0 24 24" version="1.1" xmlns="http://www.w3.org/2000/svg" xmlns:xlink="http://www.w3.org/1999/xlink">
    <!-- Generator: Sketch 53.1 (72631) - https://sketchapp.com -->
    <title>icon/line/ic_tablecombo/Light UI - Default</title>
    <desc>Created with Sketch.</desc>
    <g id="icon/line/ic_tablecombo/Light-UI---Default" stroke="none" stroke-width="1" fill="none" fill-rule="evenodd">
        <path d="M13,11 L15,11 C15.5522847,11 16,11.4477153 16,12 C16,12.5522847 15.5522847,13 15,13 L13,13 L13,15 C13,15.5522847 12.5522847,16 12,16 C11.4477153,16 11,15.5522847 11,15 L11,13 L9,13 C8.44771525,13 8,12.5522847 8,12 C8,11.4477153 8.44771525,11 9,11 L11,11 L11,9 C11,8.44771525 11.4477153,8 12,8 C12.5522847,8 13,8.44771525 13,9 L13,11 Z M9,2 L15,2 C15.5522847,2 16,2.44771525 16,3 C16,3.55228475 15.5522847,4 15,4 L9,4 C8.44771525,4 8,3.55228475 8,3 C8,2.44771525 8.44771525,2 9,2 Z M3,8 C3.55228475,8 4,8.44771525 4,9 L4,15 C4,15.5522847 3.55228475,16 3,16 C2.44771525,16 2,15.5522847 2,15 L2,9 C2,8.44771525 2.44771525,8 3,8 Z M21,8 C21.5522847,8 22,8.44771525 22,9 L22,15 C22,15.5522847 21.5522847,16 21,16 C20.4477153,16 20,15.5522847 20,15 L20,9 C20,8.44771525 20.4477153,8 21,8 Z M7,7 L7,17 L17,17 L17,7 L7,7 Z M7,5 L17,5 C18.1045695,5 19,5.8954305 19,7 L19,17 C19,18.1045695 18.1045695,19 17,19 L7,19 C5.8954305,19 5,18.1045695 5,17 L5,7 C5,5.8954305 5.8954305,5 7,5 Z M9,20 L15,20 C15.5522847,20 16,20.4477153 16,21 C16,21.5522847 15.5522847,22 15,22 L9,22 C8.44771525,22 8,21.5522847 8,21 C8,20.4477153 8.44771525,20 9,20 Z" id="Combined-Shape" fill="#2D333F" fill-rule="nonzero"></path>
    </g>
</svg>