<?xml version="1.0" encoding="UTF-8"?>
<svg width="24px" height="24px" viewBox="0 0 24 24" version="1.1" xmlns="http://www.w3.org/2000/svg" xmlns:xlink="http://www.w3.org/1999/xlink">
    <!-- Generator: Sketch 51.1 (57501) - http://www.bohemiancoding.com/sketch -->
    <title>Icon/Fill/ic_ticketing_fill</title>
    <desc>Created with Sketch.</desc>
    <defs></defs>
    <g id="Icon/Fill/ic_ticketing_fill" stroke="none" stroke-width="1" fill="none" fill-rule="evenodd">
        <path d="M5.73778806,7.0710765 L18.4044008,7.0710765 C19.3248739,7.0710765 20.0710649,7.81726742 20.0710649,8.73774057 C20.0710649,8.73774516 20.0710649,8.73774975 20.0710649,8.73775434 L20.0710862,9.53147892 C20.0710825,9.97905407 19.7736836,10.3721233 19.3429713,10.4938214 C18.6431795,10.6915482 18.2932835,11.2172999 18.2932835,12.0710765 C18.2932835,12.9248459 18.6431736,13.4505959 19.3429536,13.6483266 L19.3429589,13.648308 C19.7736629,13.7700082 20.0710546,14.1630719 20.0710583,14.6106397 L20.0710649,15.4043987 C20.0710725,16.3248718 19.3248877,17.0710689 18.4044146,17.0710765 C18.40441,17.0710765 18.4044054,17.0710765 18.4044008,17.0710765 L5.73778806,17.0710765 C4.81731639,17.0710765 4.07112666,16.3248868 4.07112666,15.4044151 C4.07112666,15.4044096 4.07112666,15.4044041 4.07112666,15.4043987 L4.07118379,14.6105927 C4.0711882,14.1630552 4.3685606,13.7700188 4.79923578,13.6483279 C5.49901904,13.4505983 5.84891066,12.9248479 5.84891066,12.0710765 C5.84891066,11.2173071 5.49902063,10.6915571 4.79924057,10.4938264 L4.79923495,10.4938463 C4.36853087,10.3721461 4.07113891,9.97908273 4.07113449,9.53151492 L4.07112666,8.73775434 C4.07111758,7.81728267 4.81729994,7.07108558 5.73777162,7.0710765 C5.7377771,7.0710765 5.73778258,7.0710765 5.73778806,7.0710765 Z M12.6103481,7.80332082 L12.6103481,16.1365424 L14.3881157,16.1365424 L14.3881157,7.80332082 L12.6103481,7.80332082 Z" id="ic_ticketing_fill" fill="#2D333F" transform="translate(12.071096, 12.071076) rotate(-45.000000) translate(-12.071096, -12.071076) "></path>
    </g>
</svg>