<?xml version="1.0" encoding="UTF-8"?>
<svg width="24px" height="24px" viewBox="0 0 24 24" version="1.1" xmlns="http://www.w3.org/2000/svg" xmlns:xlink="http://www.w3.org/1999/xlink">
    <!-- Generator: Sketch 49.2 (51160) - http://www.bohemiancoding.com/sketch -->
    <title>universal / icon / action / medium / ic_upvote</title>
    <desc>Created with Sketch.</desc>
    <defs>
        <path d="M11,10.4768544 L10.2377672,11.2390872 C10.0425051,11.4343493 9.72592258,11.4343493 9.53066044,11.2390872 L8.82355366,10.5319804 C8.62829151,10.3367183 8.62829151,10.0201358 8.82355366,9.82487364 L11.6519808,6.99644651 C11.7507156,6.89771169 11.8804702,6.84890239 12.0098741,6.85001862 C12.1392779,6.84890239 12.2690325,6.89771169 12.3677673,6.99644651 L15.1961945,9.82487364 C15.3914566,10.0201358 15.3914566,10.3367183 15.1961945,10.5319804 L14.4890877,11.2390872 C14.2938255,11.4343493 13.977243,11.4343493 13.7819809,11.2390872 L13,10.4571063 L13,16.6428931 C13,16.9190355 12.7761424,17.1428931 12.5,17.1428931 L11.5,17.1428931 C11.2238576,17.1428931 11,16.9190355 11,16.6428931 L11,10.4768544 Z M5,3 L19,3 C20.1045695,3 21,3.8954305 21,5 L21,19 C21,20.1045695 20.1045695,21 19,21 L5,21 C3.8954305,21 3,20.1045695 3,19 L3,5 C3,3.8954305 3.8954305,3 5,3 Z M5,5 L5,19 L19,19 L19,5 L5,5 Z" id="path-1"></path>
    </defs>
    <g id="universal-/-icon-/-action-/-medium-/-ic_upvote" stroke="none" stroke-width="1" fill="none" fill-rule="evenodd">
        <mask id="mask-2" fill="white">
            <use xlink:href="#path-1"></use>
        </mask>
        <use id="ic_upvote" fill="#6F737B" xlink:href="#path-1"></use>
    </g>
</svg>