<?xml version="1.0" encoding="UTF-8"?>
<svg width="24px" height="24px" viewBox="0 0 24 24" version="1.1" xmlns="http://www.w3.org/2000/svg" xmlns:xlink="http://www.w3.org/1999/xlink">
    <!-- Generator: Sketch 50.2 (55047) - http://www.bohemiancoding.com/sketch -->
    <title>icon/ic_upvote_selected</title>
    <desc>Created with Sketch.</desc>
    <defs></defs>
    <g id="icon/ic_upvote_selected" stroke="none" stroke-width="1" fill="none" fill-rule="evenodd">
        <path d="M11,10.4768544 L11,16.6428931 C11,16.9190355 11.2238576,17.1428931 11.5,17.1428931 L12.5,17.1428931 C12.7761424,17.1428931 13,16.9190355 13,16.6428931 L13,10.4571063 L13.7819809,11.2390872 C13.977243,11.4343493 14.2938255,11.4343493 14.4890877,11.2390872 L15.1961945,10.5319804 C15.3914566,10.3367183 15.3914566,10.0201358 15.1961945,9.82487364 L12.3677673,6.99644651 C12.2690325,6.89771169 12.1392779,6.84890239 12.0098741,6.85001862 C11.8804702,6.84890239 11.7507156,6.89771169 11.6519808,6.99644651 L8.82355366,9.82487364 C8.62829151,10.0201358 8.62829151,10.3367183 8.82355366,10.5319804 L9.53066044,11.2390872 C9.72592258,11.4343493 10.0425051,11.4343493 10.2377672,11.2390872 L11,10.4768544 Z M5,3 L19,3 C20.1045695,3 21,3.8954305 21,5 L21,19 C21,20.1045695 20.1045695,21 19,21 L5,21 C3.8954305,21 3,20.1045695 3,19 L3,5 C3,3.8954305 3.8954305,3 5,3 Z" id="ic_upvote_selected" fill="#DA3743"></path>
    </g>
</svg>