<svg xmlns="http://www.w3.org/2000/svg" width="24" height="24" viewBox="0 0 24 24" fill="none">
  <path d="M9 5.5C8 5.9 7.1 6.6 6.4 7.4 6.4 7.4 6.4 7.5 6.4 7.5H8C8.6 7.5 9 7.9 9 8.5 9 9.1 8.6 9.5 8 9.5H4C3.4 9.5 3 9.1 3 8.5V4.5C3 3.9 3.4 3.5 4 3.5 4.6 3.5 5 3.9 5 4.5V6.3C5 6.3 5.1 6.3 5.1 6.2 5.9 5.2 7 4.4 8.2 3.8 10 3 11.9 2.8 13.8 3.2 15.7 3.6 17.4 4.5 18.7 6 20 7.4 20.8 9.2 21 11.1 21.1 13 20.7 15 19.7 16.6 18.7 18.3 17.3 19.6 15.5 20.3 13.7 21 11.8 21.2 9.9 20.7 8.6 20.4 7.4 19.8 6.3 19 6.2 18.9 6 18.7 5.9 18.6 5.8 18.5 5.8 18.5 5.7 18.4 5.4 18.1 5.4 17.5 5.8 17.2 6.1 16.9 6.6 16.9 7 17.2 7 17.2 7.1 17.2 7.1 17.3 7.2 17.4 7.3 17.5 7.4 17.6 8.3 18.3 9.3 18.7 10.3 19 11.8 19.4 13.4 19.2 14.8 18.6 16.2 18 17.4 17 18.2 15.7 19 14.4 19.3 12.8 19.2 11.3 19 9.8 18.4 8.3 17.3 7.2 16.3 6 14.9 5.3 13.4 4.9 11.9 4.6 10.4 4.8 9 5.5Z" fill="#2D333F"/>
</svg>