<svg width="24" height="24" viewBox="0 0 24 24" fill="none" xmlns="http://www.w3.org/2000/svg">
<path d="M13.4718 7.50938C13.4718 8.28261 12.8451 8.90938 12.0718 8.90938C11.2986 8.90938 10.6718 8.28261 10.6718 7.50938C10.6718 6.73614 11.2986 6.10938 12.0718 6.10938C12.8451 6.10938 13.4718 6.73614 13.4718 7.50938Z" fill="#2D333F"/>
<path d="M13.1452 11.4798L13.144 11.4571L15.4965 10.7958C15.9457 10.681 16.2195 10.208 16.095 9.77194C15.9656 9.31803 15.4555 9.09664 15.0366 9.20114L15.0293 9.20296L15.0219 9.20522L15.0163 9.20692L14.9981 9.21237L14.9277 9.23331C14.8665 9.25141 14.778 9.27732 14.6693 9.30844C14.4516 9.37073 14.1535 9.45368 13.8312 9.53653C13.5084 9.6195 13.164 9.7017 12.8531 9.76296C12.5366 9.82531 12.2742 9.86194 12.1069 9.86194C11.9443 9.86194 11.6865 9.82636 11.3743 9.76564C11.0678 9.70602 10.7274 9.62603 10.4082 9.54528C10.0895 9.46465 9.79429 9.38392 9.57869 9.32331C9.47096 9.29302 9.38326 9.2678 9.32261 9.25019L9.25284 9.22981L9.23485 9.2245L9.22908 9.22247L9.21589 9.21918C8.82166 9.121 8.30714 9.27785 8.1441 9.73532L8.14224 9.7409C7.9878 10.2027 8.26811 10.6821 8.7387 10.7962L11.0893 11.457L11.0883 11.4754C11.0787 11.6569 11.065 11.9152 11.0452 12.1655C11.023 12.4466 10.9951 12.6856 10.9647 12.7992L10.9624 12.8089C10.9238 12.975 10.8028 13.2489 10.6223 13.5888C10.4462 13.9204 10.2277 14.2891 10.013 14.6354C9.79863 14.9811 9.59002 15.3014 9.43488 15.5355C9.35736 15.6525 9.29331 15.7477 9.24871 15.8136L9.19718 15.8894L9.18379 15.909L9.17939 15.9154L9.16754 15.9327L9.1582 15.9514C8.93548 16.3971 9.1713 16.8767 9.57077 17.0632C9.68397 17.1162 9.80465 17.1457 9.93012 17.1457C10.2191 17.1457 10.5549 17.0029 10.6987 16.6816L12.0802 14.6379L13.2401 16.7535C13.3939 17.0394 13.6942 17.2 14.0075 17.2C14.1317 17.2 14.2513 17.171 14.3635 17.1191C14.7997 16.9265 14.9959 16.4384 14.7796 16.0055L14.7736 15.9946L14.7702 15.9883L14.7591 15.9682L14.7167 15.8905C14.6801 15.823 14.6274 15.7255 14.5635 15.6058C14.4357 15.3663 14.2634 15.0387 14.0853 14.6855C13.907 14.332 13.724 13.9551 13.5741 13.6166C13.4215 13.2721 13.3124 12.9869 13.271 12.809L13.2685 12.7995C13.2381 12.6858 13.2104 12.4467 13.1882 12.1655C13.1686 11.9173 13.1549 11.6611 13.1452 11.4798Z" fill="#2D333F"/>
<path fill-rule="evenodd" clip-rule="evenodd" d="M21 12C21 16.9706 16.9706 21 12 21C7.02944 21 3 16.9706 3 12C3 7.02944 7.02944 3 12 3C16.9706 3 21 7.02944 21 12ZM19.25 12C19.25 16.0041 16.0041 19.25 12 19.25C7.99594 19.25 4.75 16.0041 4.75 12C4.75 7.99594 7.99594 4.75 12 4.75C16.0041 4.75 19.25 7.99594 19.25 12Z" fill="#2D333F"/>
</svg>
