<svg width="40" height="40" viewBox="0 0 40 40" fill="none" xmlns="http://www.w3.org/2000/svg">
    <circle cx="20" cy="20" r="20" fill="#DA3743"/>
    <path fill-rule="evenodd" clip-rule="evenodd" d="M14 10C12.8954 10 12 10.8954 12 12V28C12 29.1046 12.8954 30 14 30H26C27.1046 30 28 29.1046 28 28V12C28 10.8954 27.1046 10 26 10H14ZM16.5 15C16.2239 15 16 15.2239 16 15.5V16.5C16 16.7761 16.2239 17 16.5 17H23.5C23.7761 17 24 16.7761 24 16.5V15.5C24 15.2239 23.7761 15 23.5 15H16.5ZM16 19.5C16 19.2239 16.2239 19 16.5 19H23.5C23.7761 19 24 19.2239 24 19.5V20.5C24 20.7761 23.7761 21 23.5 21H16.5C16.2239 21 16 20.7761 16 20.5V19.5ZM16.5 23C16.2239 23 16 23.2239 16 23.5V24.5C16 24.7761 16.2239 25 16.5 25H23.5C23.7761 25 24 24.7761 24 24.5V23.5C24 23.2239 23.7761 23 23.5 23H16.5Z" fill="white"/>
</svg>
