<?xml version="1.0" encoding="UTF-8"?>
<svg width="24px" height="24px" viewBox="0 0 24 24" version="1.1" xmlns="http://www.w3.org/2000/svg" xmlns:xlink="http://www.w3.org/1999/xlink">
    <!-- Generator: Sketch 51.1 (57501) - http://www.bohemiancoding.com/sketch -->
    <title>Icon/Fill/ic_vip_fill</title>
    <desc>Created with Sketch.</desc>
    <defs></defs>
    <g id="Icon/Fill/ic_vip_fill" stroke="none" stroke-width="1" fill="none" fill-rule="evenodd">
        <path d="M11.5137725,17.4630462 L8.69241252,19.0325918 C8.20978307,19.3010825 7.60087988,19.1274888 7.33238917,18.6448593 C7.22306274,18.448338 7.18316872,18.2207028 7.21914978,17.9987157 L7.78473158,14.5093292 C7.83527862,14.1974767 7.73548877,13.8800779 7.51558284,13.6532555 L5.0780097,11.1390156 C4.6935778,10.7424925 4.70337964,10.1094034 5.09990273,9.72497153 C5.24883354,9.58058206 5.43898028,9.48608004 5.64400446,9.45455556 L8.91608749,8.95144074 C9.2462163,8.9006802 9.52920657,8.68844889 9.67038837,8.38574547 L11.0936432,5.33418968 C11.327088,4.833668 11.9220855,4.61715943 12.4226071,4.85060425 C12.6356259,4.94995685 12.80684,5.12117091 12.9061926,5.33418968 L14.3294474,8.38574547 C14.4706292,8.68844889 14.7536195,8.9006802 15.0837483,8.95144074 L18.3558313,9.45455556 C18.901701,9.53848838 19.2761748,10.0490442 19.192242,10.5949139 C19.1607176,10.7999381 19.0662155,10.9900848 18.9218261,11.1390156 L16.4842529,13.6532555 C16.264347,13.8800779 16.1645572,14.1974767 16.2151042,14.5093292 L16.780686,17.9987157 C16.8690506,18.5438855 16.4987367,19.0574666 15.9535669,19.1458312 C15.7315798,19.1818123 15.5039446,19.1419183 15.3074233,19.0325918 L12.4860633,17.4630462 C12.1837798,17.2948835 11.8160559,17.2948835 11.5137725,17.4630462 Z" id="ic_vip_fill" fill="#2D333F"></path>
    </g>
</svg>