<svg width="24" height="24" viewBox="0 0 24 24" fill="none" xmlns="http://www.w3.org/2000/svg">
    <path fill-rule="evenodd" clip-rule="evenodd" d="M11.725 2.038a1 1 0 01.55 0l7 2A1 1 0 0120 5v7.357a9 9 0 01-4.535 7.815l-2.969 1.696a1 1 0 01-.992 0l-2.97-1.696A9 9 0 014 12.357V5a1 1 0 01.725-.962l7-2zm-3.63 9.376a1.007 1.007 0 011.42 0l1.42 1.414 3.55-3.535a1.007 1.007 0 011.42 0 .997.997 0 010 1.414l-4.26 4.243c-.392.39-1.028.39-1.42 0l-2.13-2.122a.997.997 0 010-1.414z" fill="#2D333F"/>
</svg>
