<svg viewBox="0 0 24 24" xmlns="http://www.w3.org/2000/svg"><path fill-rule="evenodd" clip-rule="evenodd" d="M14.7071 10.7071C14.3166 11.0976 13.6834 11.0976 13.2929 10.7071C12.9024 10.3166 12.9024 9.68342 13.2929 9.29289L15.5858 7L13.2929 4.70711C12.9024 4.31658 12.9024 3.68342 13.2929 3.29289C13.6834 2.90237 14.3166 2.90237 14.7071 3.29289L17 5.58579L19.2929 3.29289C19.6834 2.90237 20.3166 2.90237 20.7071 3.29289C21.0976 3.68342 21.0976 4.31658 20.7071 4.70711L18.4142 7L20.7071 9.29289C21.0976 9.68342 21.0976 10.3166 20.7071 10.7071C20.3166 11.0976 19.6834 11.0976 19.2929 10.7071L17 8.41421L14.7071 10.7071ZM17.2404 13.7466L19.479 15.9851C20.1573 16.6634 20.1757 17.7449 19.52 18.4006C17.3345 20.5861 13.7293 20.5244 11.4682 18.2632L5.73703 12.5322C3.47585 10.2709 3.41414 6.66575 5.59969 4.48021C6.25535 3.82455 7.33679 3.84294 8.01515 4.52129L10.2537 6.75985C10.8263 7.33247 10.8418 8.24534 10.2884 8.7988C10.1673 8.91989 10.0144 9.00465 9.84615 9.04403L8.83916 9.27965C7.98417 9.47971 7.80796 10.4749 8.44445 11.1114L12.8889 15.5558C13.5254 16.1923 14.5206 16.0161 14.7206 15.1611L14.9562 14.1541C14.9956 13.9858 15.0803 13.833 15.2014 13.7118C15.7549 13.1584 16.6678 13.1739 17.2404 13.7466Z" fill="currentColor" fill-rule="nonzero"/></svg>
