<svg width="24" height="24" viewBox="0 0 24 24" fill="none" xmlns="http://www.w3.org/2000/svg">
<path fill-rule="evenodd" clip-rule="evenodd" d="M11.0852 7.07361C12.487 7.07361 13.6233 5.93785 13.6233 4.53681C13.6233 3.13577 12.487 2 11.0852 2C9.68342 2 8.54706 3.13577 8.54706 4.53681C8.54706 5.93785 9.68342 7.07361 11.0852 7.07361Z" fill="#2D333F"/>
<path fill-rule="evenodd" clip-rule="evenodd" d="M11.3061 8.08115C11.8727 8.25038 12.2739 8.75454 12.3114 9.34448L12.679 15.1386L16.5314 18.5972C17.1117 19.1182 17.1596 20.0109 16.6383 20.5909C16.117 21.171 15.2239 21.2188 14.6435 20.6978L10.3619 16.8538C10.0868 16.6068 9.91958 16.2618 9.89617 15.8929L9.73414 13.3393L8.54218 14.926C8.07378 15.5496 7.18834 15.6755 6.56449 15.2074C5.94065 14.7392 5.81464 13.8542 6.28304 13.2307L9.77211 8.58617C10.1272 8.11346 10.7394 7.91191 11.3061 8.08115Z" fill="#2D333F"/>
<path d="M11.0121 19.718L8.87297 21.6386C8.29261 22.1596 7.39953 22.1118 6.87822 21.5317C6.35691 20.9516 6.40478 20.059 6.98514 19.538L9.0009 17.7283L11.0121 19.718Z" fill="#2D333F"/>
<path d="M13.6476 8.88286L16.0004 10.5362C16.631 10.9952 16.7699 11.8783 16.3106 12.5085C15.8513 13.1388 14.9678 13.2776 14.3372 12.8185L13.8314 12.3607L13.6476 8.88286Z" fill="#2D333F"/>
</svg>
