<?xml version="1.0" encoding="UTF-8"?>
<svg width="24px" height="24px" viewBox="0 0 24 24" version="1.1" xmlns="http://www.w3.org/2000/svg" xmlns:xlink="http://www.w3.org/1999/xlink">
    <path fill-rule="evenodd" clip-rule="evenodd" d="M11.125 3.512a1 1 0 011.746 0l8.998 16.106a1 1 0 01-.873 1.488H3a1 1 0 01-.873-1.488l8.998-16.106zm-.127 6.091a.5.5 0 01.5-.5h1a.5.5 0 01.5.5v4a.5.5 0 01-.5.5h-1a.5.5 0 01-.5-.5v-4zm.5 6.5a.5.5 0 00-.5.5v1a.5.5 0 00.5.5h1a.5.5 0 00.5-.5v-1a.5.5 0 00-.5-.5h-1z" fill="#2D333F"/>
</svg>
