<svg width="24" height="24" viewBox="0 0 24 24" fill="none" xmlns="http://www.w3.org/2000/svg">
    <path fill-rule="evenodd" clip-rule="evenodd" d="M8 15.5C12.1421 15.5 15.5 12.1421 15.5 8C15.5 3.85786 12.1421 0.5 8 0.5C3.85786 0.5 0.5 3.85786 0.5 8C0.5 12.1421 3.85786 15.5 8 15.5ZM7.16667 5.08333C7.16667 4.85321 7.35321 4.66667 7.58333 4.66667H8.41667C8.64678 4.66667 8.83333 4.85321 8.83333 5.08333V8.41667C8.83333 8.64678 8.64678 8.83333 8.41667 8.83333H7.58333C7.35321 8.83333 7.16667 8.64678 7.16667 8.41667V5.08333ZM7.58333 10.5C7.35321 10.5 7.16667 10.6865 7.16667 10.9167V11.75C7.16667 11.9801 7.35321 12.1667 7.58333 12.1667H8.41667C8.64678 12.1667 8.83333 11.9801 8.83333 11.75V10.9167C8.83333 10.6865 8.64678 10.5 8.41667 10.5H7.58333Z" fill="#931B23"/>
</svg>
