<svg width="24" height="24" viewBox="0 0 24 24" fill="none" xmlns="http://www.w3.org/2000/svg">
    <path fill-rule="evenodd" clip-rule="evenodd" d="M10 17.5C14.1421 17.5 17.5 14.1421 17.5 10C17.5 5.85786 14.1421 2.5 10 2.5C5.85786 2.5 2.5 5.85786 2.5 10C2.5 14.1421 5.85786 17.5 10 17.5ZM9.16667 7.08333C9.16667 6.85321 9.35321 6.66667 9.58333 6.66667H10.4167C10.6468 6.66667 10.8333 6.85321 10.8333 7.08333V10.4167C10.8333 10.6468 10.6468 10.8333 10.4167 10.8333H9.58333C9.35321 10.8333 9.16667 10.6468 9.16667 10.4167V7.08333ZM9.58333 12.5C9.35321 12.5 9.16667 12.6865 9.16667 12.9167V13.75C9.16667 13.9801 9.35321 14.1667 9.58333 14.1667H10.4167C10.6468 14.1667 10.8333 13.9801 10.8333 13.75V12.9167C10.8333 12.6865 10.6468 12.5 10.4167 12.5H9.58333Z" fill="#931B23"/>
</svg>
