<?xml version="1.0" encoding="UTF-8"?>
<svg width="24px" height="24px" viewBox="0 0 24 24" version="1.1" xmlns="http://www.w3.org/2000/svg" xmlns:xlink="http://www.w3.org/1999/xlink">
    <!-- Generator: Sketch 50.2 (55047) - http://www.bohemiancoding.com/sketch -->
    <title>icon/ic_waitlist</title>
    <desc>Created with Sketch.</desc>
    <defs></defs>
    <g id="icon/ic_waitlist" stroke="none" stroke-width="1" fill="none" fill-rule="evenodd">
        <path d="M8.26762753,2.99989086 C8.61345248,2.40214968 9.2597627,2 10,2 L14,2 C14.7402373,2 15.3865475,2.40214968 15.7323725,2.99989086 L18,2.99989086 C19.1045695,2.99989086 20,3.89532136 20,4.99989086 L20,20 C20,21.1045695 19.1045695,22 18,22 L6,22 C4.8954305,22 4,21.1045695 4,20 L4,4.99989086 C4,3.89532136 4.8954305,2.99989086 6,2.99989086 L8.26762753,2.99989086 Z M8.26751455,4.99991384 L6,4.99991384 L6,20 L18,20 L18,4.99991384 L15.7324855,4.99991384 C15.3866883,5.59776272 14.7403179,6 14,6 L10,6 C9.25968208,6 8.6133117,5.59776272 8.26751455,4.99991384 Z M8.5,12 L15.5,12 C15.7761424,12 16,12.2238576 16,12.5 L16,13.5 C16,13.7761424 15.7761424,14 15.5,14 L8.5,14 C8.22385763,14 8,13.7761424 8,13.5 L8,12.5 C8,12.2238576 8.22385763,12 8.5,12 Z M8.5,8 L15.5,8 C15.7761424,8 16,8.22385763 16,8.5 L16,9.5 C16,9.77614237 15.7761424,10 15.5,10 L8.5,10 C8.22385763,10 8,9.77614237 8,9.5 L8,8.5 C8,8.22385763 8.22385763,8 8.5,8 Z M8.5,16 L15.5,16 C15.7761424,16 16,16.2238576 16,16.5 L16,17.5 C16,17.7761424 15.7761424,18 15.5,18 L8.5,18 C8.22385763,18 8,17.7761424 8,17.5 L8,16.5 C8,16.2238576 8.22385763,16 8.5,16 Z" id="ic_waitlist" fill="#2D333F"></path>
    </g>
</svg>