<svg width="24" height="24" viewBox="0 0 24 24" fill="none" xmlns="http://www.w3.org/2000/svg">
<path d="M0 0H24V24H0V0Z" fill="white"/>
<circle cx="12" cy="12" r="3" transform="rotate(-180 12 12)" stroke="black" stroke-width="2" stroke-linecap="round" stroke-linejoin="round"/>
<path d="M19.4807 6.99745C18.7629 5.92138 17.8364 5.0372 16.7807 4.37648C16.4034 5.12418 15.5106 5.47313 14.7172 5.15805C13.9238 4.84297 13.5137 3.97659 13.7521 3.1737C12.5308 2.93012 11.2501 2.93774 9.98962 3.22815C10.2519 4.02389 9.86741 4.90235 9.08338 5.24065C8.29934 5.57896 7.39641 5.25604 6.99746 4.51925C5.92139 5.23706 5.03721 6.16356 4.37648 7.21925C5.12418 7.59663 5.47314 8.48941 5.15805 9.28278C4.84297 10.0762 3.97659 10.4863 3.1737 10.2479C2.93012 11.4692 2.93774 12.7499 3.22815 14.0104C4.02389 13.7481 4.90235 14.1326 5.24065 14.9166C5.57896 15.7007 5.25604 16.6036 4.51925 17.0025C5.23706 18.0786 6.16356 18.9628 7.21926 19.6235C7.59664 18.8758 8.48941 18.5269 9.28279 18.8419C10.0762 19.157 10.4863 20.0234 10.2479 20.8263C11.4692 21.0699 12.7499 21.0623 14.0104 20.7719C13.7481 19.9761 14.1326 19.0976 14.9166 18.7593C15.7007 18.421 16.6036 18.744 17.0026 19.4807C18.0786 18.7629 18.9628 17.8364 19.6235 16.7807C18.8758 16.4034 18.5269 15.5106 18.8419 14.7172C19.157 13.9238 20.0234 13.5137 20.8263 13.7521C21.0699 12.5308 21.0623 11.2501 20.7719 9.98962C19.9761 10.2519 19.0977 9.8674 18.7593 9.08337C18.421 8.29934 18.744 7.39641 19.4807 6.99745Z" stroke="black" stroke-width="2" stroke-linecap="round" stroke-linejoin="round"/>
</svg>
