<?xml version="1.0" encoding="UTF-8"?>
<svg width="24px" height="24px" viewBox="0 0 24 24" version="1.1" xmlns="http://www.w3.org/2000/svg" xmlns:xlink="http://www.w3.org/1999/xlink" style="background: #FFFFFF;">
    <!-- Generator: Sketch 46.1 (44463) - http://www.bohemiancoding.com/sketch -->
    <title>icon/ic_phone</title>
    <desc>Created with Sketch.</desc>
    <defs></defs>
    <g id="Symbols" stroke="none" stroke-width="1" fill="none" fill-rule="evenodd">
        <g id="icon/ic_phone">
            <g id="ic_phone">
                <rect id="Rectangle-path" x="0" y="0" width="24" height="24"></rect>
                <path d="M3.6078908,10.550251 C2.61923908,11.0680258 1.99972271,12.0918108 1.99971837,13.2078404 L1.99971837,15.6072816 C1.99971837,16.1595664 2.44743362,16.6072816 2.99971837,16.6072816 L6.3793488,16.6072816 C6.82186328,16.6072816 7.21175771,16.3164463 7.33787494,15.892282 C7.82877775,14.2412802 8.56739585,13.2739483 9.74971837,13.2739483 L10.3982265,13.2739469 L10.9997198,13.2739459 C11.9349601,13.2739449 11.9349601,13.2739449 12.2508894,13.273949 C13.457624,13.275362 14.2165836,14.245409 14.6845206,15.8821632 C14.8072329,16.3113873 15.1995808,16.6072842 15.6460041,16.6072816 L18.9997184,16.6072816 C19.5520031,16.6072816 19.9997184,16.1595664 19.9997184,15.6072816 L19.9997184,13.2078497 C19.9997184,12.09182 19.3802043,11.0680343 18.3915552,10.5502559 C15.911882,9.25160463 13.451313,8.60728164 10.9997184,8.60728164 C8.54812677,8.60728164 6.08756091,9.25160303 3.6078908,10.550251 Z" id="Shape" stroke="#333333" stroke-width="2" transform="translate(10.999718, 12.607282) rotate(-135.000000) translate(-10.999718, -12.607282) "></path>
            </g>
        </g>
    </g>
</svg>