<svg width="33" height="24" viewBox="0 0 33 24" xmlns="http://www.w3.org/2000/svg">
  <path d="M0 11.783a2.95 2.95 0 0 1 2.954-2.946 2.95 2.95 0 0 1 2.953 2.946 2.95 2.95 0 0 1-2.953 2.946A2.95 2.95 0 0 1 0 11.783zm20.747 2.946a2.95 2.95 0 0 1-2.953-2.946 2.95 2.95 0 0 1 2.953-2.946 2.95 2.95 0 0 1 2.955 2.946 2.95 2.95 0 0 1-2.955 2.946zM20.748 0C14.223 0 8.933 5.276 8.933 11.783c0 6.508 5.29 11.784 11.815 11.784 6.526 0 11.815-5.276 11.815-11.784C32.563 5.276 27.273 0 20.748 0z" fill="#FFF" fill-rule="evenodd"/>
</svg>